<svg version="1.2" xmlns="http://www.w3.org/2000/svg" viewBox="0 0 468 144" width="468" height="144">
	<title>-e-1</title>
	<style>
		.s0 { fill: #d60606 } 
		.s1 { fill: #341115 } 
		.s2 { fill: #200000 } 
		.s3 { fill: #80c2dc } 
		.s4 { opacity: .7;fill: #ffffff } 
		.s5 { fill: #ea454b } 
		.s6 { fill: #f43b3b } 
		.s7 { fill: #ffffff } 
		.s8 { fill: #070000 } 
		.s9 { fill: #dcdfe2 } 
		.s10 { fill: #cbcfd1 } 
		.s11 { fill: #262626 } 
	</style>
	<g id="-e-1">
		<g id="&lt;Group&gt;">
			<g id="&lt;Group&gt;">
				<path id="&lt;Path&gt;" class="s0" d="m19.5 30.8c0 0-14.5 13.5-14.4 25.6 0 3.3 1.2 17.4-0.8 20.7-2.1 3.3-6.4 6.4-3.3 13.1-1.3 8.3-0.7 18.2 10.1 22.7 10.7 4.5 50.5 9.1 123.5 10.3 73 1.2 208.3 1.2 211.6 1.6 3.3 0.5 93.6 2.1 103.5 0.9 9.9-1.3 17.7-0.2 17.3-6.4-0.4-6.2-2.7-11.1-5.3-21.7-0.3-0.9-2.3-3.6-6.1-7.6 6.2 0-32.1-26.9-42.2-31.8-25-12.1-37.8-16.1-93.2-19.1-13.2-0.7-14.4 0.2-14.4 0.2-8-1.6-13.6-3.4-19-6.4-8.2-4.6-73.8-32.5-105.2-30.5-58.5 3.7-117.9 23.9-127.4 23.9-6.3 0-38.2-7.2-34.7 4.5z"/>
				<g id="&lt;Group&gt;">
					<path id="&lt;Path&gt;" class="s1" d="m449.7 115.5c-9.9 1.2-100.2-0.4-103.5-0.8-3.3-0.4-138.6-0.4-211.6-1.7-73-1.2-106.8-5.4-117.5-9.9-6.4-2.7-15.2-7.7-16.1-12.7-1.2 8.2-0.6 18 10.1 22.5 10.7 4.5 50.5 9.1 123.5 10.3 73 1.2 208.3 1.2 211.6 1.6 3.3 0.5 93.6 2.1 103.5 0.9 9.9-1.3 17.7-0.2 17.3-6.4-0.2-2.3-0.6-4.4-1.2-6.7-2.5 2.3-8.7 2-16.1 2.9z"/>
				</g>
				<g id="&lt;Group&gt;">
					<g id="&lt;Group&gt;">
						<path id="&lt;Path&gt;" class="s2" d="m366.8 64.7c-23.8 0-43 19.2-43 42.9 0 6.1 1.3 11.8 3.5 17 11.2 0.1 18.2 0.2 18.9 0.2 1.9 0.3 32 0.9 59.3 1.2 2.7-5.6 4.2-11.8 4.2-18.4 0-23.7-19.2-42.9-42.9-42.9z"/>
					</g>
					<g id="&lt;Group&gt;">
						<path id="&lt;Path&gt;" class="s1" d="m149.2 90c-6.5-15.1-23.2-34.2-56.7-34.2-23.7 0-50.1 23.5-45.7 54.4 0.7 5.1 7.6 9.5 7.6 9.5 39.3 3.3 250.3 0.4 269.9-5.3-72.8-4.2-167.4-6.7-175.1-24.4z"/>
					</g>
					<g id="&lt;Group&gt;">
						<path id="&lt;Path&gt;" class="s2" d="m137.7 105c0-23.7-19.3-43-43-43-23.7 0-42.9 19.3-42.9 43 0 5.2 0.9 10.1 2.6 14.7 19.7 1.6 46 2.9 79.2 3.5 2.6-5.6 4.1-11.7 4.1-18.2z"/>
					</g>
				</g>
				<path id="&lt;Path&gt;" class="s1" d="m305.8 39.3c-6.9-1.5-14.1-3.7-19-6.4-8.2-4.6-78.4-33.7-109.8-31.7-58.6 3.7-113.3 25.1-122.8 25.1-1.2 0 68.5-7.9 125 12.1 27.8 9.9 114.6 3.6 126.6 0.9z"/>
				<path id="&lt;Path&gt;" class="s2" d="m252.8 43.2c0 0-9.9-10.7-51-25.4-17.1-6.1-25.5-5.5-44.3-4.7-49 12.1-22.7 14.4 7.9 25.2 31.6 11.2 94.9 3.4 87.4 4.9z"/>
				<path id="&lt;Path&gt;" class="s3" d="m200.9 15.6c-15.8-4.6-27.9-5-43.4-2.5 2.1 8.5 5.1 16.9 7.9 25.2q0.7 0.3 1.3 0.5c35 11.6 93.8 4.3 92.6 4.4 0 0-14.6-14.9-58.4-27.6z"/>
				<path id="&lt;Compound Path&gt;" fill-rule="evenodd" class="s4" d="m165 37.1q-1.1-3.1-2.1-6.2 9.5-9.5 18.9-19 3.7 0.4 7.4 1zm23 6.3c-5.7-0.8-11.2-1.8-16.4-3.2l25.6-25.6c1.2 0.3 2.4 0.6 3.7 1q6 1.8 11.4 3.6zm14.3 1.4q-2.8-0.2-5.6-0.4l22.7-22.7c1.5 0.5 2.9 1.1 4.3 1.6zm37.8-14.1c13.8 7.1 19.2 12.5 19.2 12.5 0.6 0-14.4 1.8-33.8 2.1zm-24.4 14.6q-2 0-4.1 0 9.5-9.5 19-19 1.5 0.6 2.9 1.2z"/>
				<path id="&lt;Path&gt;" class="s3" d="m285.5 41.6c10-0.6 17.5-1.7 20.3-2.3-6.9-1.5-14.1-3.7-19-6.4-6.9-3.9-54.3-24.2-87.9-29.4 46.7 14.7 86.6 38.1 86.6 38.1z"/>
				<path id="&lt;Path&gt;" class="s5" d="m326.3 66.4c-7.9 6.9-20.3 12.3-27.8 12l-144.7-5c-7.5-0.3 139.1 1.4 149.6-1.9 4.3-1.4 10.6-4.6 16.8-12 4.5-5.4-145.5-11.4-138-11.1 0 0 100.9-0.7 144.7 5 7.4 1 7.2 6.1-0.6 13z"/>
				<g id="&lt;Group&gt;">
					<path id="&lt;Path&gt;" class="s1" d="m316.9 57.6q-0.9-0.1-1.9-0.2c2.1 1.3 1.1 4-3 7.4-3.7 3.1-14.4 6.5-18.9 7.7 1.7 0.2 8.9-0.2 11.5-0.8 4.3-1.2 8.1-2.9 11.7-5.9 5.3-4.4 5.5-7.6 0.6-8.2z"/>
				</g>
				<path id="&lt;Path&gt;" class="s5" d="m27.7 63.1l-15.6-3 11.7 3.9c2.9 1 6.1 5.5 7.2 10.2l2.5 10.8c1.1 4.7-0.7 8.9-3.5 8.5l-17-3.7 19.5 6c9.5 1.9 9.6-2.6 8.3-8.1l-3-12.8c-1.3-5.5-5.8-10.8-10.1-11.8z"/>
				<path id="&lt;Path&gt;" class="s1" d="m24 62.9l-11.9-2.8 8 3.7c2.9 1 6.1 5.6 7.2 10.2l2.5 10.9c1.1 4.6-0.2 8.1-2.9 7.7l-14.3-2.9 19 5.9c4.3 1.1 6.7-2.6 5.4-8.1l-2.9-12.8c-1.3-5.5-5.9-10.8-10.1-11.8z"/>
				<path id="&lt;Path&gt;" class="s1" d="m5.1 52.7l9.5 1.3c5.5 0.8 13.2-3.5 17-9.6 3.8-6.1 2.4-11.6-3.2-12.4l-9.4-1.3q0.1 0.1 0.1 0.1c0 0-11.7 10.9-14 21.9z"/>
				<path id="&lt;Path&gt;" class="s6" d="m24.3 32.1l-5.8-0.8c-2.3 2.2-11.1 11-13 19.9l5.7 0.7c5.6 0.7 13.1-3.1 16.7-8.6 3.6-5.5 2-10.5-3.6-11.2z"/>
				<path id="&lt;Path&gt;" class="s0" d="m26.7 40.3c0-4.1-3.7-7.3-8.8-8.3-0.7 0.6-1.6 1.5-2.6 2.6 4.1 0.5 7.2 2.8 7.2 5.9 0 3.6-4.2 6.7-9.3 7-2.3 0.1-4.3-0.4-6-1.2q-0.7 1.5-1.2 3.1c2.1 0.8 4.6 1.2 7.2 1 7.4-0.4 13.5-5 13.5-10.1z"/>
				<g id="&lt;Group&gt;">
					<path id="&lt;Path&gt;" class="s3" d="m56.7 26c-1.8 0.2-2.7 0.3-2.5 0.3q0.9 0 2.5-0.3z"/>
				</g>
				<path id="&lt;Path&gt;" class="s1" d="m465.6 111.9c-0.9-3.8-2.4-8-3.9-14.3-0.2-0.8-2.5-3.7-6.1-7.6h-12.5c-4.1 0-5.9 3.3-4.1 7.4l3.1 7c1.8 4.1 6.6 7.5 10.7 7.5z"/>
				<g id="&lt;Group&gt;" style="opacity: .5">
					<path id="&lt;Path&gt;" class="s7" d="m286.8 32.9c-8.2-4.6-78.4-33.7-109.8-31.7-54.7 3.4-106 22.3-120.3 24.8 3.2-0.3 9.2-0.8 17.2-1 23.9-4.7 85.1-21.7 114.8-20 18.9 1.2 85 34.5 91.6 37 12.5-0.9 22.1-2 25.5-2.7-6.9-1.5-14.1-3.7-19-6.4z"/>
				</g>
				<g id="&lt;Group&gt;">
					<g id="&lt;Group&gt;" style="opacity: .5">
						<path id="&lt;Path&gt;" class="s7" d="m455.6 90c6.2 0-32.1-26.9-42.2-31.8-25-12.1-37.8-16.1-93.2-19.1-13.2-0.7-14.4 0.2-14.4 0.2-12 2.7-109.1 13.2-137 3.3-49.1-17.5-98.1-17.9-111.7-16.6q-1.9 0.3-2.9 0.3c-6.3 0-38.2-7.2-34.7 4.5l-0.5-0.1q0.1 0.1 0.1 0.1c0 0-12.1 10.9-14 21.9h0.4c-0.2 1.3-0.4 2.5-0.4 3.7 0 3.3 1.2 17.4-0.8 20.7-2.1 3.3-6.4 6.4-3.3 13.1q0 0 0 0.1c0 0 0.1 0.1 0 0.1-0.2 0.9 6.6 8.2 13 9.3-14.3-8.2-6.8-13.1-6.5-34 0.2-12.1 14.4-25.6 14.4-25.6-3.6-11.7 28.2-4.5 34.4-4.5q1 0 2.9-0.4c13.5-1.2 55.5-8 104.3 9.4 27.6 9.9 130.8 6.6 142.7 3.9 0 0 1.2-0.8 14.3-0.1 55 3 67.7 7 92.6 19.1 6.1 3 22.7 14.2 33.3 22.5z"/>
					</g>
				</g>
			</g>
			<path id="&lt;Path&gt;" class="s2" d="m261 38c0 4.2-8.2 7.6-12.3 7.6-4.2 0-7.6-3.4-7.6-7.6 0-4.2 3.4-7.6 7.6-7.6 4.1 0 12.3 3.4 12.3 7.6z"/>
			<g id="&lt;Group&gt;" style="opacity: .5">
				<path id="&lt;Path&gt;" class="s7" d="m242.9 35c1.1 1.8 3.1 3 5.4 3 2.6 0 7-1.6 9.2-3.8-2.3-1.9-6.2-3.2-8.6-3.2-2.7 0-5 1.6-6 4z"/>
			</g>
		</g>
		<g id="&lt;Group&gt;">
			<path id="&lt;Path&gt;" fill-rule="evenodd" class="s8" d="m94.9 144c-21.4 0-38.8-17.4-38.8-38.9 0-21.4 17.4-38.8 38.8-38.8 21.5 0 38.9 17.4 38.9 38.8 0 21.5-17.4 38.9-38.9 38.9z"/>
			<path id="&lt;Path&gt;" class="s0" d="m111.8 116.3c-8.1 8.1-7-6-15-14.1-8.1-8.1-22.2-7-14.2-15 8.1-8.1 21.1-8.1 29.2 0 8 8 8 21.1 0 29.1z"/>
			<path id="&lt;Compound Path&gt;" fill-rule="evenodd" class="s9" d="m94.9 135.1c-16.5 0-29.9-13.4-29.9-30 0-16.5 13.4-29.9 29.9-29.9 16.6 0 30 13.4 30 29.9 0 16.6-13.4 30-30 30zm24.5-20.9l-3.8-0.6 3.2 2.3q0.3-0.8 0.6-1.7zm1.2-4.2q0.5-2.3 0.5-4.9 0-2.4-0.5-4.7l-12.7 2-3.9 2.8 3.9 2.8zm-49.3 6.2l3.6-2.6-4.4 0.7q0.3 1 0.8 1.9zm11.3-8.2l3.9-2.8-3.9-2.8-13.3-2.2q-0.5 2.4-0.5 4.9 0 2.6 0.5 5zm-12.2-11.9l4.4 0.7-3.6-2.7q-0.5 1-0.8 2zm48.3-1.6l-3.2 2.3 3.9-0.6q-0.3-0.9-0.7-1.7zm-8.9-10.8l-7.7 10.6-0.7 4.7 4.7-0.7 10.5-7.7c-1.8-2.7-4.1-5-6.8-6.9zm-3.8-2.2q-0.9-0.4-1.7-0.7l-0.7 4zm-11.1-2.5q-2.4 0-4.6 0.4l2.1 13.2 2.8 3.9 2.8-3.9 2.1-13.1q-2.6-0.5-5.2-0.5zm-8.8 1.6q-1 0.3-1.9 0.7l2.5 3.6zm-12.7 9.7l11 8 4.7 0.7-0.8-4.7-7.9-10.9c-2.7 1.8-5.1 4.2-7 6.9zm7.1 36.6l7.8-10.8 0.8-4.7-4.7 0.7-10.9 7.9c1.9 2.7 4.2 5.1 7 6.9zm3.8 2.1q0.9 0.4 1.9 0.7l0.6-4.1zm10.6 2.2q2.7 0 5.2-0.5l-2-13-2.8-3.8-2.8 3.8-2.1 13.1q2.2 0.4 4.5 0.4zm9.4-1.7q0.9-0.4 1.7-0.8l-2.3-3.2zm12.3-9.8l-10.5-7.6-4.7-0.7 0.8 4.7 7.6 10.5c2.7-1.9 5-4.2 6.8-6.9z"/>
			<path id="&lt;Compound Path&gt;" class="s10" d="m100.7 118.2l4.4 6.1-3.3 1.4zm-15.2 6.2l4.5-6.2-1.2 7.5zm9.8-14.6l-4.3 6 1.2-7.3-7.4 1.1 6-4.3-6-4.4 7.4 1.2-1.2-7.4 4.3 6.1 4.4-6.1-1.2 7.4 7.4-1.2-6 4.4 6 4.3-7.4-1.1 1.2 7.3zm13 0.9l7.5 1.2-1.3 3.2zm-33.5 1.2l7.5-1.2-6.2 4.5zm0-13.2l1.4-3.2 6.1 4.4zm39.7-3.2l1.3 3.2-7.5 1.2zm-12.5-10.6l3.2 1.3-4.4 6.2zm-16.5 1.4l3.3-1.4 1.2 7.5z"/>
			<path id="&lt;Path&gt;" class="s11" d="m94.9 71.8c20 0 36.2 15.7 37.3 35.4 0-0.7 0.1-1.4 0.1-2.1 0-20.6-16.7-37.3-37.4-37.3-20.6 0-37.3 16.7-37.3 37.3 0 0.7 0.1 1.4 0.1 2.1 1.1-19.7 17.3-35.4 37.2-35.4z"/>
			<path id="&lt;Path&gt;" class="s11" d="m94.9 135.3c-16.1 0-29.2-12.7-30.1-28.6 0 0.5-0.1 1.1-0.1 1.6 0 16.7 13.6 30.2 30.2 30.2 16.7 0 30.3-13.5 30.3-30.2 0-0.5-0.1-1.1-0.1-1.6-0.9 15.9-14 28.6-30.2 28.6z"/>
		</g>
		<g id="&lt;Group&gt;">
			<path id="&lt;Path&gt;" fill-rule="evenodd" class="s8" d="m367.1 144c-21.4 0-38.8-17.4-38.8-38.9 0-21.4 17.4-38.8 38.8-38.8 21.5 0 38.8 17.4 38.8 38.8 0 21.5-17.3 38.9-38.8 38.9z"/>
			<path id="&lt;Path&gt;" class="s0" d="m384 116.3c-8.1 8.1-7-6-15.1-14.1-8-8.1-22.2-7-14.1-15 8-8.1 21.1-8.1 29.2 0 8 8 8 21.1 0 29.1z"/>
			<path id="&lt;Compound Path&gt;" fill-rule="evenodd" class="s9" d="m367.1 135.1c-16.6 0-30-13.4-30-30 0-16.5 13.4-29.9 30-29.9 16.6 0 30 13.4 30 29.9 0 16.6-13.4 30-30 30zm24.5-20.9l-3.8-0.6 3.1 2.3q0.4-0.8 0.7-1.7zm1.2-4.2q0.4-2.3 0.4-4.9 0-2.4-0.4-4.7l-12.8 2-3.8 2.8 3.8 2.8zm-49.3 6.2l3.7-2.6-4.5 0.7q0.4 1 0.8 1.9zm11.4-8.2l3.9-2.8-3.9-2.8-13.4-2.2q-0.4 2.4-0.5 4.9 0.1 2.6 0.5 5zm-12.2-11.9l4.5 0.7-3.7-2.7q-0.4 1-0.8 2zm48.4-1.6l-3.2 2.3 3.8-0.6q-0.3-0.9-0.6-1.7zm-9-10.8l-7.6 10.6-0.8 4.7 4.7-0.7 10.6-7.7c-1.9-2.7-4.2-5-6.9-6.9zm-3.7-2.2q-0.9-0.4-1.8-0.7l-0.6 4zm-11.2-2.5q-2.3 0-4.6 0.4l2.1 13.2 2.8 3.9 2.9-3.9 2-13.1q-2.5-0.5-5.2-0.5zm-8.8 1.6q-0.9 0.3-1.9 0.7l2.6 3.6zm-12.7 9.7l10.9 8 4.8 0.7-0.8-4.7-7.9-10.9c-2.8 1.8-5.1 4.2-7 6.9zm7.1 36.6l7.8-10.8 0.8-4.7-4.8 0.7-10.9 7.9c1.9 2.7 4.3 5.1 7.1 6.9zm3.8 2.1q0.9 0.4 1.8 0.7l0.7-4.1zm10.6 2.2q2.7 0 5.2-0.5l-2.1-13-2.8-3.8-2.8 3.8-2.1 13.1q2.3 0.4 4.6 0.4zm9.4-1.7q0.9-0.4 1.7-0.8l-2.3-3.2zm12.3-9.8l-10.5-7.6-4.7-0.7 0.7 4.7 7.7 10.5c2.6-1.9 5-4.2 6.8-6.9z"/>
			<path id="&lt;Compound Path&gt;" class="s10" d="m372.8 118.2l4.5 6.1-3.3 1.4zm-15.2 6.2l4.5-6.2-1.2 7.5zm9.8-14.6l-4.3 6 1.1-7.3-7.3 1.1 6-4.3-6-4.4 7.3 1.2-1.1-7.4 4.3 6.1 4.4-6.1-1.2 7.4 7.3-1.2-6 4.4 6 4.3-7.3-1.1 1.2 7.3zm13 0.9l7.5 1.2-1.4 3.2zm-33.5 1.2l7.6-1.2-6.2 4.5zm0-13.2l1.3-3.2 6.2 4.4zm39.7-3.2l1.3 3.2-7.5 1.2zm-12.6-10.6l3.3 1.3-4.5 6.2zm-16.4 1.4l3.3-1.4 1.2 7.5z"/>
			<path id="&lt;Path&gt;" class="s11" d="m367.1 71.8c20 0 36.2 15.7 37.2 35.4 0.1-0.7 0.1-1.4 0.1-2.1 0-20.6-16.7-37.3-37.3-37.3-20.6 0-37.3 16.7-37.3 37.3 0 0.7 0.1 1.4 0.1 2.1 1-19.7 17.3-35.4 37.2-35.4z"/>
			<path id="&lt;Path&gt;" class="s11" d="m367.1 135.3c-16.1 0-29.3-12.7-30.1-28.6 0 0.5-0.1 1.1-0.1 1.6 0 16.7 13.5 30.2 30.2 30.2 16.7 0 30.2-13.5 30.2-30.2 0-0.5 0-1.1-0.1-1.6-0.8 15.9-14 28.6-30.1 28.6z"/>
		</g>
		<g id="&lt;Group&gt;" style="opacity: .5">
			<path id="&lt;Path&gt;" class="s7" d="m149.2 90c-6.5-15.1-23.2-43.5-74-37.3 40.2-8.1 64.2 6 79.2 33.4 9.1 16.6 96.5 17.9 169.9 28.3-37.5 0.8-167.4-6.7-175.1-24.4z"/>
		</g>
		<path id="&lt;Path&gt;" class="s1" d="m319.5 114.1c0.2 0 0.4-0.1 0.5-0.1-34.9-2-74.8-3.7-107.8-6.7 32.3 3.2 72 4.8 107.3 6.8z"/>
		<g id="&lt;Group&gt;" style="opacity: .5">
			<path id="&lt;Path&gt;" class="s7" d="m46.6 108.7c-3.3-30.2 22.6-52.9 45.9-52.9 1.8 0 3.5 0 5.2 0.2-3-0.4-6.1-0.6-9.5-0.6-23.3 0-49.2 22.7-45.9 52.8q2.1 0.3 4.3 0.5z"/>
		</g>
		<g id="&lt;Group&gt;" style="opacity: .5">
			<path id="&lt;Path&gt;" class="s7" d="m366.8 64.7c23.2 0 42.1 18.5 42.8 41.5q0.1-1.2 0.1-2.4c0-23.7-19.2-43-42.9-43-23.8 0-43 19.3-43 43 0 0.6 0.1 1.2 0.1 1.9 1-22.8 19.8-41 42.9-41z"/>
		</g>
	</g>
</svg>