<svg version="1.2" xmlns="http://www.w3.org/2000/svg" viewBox="0 0 478 214" width="478" height="214">
	<title>-e-10</title>
	<style>
		.s0 { fill: #2d2d2d } 
		.s1 { fill: #80c2dc } 
		.s2 { fill: #383838 } 
		.s3 { fill: #111111 } 
		.s4 { fill: #e3e5e5 } 
		.s5 { opacity: .7;fill: #ffffff } 
		.s6 { fill: #cecece } 
		.s7 { fill: #bfbfbf } 
		.s8 { fill: #d4d6d6 } 
		.s9 { fill: #ffffff } 
		.s10 { fill: #242424 } 
		.s11 { fill: #b2b2b2 } 
		.s12 { fill: #939393 } 
		.s13 { fill: #7f374d } 
		.s14 { fill: #70221e } 
		.s15 { fill: #e37333 } 
		.s16 { fill: #200000 } 
	</style>
	<g id="-e-10">
		<g id="&lt;Group&gt;">
			<path id="&lt;Path&gt;" class="s0" d="m269.2 76.3l97.1-0.2c-13.5-15.2-42.9-48.5-57-65.2-4.9-0.9-13.6-2.2-56.2-3.1z"/>
			<path id="&lt;Path&gt;" class="s1" d="m258.6 9.9c39.4 0.9 48.3 2.2 52.5 2.9 13.4 15.9 40 46 53.6 61.4l-91 0.1z"/>
			<g id="&lt;Group&gt;">
				<g id="&lt;Group&gt;">
					<g id="&lt;Group&gt;">
						<path id="&lt;Path&gt;" class="s0" d="m37.7 126.5c0 2-1.7 3.7-3.8 3.7h-28.2c-2.1 0-3.8-1.7-3.8-3.7v-75.3c0-2.1 1.7-3.8 3.8-3.8h28.2c2.1 0 3.8 1.7 3.8 3.8z"/>
						<path id="&lt;Path&gt;" class="s2" d="m32.7 48.1h-25.8c-1.9 0-3.5 1.6-3.5 3.5v12.6c0-1.9 1.6-3.4 3.5-3.4h25.8c1.9 0 3.4 1.5 3.4 3.4v-12.6c0-1.9-1.5-3.5-3.4-3.5z"/>
						<path id="&lt;Path&gt;" class="s3" d="m32.7 128.8h-25.8c-1.9 0-3.5-1.5-3.5-3.4v-12.6c0 1.9 1.6 3.4 3.5 3.4h25.8c1.9 0 3.4-1.5 3.4-3.4v12.6c0 1.9-1.5 3.4-3.4 3.4z"/>
					</g>
					<path id="&lt;Path&gt;" class="s0" d="m323.6 163.9c0 4.7-3.8 8.5-8.5 8.5h-129.9c-4.6 0-8.4-3.8-8.4-8.5 0-4.6 3.8-8.4 8.4-8.4h129.9c4.7 0 8.5 3.8 8.5 8.4z"/>
					<path id="&lt;Path&gt;" class="s4" d="m45.2 162.4h427.8c2.7-2 4.4-5 4.4-9.6 0-11.9 0.7-25.1-4.3-25.7v-20.4c0-15.1-11.3-12.2-11.3-12.2 0 0-0.7-4.4-8.2-11.3-14.4-3.2-97.9-8.8-97.9-8.8 0 0-40.3-52.3-51.9-68.7-4.4-6.9-241.4-3.2-241.4-3.2-7.1 16.5-30.4 75.6-30.4 75.6-4.7 27.9-3 53.4-4.4 53.4-3.1 0 0.6 26.3 0.6 26.3 0 0 7.3 2.4 17 4.6z"/>
					<path id="&lt;Path&gt;" class="s5" d="m458.6 95.7l-423.5-14.1 1.9-8.5 316.2 4.7 98.8 7.6z"/>
					<path id="&lt;Compound Path&gt;" fill-rule="evenodd" class="s6" d="m345.7 81v1.8h-313.1v-1.8zm0 25.1v1.8h-193.8v-1.8zm-1.5-5.7v1.9h-196.1v-1.9z"/>
					<g id="&lt;Group&gt;">
						<g id="&lt;Group&gt;">
							<path id="&lt;Compound Path&gt;" fill-rule="evenodd" class="s7" d="m239.4 152.3v-140.8l4.7 0.1c42.7 0.7 52.4 1.8 58.2 2.7l1.9 0.3 1.1 1.6c10.2 14 32.5 42.8 41.6 54.5l0.2 0.3-1.5 40.6-17.6 40.6zm1.8-139v137.1l85.5-0.2 17.1-39.2 1.4-39.5c-9.2-11.9-31.3-40.3-41.4-54.3l-0.7-0.9-1.1-0.2c-5.7-0.9-15.4-2-57.9-2.7zm-2.8 138.8h-57l-34.7-50.5-2.1-29.2v-0.1c6.2-20.6 12.2-39.7 18.6-58.3l1-3.2h3.4c29.8 0 46.7 0.2 67.6 0.5l3.2 0.1zm-56-1.9h54.1v-136.9l-1.4-0.1c-20.8-0.3-37.7-0.5-67.5-0.5h-2l-0.7 1.9c-6.2 18.6-12.3 37.6-18.4 58.1l2 28.2z"/>
						</g>
					</g>
					<g id="&lt;Group&gt;">
						<path id="&lt;Compound Path&gt;" fill-rule="evenodd" class="s0" d="m244.1 16.3c44.2 0.7 52.6 1.9 57.4 2.6 10.1 14 31.8 41.9 41.7 54.7l-99.1 0.2zm-103.3 57.4l-97-0.1c5.4-13.9 16.4-42.6 22.7-57.8 12.8-0.1 57.3-0.2 92.6-0.2-6.4 19.3-12.5 38.7-18.3 58.1zm94.8-57.6v57.6h-86c5.9-19.4 12-38.8 18.5-58.1 30.9 0 48.1 0.2 67.5 0.5z"/>
					</g>
					<path id="&lt;Compound Path&gt;" class="s1" d="m152.3 71.7c5.8-19 11.4-36.7 17.3-54.1 28 0.1 44.5 0.2 64 0.5v53.6zm-105.6-0.1c5.8-15.1 15.3-39.5 21.1-53.8 13.9-0.1 54.7-0.1 88.5-0.2-5.8 17.4-11.4 35.1-17.1 54.1zm199.3-53.2c41.1 0.7 50.1 1.8 54.4 2.4 9.3 12.9 27.2 36.1 38.7 50.8l-93.1 0.2z"/>
					<g id="&lt;Group&gt;">
						<path id="&lt;Compound Path&gt;" fill-rule="evenodd" class="s0" d="m317.6 167.3l76.4 21.9 76.3-22.3c0 0-16.4-6.3-24.8-5.1l-19.9-34.6c-2.6-4.5-9-8.2-14.2-8.2h-39.9c-2.7 0-5.7 1.1-8.3 2.7q-2.1 1.9-4.4 3.6-0.8 0.9-1.4 1.9l-19.9 34.6c-0.1 0-0.6 0.1-1.6 0.2 0 0.1-18.3 5.2-18.3 5.3zm-140.8-5.4q0 0-0.1 0-0.1 0-0.2 0-0.2 0-0.4 0-0.1 0-0.1-0.1-0.2 0-0.3 0l-19.9-34.6c-2.6-4.5-8.9-8.2-14.1-8.2h-39.9c-5.2 0-11.5 3.7-14.1 8.2l-20 34.6q-0.1 0.1-0.3 0.2-0.2 0.2-0.5 0.4l-34.6 3.6 89.4 24.4 91-30.1c-0.1-0.1-35.9 1.8-35.9 1.6z"/>
					</g>
					<g id="&lt;Group&gt;">
						<path id="&lt;Path&gt;" class="s8" d="m65.2 168.5l18.6-41.3c2.2-4.5 8.2-8.2 13.4-8.2h39.9c5.2 0 11.9 3.7 14.8 8.2l22.9 34.6c1 1.4 161 1.4 161.7 0l17.1-34.6c2.2-4.5 8.2-8.2 13.4-8.2h39.9c5.2 0 11.8 3.7 14.8 8.2l22.9 34.6c0.9 1.4 25.2 5.1 25.2 5.1 4-1.8 6.7-5.1 6.2-10.8q-0.1-1.3-0.2-2.7h-23.7l-21.1-31.8c-5.3-8-15.8-13.8-25-13.8h-39.9c-9.3 0-18.8 5.8-22.8 13.8l-15.7 31.8h-145.3l-21.1-31.8c-5.2-8-15.8-13.8-25-13.8h-39.9c-9.2 0-18.8 5.8-22.8 13.8l-15.7 31.8h-32.2c0.9 4.4 2.8 14.5 2.8 14.5 0 0 7.6 2.7 21.6 5.1 0 0 14.5-3 15.2-4.5z"/>
						<path id="&lt;Path&gt;" class="s9" d="m58.1 156.7l15.7-31.8c4-8 13.5-13.8 22.8-13.8h39.9c9.2 0 19.7 5.8 25 13.8l21.1 31.8h145.3l15.7-31.8c3.9-8 13.5-13.8 22.7-13.8h39.9c9.3 0 19.8 5.8 25.1 13.8l21.1 31.8h23.6c0-0.2 0-0.4 0-0.6q-0.1-1.3-0.2-2.7h-23.7l-21.1-31.8c-5.3-8-15.8-13.8-25-13.8h-39.9c-9.3 0-18.8 5.8-22.8 13.8l-15.7 31.8h-145.3l-21.1-31.8c-5.2-8-15.8-13.8-25-13.8h-39.9c-9.2 0-18.8 5.8-22.8 13.8l-15.7 31.8h-32.2q0.4 1.8 0.7 3.3z"/>
					</g>
					<g id="&lt;Group&gt;">
						<path id="&lt;Path&gt;" fill-rule="evenodd" class="s10" d="m121.7 213.7c-24.3 0-43.9-19.7-43.9-44 0-24.2 19.6-43.9 43.9-43.9 24.3 0 43.9 19.7 43.9 43.9 0 24.3-19.6 44-43.9 44z"/>
						<path id="&lt;Compound Path&gt;" fill-rule="evenodd" class="s4" d="m121.7 201.4c-17.5 0-31.7-14.1-31.7-31.7 0-17.5 14.2-31.6 31.7-31.6 17.5 0 31.7 14.1 31.7 31.6 0 17.6-14.2 31.7-31.7 31.7zm29.2-31.7c0 1.4-0.1 2.7-0.3 4l-9.9-0.4-5.9-3.9 5.9-3.9 9.8-0.4c0.2 1.5 0.4 3.1 0.4 4.6zm-21.9 6.2q0.8 0.5 1.3 1.3l1.5 2.3-2.3-1.5q-0.8-0.5-1.3-1.2-0.1-0.7-0.4-1.3 0.6 0.3 1.2 0.4zm-1.3-12.5q0.3-0.6 0.5-1.3 0.4-0.7 1.2-1.2l2.3-1.5-1.4 2.3q-0.5 0.8-1.3 1.2-0.6 0.2-1.3 0.5zm3.3 9.1q-0.4-0.5-1-0.8 0.7-0.1 1.3-0.3 0.9 0 1.7 0.4l2.4 1.3-2.7-0.1q-0.9-0.1-1.7-0.5zm2-5.5q-0.8 0.4-1.7 0.5-0.6-0.2-1.3-0.3 0.5-0.4 1-0.9 0.8-0.4 1.7-0.4l2.7-0.1zm0.1-4.2l3.1-6.3 8.2-5.2c1.8 2.2 3.3 4.7 4.4 7.4l-8.7 4.6zm1.5-8l-6.3 3.2-0.4-7.1 4.4-8.5c2.7 1.1 5.2 2.5 7.5 4.3zm-7-7.5l-0.4-6.4q2 0.4 4 1.1zm0 43.9l3.8 5.8q-2 0.7-4.2 1.2zm0.2-3.6l0.4-7.1 6.3 3.2 5.5 8.5c-2.3 1.8-4.8 3.3-7.5 4.4zm5.2-11.9l7-0.4 8.9 4.6c-1 2.7-2.5 5.3-4.3 7.5l-8.4-5.4zm10.6-0.6l6.7-0.4q-0.4 2.1-1.1 4.1zm0-11.7l5.5-3.7c0.5 1.3 0.9 2.7 1.2 4.1zm-0.1-13.1l-5.8 2.9 2.9-5.8q1.5 1.3 2.9 2.9zm-17.6-9.6l-0.4 9.6-3.9 5.9-3.9-5.9-0.4-9.5c1.4-0.3 2.9-0.4 4.3-0.4 1.5 0 2.9 0.1 4.3 0.3zm-2 36.9q0.3 0.5 0.8 1 0.4 0.7 0.5 1.7l0.1 2.7-1.3-2.4q-0.4-0.9-0.4-1.7 0.2-0.7 0.3-1.3zm-0.3-17.9q0-0.9 0.4-1.7l1.3-2.4-0.1 2.7q-0.1 0.9-0.5 1.7-0.5 0.4-0.9 1 0-0.7-0.2-1.3zm-5.5 20.6q0-0.9 0.4-1.7 0.5-0.5 0.9-1 0.1 0.6 0.3 1.3 0 0.9-0.5 1.7l-1.2 2.4zm-0.2-24.7l1.3 2.4q0.4 0.9 0.4 1.7-0.2 0.7-0.2 1.4-0.4-0.6-0.9-1.1-0.4-0.7-0.5-1.7zm-25.4 14c0-1.5 0.1-3.1 0.4-4.5l9.7 0.4 5.9 3.9-5.8 3.9-9.9 0.4c-0.2-1.3-0.3-2.7-0.3-4.1zm17.8 2.2q0.9-0.4 1.7-0.5 0.7 0.2 1.4 0.3-0.6 0.4-1.1 0.9-0.7 0.4-1.7 0.4l-2.7 0.1zm0-4.8l-2.4-1.2 2.7 0.1q0.9 0 1.7 0.4 0.4 0.5 1 0.9-0.7 0.1-1.3 0.3-0.9-0.1-1.7-0.5zm2.7 10.2q0.5-0.8 1.3-1.3 0.6-0.1 1.3-0.4-0.3 0.6-0.5 1.2-0.4 0.8-1.2 1.3l-2.3 1.5zm1.2-14.3q-0.8-0.4-1.3-1.2l-1.4-2.3 2.3 1.5q0.7 0.5 1.2 1.2 0.1 0.7 0.5 1.3-0.7-0.3-1.3-0.5zm0.8-4.8l-6.3-3.1-5.2-8.2c2.2-1.8 4.7-3.2 7.5-4.3l4.4 8.6zm-4.8 4.8l-7 0.4-8.7-4.5c1.1-2.7 2.6-5.2 4.4-7.5l8.2 5.2zm-10.7 0.7l-6.6 0.4q0.5-2.1 1.2-4zm0 11.7l-5.6 3.8q-0.7-2-1.1-4.2zm3.6 0.2l7 0.5-3.1 6.3-8.5 5.4c-1.8-2.3-3.2-4.8-4.3-7.5zm5.6 8.3l6.3-3.1 0.4 7-4.7 9c-2.7-1.1-5.2-2.6-7.4-4.4zm6.9 7.5l0.5 7q-2.2-0.5-4.3-1.2zm0-43.9l-3.6-5.4q1.9-0.6 3.9-1zm-13 0.1l2.9 5.8-5.8-2.9q1.3-1.6 2.9-2.9zm-3.2 41l6.1-3.1-3.1 6.2q-1.6-1.4-3-3.1zm17.9 9.9l0.4-10.1 3.9-5.9 3.9 5.9 0.4 10.1c-1.4 0.3-2.8 0.4-4.3 0.4-1.5 0-2.9-0.1-4.3-0.4zm23.4-6.8l-3-6.2 6.1 3.1q-1.4 1.6-3.1 3.1z"/>
						<path id="&lt;Path&gt;" class="s2" d="m121.7 133.9c21.7 0 39.4 16.7 41.1 37.9q0.1-1.6 0.1-3.3c0-22.8-18.4-41.2-41.2-41.2-22.7 0-41.2 18.4-41.2 41.2q0 1.7 0.2 3.3c1.7-21.2 19.4-37.9 41-37.9z"/>
						<path id="&lt;Path&gt;" class="s3" d="m121.7 209.1c-23.5 0-42.7-18.4-43.8-41.6q-0.1 1.1-0.1 2.2c0 24.3 19.7 44 43.9 44 24.3 0 43.9-19.7 43.9-44q0-1.1 0-2.2c-1.2 23.2-20.4 41.6-43.9 41.6z"/>
						<path id="&lt;Path&gt;" class="s3" d="m121.7 138.1c17.2 0 31.2 13.6 31.7 30.7 0-0.3 0-0.6 0-0.9 0-17.5-14.2-31.7-31.7-31.7-17.5 0-31.7 14.2-31.7 31.7 0 0.3 0.1 0.6 0.1 0.9 0.5-17.1 14.4-30.7 31.6-30.7z"/>
						<path id="&lt;Path&gt;" class="s2" d="m121.7 201.5c17.2 0 31.2-13.7 31.7-30.7 0 0.3 0 0.6 0 0.9 0 17.5-14.2 31.7-31.7 31.7-17.5 0-31.7-14.2-31.7-31.7 0-0.3 0.1-0.6 0.1-0.9 0.5 17 14.4 30.7 31.6 30.7z"/>
					</g>
					<g id="&lt;Group&gt;">
						<path id="&lt;Path&gt;" fill-rule="evenodd" class="s10" d="m392.5 213.7c-24.3 0-43.9-19.7-43.9-44 0-24.2 19.6-43.9 43.9-43.9 24.3 0 43.9 19.7 43.9 43.9 0 24.3-19.6 44-43.9 44z"/>
						<path id="&lt;Compound Path&gt;" fill-rule="evenodd" class="s4" d="m392.5 201.4c-17.5 0-31.7-14.1-31.7-31.7 0-17.5 14.2-31.6 31.7-31.6 17.5 0 31.7 14.1 31.7 31.6 0 17.6-14.2 31.7-31.7 31.7zm29.2-31.7c0 1.4-0.1 2.7-0.3 4l-9.9-0.4-5.9-3.9 5.9-3.9 9.8-0.4c0.2 1.5 0.4 3.1 0.4 4.6zm-21.9 6.2q0.8 0.5 1.3 1.3l1.5 2.3-2.4-1.5q-0.7-0.5-1.2-1.2-0.1-0.7-0.4-1.3 0.6 0.3 1.2 0.4zm-1.3-12.5q0.3-0.6 0.5-1.3 0.4-0.7 1.2-1.2l2.3-1.5-1.5 2.3q-0.5 0.8-1.2 1.2-0.6 0.2-1.3 0.5zm3.3 9.1q-0.5-0.5-1-0.8 0.6-0.1 1.3-0.3 0.9 0 1.7 0.4l2.4 1.3-2.7-0.1q-0.9-0.1-1.7-0.5zm2-5.5q-0.8 0.4-1.7 0.5-0.6-0.2-1.3-0.3 0.5-0.4 1-0.9 0.7-0.4 1.7-0.4l2.7-0.1zm0-4.2l3.2-6.3 8.2-5.2c1.8 2.2 3.3 4.7 4.4 7.4l-8.7 4.6zm1.5-8l-6.3 3.2-0.4-7.1 4.4-8.5c2.7 1.1 5.2 2.5 7.5 4.3zm-7-7.5l-0.4-6.4q2 0.4 4 1.1zm0 43.9l3.8 5.8q-2 0.7-4.2 1.2zm0.2-3.6l0.4-7.1 6.3 3.2 5.5 8.5c-2.3 1.8-4.8 3.3-7.5 4.4zm5.2-11.9l7-0.4 8.9 4.6c-1.1 2.7-2.5 5.3-4.3 7.5l-8.5-5.4zm10.7-0.6l6.7-0.4q-0.4 2.1-1.1 4.1zm0-11.7l5.5-3.7c0.5 1.3 0.9 2.7 1.2 4.1zm-0.1-13.1l-5.8 2.9 2.9-5.8q1.5 1.3 2.9 2.9zm-17.6-9.6l-0.4 9.6-3.9 5.9-3.9-5.9-0.4-9.5c1.4-0.3 2.8-0.4 4.3-0.4 1.5 0 2.9 0.1 4.3 0.3zm-2.1 36.9q0.4 0.5 0.9 1 0.4 0.7 0.5 1.7l0.1 2.7-1.3-2.4q-0.4-0.9-0.4-1.7 0.2-0.7 0.2-1.3zm-0.2-17.9q0-0.9 0.4-1.7l1.3-2.4-0.2 2.7q0 0.9-0.4 1.7-0.5 0.4-0.9 1 0-0.7-0.2-1.3zm-5.5 20.6q0-0.9 0.4-1.7 0.5-0.5 0.9-1 0.1 0.6 0.3 1.3-0.1 0.9-0.5 1.7l-1.2 2.4zm-0.2-24.7l1.3 2.4q0.4 0.9 0.4 1.7-0.2 0.7-0.2 1.4-0.4-0.6-0.9-1.1-0.4-0.7-0.5-1.7zm-25.4 14c0-1.5 0.1-3.1 0.3-4.5l9.8 0.4 5.9 3.9-5.8 3.9-9.9 0.4c-0.2-1.3-0.3-2.7-0.3-4.1zm17.8 2.2q0.8-0.4 1.7-0.5 0.7 0.2 1.3 0.3-0.5 0.4-1 0.9-0.7 0.4-1.7 0.4l-2.7 0.1zm0-4.8l-2.4-1.2 2.7 0.1q0.9 0 1.7 0.4 0.4 0.5 1 0.9-0.7 0.1-1.3 0.3-0.9-0.1-1.7-0.5zm2.7 10.2q0.5-0.8 1.3-1.3 0.6-0.1 1.2-0.4-0.3 0.6-0.4 1.2-0.5 0.8-1.2 1.3l-2.3 1.5zm1.2-14.3q-0.8-0.4-1.3-1.2l-1.4-2.3 2.3 1.5q0.7 0.5 1.2 1.2 0.1 0.7 0.4 1.3-0.6-0.3-1.2-0.5zm0.7-4.8l-6.3-3.1-5.1-8.2c2.2-1.8 4.7-3.2 7.4-4.3l4.5 8.6zm-4.8 4.8l-7 0.4-8.7-4.5c1.1-2.7 2.6-5.2 4.4-7.5l8.2 5.2zm-10.7 0.7l-6.6 0.4q0.4-2.1 1.2-4zm0 11.7l-5.7 3.8q-0.6-2-1-4.2zm3.6 0.2l7 0.5-3.1 6.3-8.5 5.4c-1.8-2.3-3.2-4.8-4.3-7.5zm5.6 8.3l6.3-3.1 0.4 7-4.7 9c-2.7-1.1-5.2-2.6-7.4-4.4zm6.9 7.5l0.5 7q-2.2-0.5-4.3-1.2zm-0.1-43.9l-3.5-5.4q1.9-0.6 3.9-1zm-13 0.1l2.9 5.8-5.8-2.9q1.3-1.6 2.9-2.9zm-3.3 41l6.2-3.1-3.1 6.2q-1.6-1.4-3.1-3.1zm17.9 9.9l0.5-10.1 3.9-5.9 3.9 5.9 0.4 10.1c-1.4 0.3-2.9 0.4-4.3 0.4-1.5 0-2.9-0.1-4.4-0.4zm23.5-6.8l-3.1-6.2 6.2 3.1q-1.4 1.6-3.1 3.1z"/>
						<path id="&lt;Path&gt;" class="s2" d="m392.5 133.9c21.6 0 39.4 16.7 41.1 37.9q0.1-1.6 0.1-3.3c0-22.8-18.4-41.2-41.2-41.2-22.7 0-41.2 18.4-41.2 41.2q0 1.7 0.2 3.3c1.7-21.2 19.4-37.9 41-37.9z"/>
						<path id="&lt;Path&gt;" class="s3" d="m392.5 209.1c-23.5 0-42.7-18.4-43.8-41.6q-0.1 1.1-0.1 2.2c0 24.3 19.7 44 43.9 44 24.3 0 43.9-19.7 43.9-44q0-1.1 0-2.2c-1.2 23.2-20.4 41.6-43.9 41.6z"/>
						<path id="&lt;Path&gt;" class="s3" d="m392.5 138.1c17.2 0 31.1 13.6 31.6 30.7 0.1-0.3 0.1-0.6 0.1-0.9 0-17.5-14.2-31.7-31.7-31.7-17.5 0-31.7 14.2-31.7 31.7 0 0.3 0.1 0.6 0.1 0.9 0.5-17.1 14.4-30.7 31.6-30.7z"/>
						<path id="&lt;Path&gt;" class="s2" d="m392.5 201.5c17.2 0 31.1-13.7 31.6-30.7 0.1 0.3 0.1 0.6 0.1 0.9 0 17.5-14.2 31.7-31.7 31.7-17.5 0-31.7-14.2-31.7-31.7 0-0.3 0.1-0.6 0.1-0.9 0.5 17 14.4 30.7 31.6 30.7z"/>
					</g>
					<g id="&lt;Group&gt;">
						<path id="&lt;Path&gt;" class="s11" d="m342.6 165c0 1.9-1.6 3.5-3.5 3.5h-163.1c-1.9 0-3.5-1.6-3.5-3.5 0-1.9 1.6-3.4 3.5-3.4h163.1c1.9 0 3.5 1.5 3.5 3.4z"/>
						<path id="&lt;Path&gt;" class="s9" d="m342.5 164.3c-0.4-1.6-1.8-2.7-3.4-2.7h-163.1c-1.6 0-3 1.1-3.4 2.7z"/>
						<path id="&lt;Path&gt;" class="s12" d="m173.2 167c0.6 0.9 1.6 1.5 2.8 1.5h163.1c1.2 0 2.2-0.6 2.8-1.5z"/>
					</g>
					<path id="&lt;Compound Path&gt;" fill-rule="evenodd" class="s7" d="m172.9 84.2v5c0 0.7-0.5 1.2-1.2 1.2h-20.6c-0.7 0-1.3-0.5-1.3-1.2v-5h0.1c0-0.7 0.5-1.2 1.2-1.2h20.6c0.6 0 1.2 0.5 1.2 1.2q0 0 0 0zm-22.5 0v2.6c0 0.4 0.3 0.8 0.7 0.8h20.6c0.4 0 0.7-0.4 0.7-0.8v-2.6c0-0.4-0.3-0.7-0.7-0.7h-20.6c-0.4 0-0.7 0.3-0.7 0.7zm22 5v-1.4c-0.2 0.2-0.5 0.3-0.7 0.3h-20.6c-0.3 0-0.5-0.1-0.7-0.3v1.4c0 0.4 0.3 0.7 0.7 0.7h20.6c0.4 0 0.7-0.3 0.7-0.7z"/>
					<path id="&lt;Compound Path&gt;" fill-rule="evenodd" class="s7" d="m267 84.2v5c0 0.7-0.6 1.2-1.3 1.2h-20.5c-0.7 0-1.3-0.5-1.3-1.2v-5c0-0.7 0.6-1.2 1.3-1.2h20.5c0.7 0 1.2 0.5 1.3 1.2q0 0 0 0zm-22.6 0v2.6c0 0.4 0.4 0.8 0.8 0.8h20.5c0.4 0 0.8-0.4 0.8-0.8v-2.6c0-0.4-0.4-0.7-0.8-0.7h-20.5c-0.4 0-0.8 0.3-0.8 0.7zm22.1 5v-1.4c-0.2 0.2-0.5 0.3-0.8 0.3h-20.5c-0.3 0-0.6-0.1-0.8-0.3v1.4c0 0.4 0.4 0.7 0.8 0.7h20.5c0.4 0 0.8-0.3 0.8-0.7z"/>
					<path id="&lt;Path&gt;" class="s5" d="m440.4 130.2c0 0 24.5 0 30.8 0 6.2 0 3.7 13.9 3.7 13.9l-28.2-0.7z"/>
					<path id="&lt;Path&gt;" class="s13" d="m43.5 149.2v-17.3h-16.5c-1.1 2.1-0.5 10.6 0.2 17.3z"/>
					<path id="&lt;Path&gt;" class="s14" d="m43.5 136v-9.1h-16.5c-0.7 1.3-0.7 4.9-0.5 9.1z"/>
					<path id="&lt;Path&gt;" class="s15" d="m450.5 94.6v-1.4c0-2.1-1.7-3.8-3.8-3.8h-13.8c-2.1 0-3.8 1.7-3.8 3.8v1.4z"/>
					<g id="&lt;Group&gt;">
						<path id="&lt;Path&gt;" class="s16" d="m346.4 71.5c-0.6 9.8-8 7.3-11.5 7.1-3.5-0.1-4.5-3.3-4.1-7.5 0.6-5.9 2.8-7.8 6.3-7.6 3.6 0.1 9.9-0.4 9.3 8z"/>
						<path id="&lt;Path&gt;" class="s0" d="m331.5 67.8c0.8 1.8 2.3 3.1 4.2 3.2 2.2 0.1 12 2.3 8.4-5.2-1.7-2-4.8-1.7-6.9-1.8-2.3-0.1-4.5 1.5-5.7 3.8z"/>
					</g>
				</g>
				<path id="&lt;Path&gt;" class="s5" d="m381.7 96l86.3 2.6 1.7 12.7z"/>
			</g>
		</g>
		<path id="&lt;Compound Path&gt;" fill-rule="evenodd" class="s5" d="m259.5 18.6c-4.1-0.1-8.5-0.2-13.4-0.3v13.7q6.7-6.7 13.4-13.4zm24.7 0.8l-38.1 38.2v14.1h26.7l37.6-37.5c-3.8-5.1-7.3-9.7-10-13.4-2.4-0.4-6.2-0.9-16.2-1.4zm14.2 52.3l19.5-0.1 11.9-12c-2.7-3.5-5.5-7.2-8.4-10.9zm-244.5-18.5c-2 5-3.8 9.8-5.5 14.1l49.6-49.6q-4.6 0-8.7 0.1zm69.7-35.5l-54 53.9 42.8 0.1 39-38.9q2.4-7.7 4.9-15.1c-10.5 0-21.8 0-32.7 0zm68.4 0l-33.3 33.3c-2.1 6.8-4.2 13.7-6.4 20.8h54q13.7-13.7 27.3-27.3v-26.4c-13.7-0.2-25.9-0.3-41.6-0.4z"/>
	</g>
</svg>