<svg version="1.2" xmlns="http://www.w3.org/2000/svg" viewBox="0 0 492 210" width="492" height="210">
	<title>-e-11</title>
	<style>
		.s0 { fill: #b2b2b2 } 
		.s1 { fill: #f2f2f2 } 
		.s2 { fill: #939393 } 
		.s3 { fill: #ffffff } 
		.s4 { fill: #2d2d2d } 
		.s5 { fill: #d60606 } 
		.s6 { opacity: .7;fill: #ffffff } 
		.s7 { fill: #bf0c0c } 
		.s8 { fill: #80c2dc } 
		.s9 { fill: #d4d6d6 } 
		.s10 { fill: #242424 } 
		.s11 { fill: #e3e5e5 } 
		.s12 { fill: #383838 } 
		.s13 { fill: #111111 } 
		.s14 { fill: #7f374d } 
		.s15 { fill: #70221e } 
		.s16 { fill: #e37333 } 
		.s17 { fill: #f9f9f9 } 
		.s18 { fill: #200000 } 
	</style>
	<g id="-e-11">
		<g id="&lt;Group&gt;">
			<path id="&lt;Path&gt;" class="s0" d="m223.1 94.6v-90c0-1.9-1.5-3.4-3.4-3.4-1.9 0-3.5 1.5-3.5 3.4v93.7q3.4-2 6.9-3.7z"/>
			<path id="&lt;Path&gt;" class="s1" d="m218.9 96.8v-95.5c-1.5 0.3-2.7 1.7-2.7 3.3v93.7q1.3-0.8 2.7-1.5z"/>
			<path id="&lt;Path&gt;" class="s2" d="m223.1 94.6v-90c0-1.1-0.6-2.2-1.5-2.8v93.6q0.8-0.4 1.5-0.8z"/>
		</g>
		<g id="&lt;Group&gt;">
			<path id="&lt;Path&gt;" class="s0" d="m223.5 70.6c0 1.9-1.5 3.4-3.4 3.4h-204c-1.9 0-3.5-1.5-3.5-3.4 0-1.9 1.6-3.5 3.5-3.5h204c1.9 0 3.4 1.6 3.4 3.5z"/>
			<path id="&lt;Path&gt;" class="s3" d="m223.4 69.8c-0.3-1.5-1.7-2.7-3.3-2.7h-204c-1.6 0-3 1.2-3.4 2.7z"/>
			<path id="&lt;Path&gt;" class="s2" d="m13.3 72.5c0.6 0.9 1.6 1.5 2.8 1.5h204c1.2 0 2.2-0.6 2.8-1.5z"/>
		</g>
		<g id="&lt;Group&gt;">
			<g id="&lt;Group&gt;">
				<path id="&lt;Path&gt;" class="s4" d="m336 159.9c0 4.7-3.8 8.5-8.5 8.5h-148.7c-4.7 0-8.5-3.8-8.5-8.5 0-4.7 3.8-8.5 8.5-8.5h148.7c4.7 0 8.5 3.8 8.5 8.5z"/>
				<path id="&lt;Path&gt;" class="s5" d="m22.4 159.1h465c2.7-2 4.5-5 4.5-9.6 0-11.9 0.6-25.1-4.4-25.7v-20.4c0-15-11.3-12.2-11.3-12.2 0 0-0.6-4.4-8.2-11.3-14.4-3.1-97.8-8.8-97.8-8.8 0 0-38.5-46.7-50.1-63.1-4.4-6.9-96.7-5.4-96.7-5.4-1.1 2.6-1 68.7-1 68.7-18.2 0-213.2 3.6-213.2 3.6-4.7 27.9-3 53.3-4.4 53.3-3.1 0 0.6 26.4 0.6 26.4 0 0 7.3 2.3 17 4.5z"/>
				<path id="&lt;Path&gt;" class="s6" d="m447.4 91.7l-439.1-7.3 1.9-8.5 331.8-2.1 122.4 7.5z"/>
				<g id="&lt;Group&gt;">
					<path id="&lt;Compound Path&gt;" fill-rule="evenodd" class="s7" d="m359.5 67l-1.5 40.6-17.6 40.6-112.3 0.1v-140.8h4.8c42.6 0.8 76 1.8 81.8 2.8l1.9 0.3 1.2 1.6c10.1 14 32.4 42.8 41.5 54.5zm-1.9 0.6c-9.2-11.9-31.3-40.3-41.4-54.3l-0.7-0.9-1.1-0.2c-5.7-1-39-2-81.5-2.7l-2.9-0.1v137.1l109.1-0.2 17.1-39.3z"/>
				</g>
				<g id="&lt;Group&gt;">
					<path id="&lt;Compound Path&gt;" class="s4" d="m232.8 12.3c44.2 0.7 76.4 1.9 81.1 2.6 10.2 14 31.8 41.9 41.7 54.7l-122.8 0.1z"/>
				</g>
				<path id="&lt;Path&gt;" class="s8" d="m234.8 14.3c44 0.8 71.8 1.8 78 2.5 9.3 12.8 27.2 36 38.7 50.8l-116.7 0.1z"/>
				<g id="&lt;Group&gt;">
					<path id="&lt;Compound Path&gt;" fill-rule="evenodd" class="s4" d="m330 163.3l76.4 21.9 76.3-22.3c0 0-16.4-6.3-24.8-5.2l-19.9-34.5c-2.6-4.5-8.9-8.2-14.1-8.2l-39.4-3.9c-2.7 0-8.4-1.6-11.1 0-1.3 1.2-8.5 2.8-10 4-0.5 0.6-4.7 4.9-5.1 5.5l-10.7 36.8c0 0.1-0.6 1-1.6 1.1 0 0.1-16 4.6-16 4.8zm-159.6-5.4q-0.1 0-0.1 0-0.1 0-0.2 0-0.3 0-0.4-0.1-0.1 0-0.2 0-0.2 0-0.2-0.1l-19.9-34.5c-2.6-4.5-9-8.2-14.2-8.2l-44.1-3.9c-5.2 0-16 7.6-18.6 12.1l-19.2 31.6c0 0.1 7.8 3.1 7.7 3.2q-0.2 0.2-0.5 0.4l-53 3.6 107.8 24.4 109.8-30.1c0-0.1-54.7 1.8-54.7 1.6z"/>
				</g>
				<g id="&lt;Group&gt;">
					<path id="&lt;Path&gt;" class="s9" d="m57.1 163.8l20.3-40.6c2.2-4.5 8.2-8.2 13.4-8.2h39.9c5.2 0 11.8 3.7 14.8 8.2l22.9 34.5c0.9 1.5 179.8 1.5 180.5 0l17.1-34.5c2.2-4.5 8.2-8.2 13.4-8.2h39.9c5.2 0 11.8 3.7 14.8 8.2l22.9 34.5c1 1.5 25.2 5.2 25.2 5.2 4-1.8 6.7-5.1 6.2-10.8q-0.1-1.3-0.2-2.7h-23.7l-21.1-31.9c-5.3-8-15.8-13.8-25-13.8h-39.9c-9.3 0-18.8 5.8-22.8 13.8l-15.7 31.9h-164.1l-21.1-31.9c-5.3-8-15.8-13.8-25.1-13.8h-39.9c-9.2 0-18.7 5.8-22.7 13.8l-15.7 31.9h-50.6c0.9 4.3 2.8 14.4 2.8 14.4 0 0 7.6 2.8 21.5 5.2 0 0 31.3-3.7 32-5.2z"/>
					<path id="&lt;Path&gt;" class="s3" d="m51.7 152.7l15.7-31.9c3.9-8 13.5-13.8 22.7-13.8h39.9c9.3 0 19.8 5.8 25.1 13.8l21.1 31.9h164.1l15.7-31.9c4-8 13.5-13.8 22.7-13.8h39.9c9.3 0 19.8 5.8 25.1 13.8l21.1 31.9h23.6c0-0.2 0.1-0.4 0-0.6q-0.1-1.3-0.2-2.7h-23.7l-21.1-31.9c-5.3-8-15.8-13.8-25-13.8h-39.9c-9.3 0-18.8 5.8-22.8 13.8l-15.7 31.9h-164.1l-21.1-31.9c-5.3-8-15.8-13.8-25.1-13.8h-39.9c-9.2 0-18.7 5.8-22.7 13.8l-15.7 31.9h-50.6q0.4 1.8 0.7 3.3z"/>
				</g>
				<g id="&lt;Group&gt;">
					<path id="&lt;Path&gt;" fill-rule="evenodd" class="s10" d="m115.3 209.6c-24.3 0-43.9-19.6-43.9-43.9 0-24.3 19.6-43.9 43.9-43.9 24.3 0 43.9 19.6 43.9 43.9 0 24.3-19.6 43.9-43.9 43.9z"/>
					<path id="&lt;Compound Path&gt;" fill-rule="evenodd" class="s11" d="m115.3 197.4c-17.5 0-31.7-14.2-31.7-31.7 0-17.5 14.2-31.7 31.7-31.7 17.5 0 31.7 14.2 31.7 31.7 0 17.5-14.2 31.7-31.7 31.7zm29.2-31.7c0 1.4-0.2 2.7-0.3 4l-10-0.4-5.8-3.9 5.8-3.9 9.9-0.4c0.2 1.5 0.4 3 0.4 4.6zm-21.9 6.2q0.7 0.5 1.3 1.3l1.4 2.3-2.3-1.5q-0.7-0.5-1.2-1.2-0.2-0.7-0.5-1.3 0.6 0.3 1.3 0.4zm-1.3-12.5q0.3-0.6 0.5-1.3 0.4-0.7 1.2-1.3l2.3-1.4-1.5 2.3q-0.5 0.8-1.2 1.2-0.7 0.2-1.3 0.5zm3.3 9.1q-0.5-0.5-1.1-0.9 0.7 0 1.4-0.2 0.8 0 1.7 0.4l2.4 1.3-2.7-0.1q-1-0.1-1.7-0.5zm1.9-5.5q-0.8 0.4-1.6 0.4-0.7-0.2-1.4-0.2 0.6-0.4 1.1-0.9 0.7-0.4 1.7-0.4l2.7-0.2zm0-4.1l3.2-6.3 8.2-5.2c1.8 2.2 3.2 4.7 4.3 7.4l-8.6 4.5zm1.5-7.9l-6.3 3.2-0.5-7.1 4.5-8.5c2.7 1.1 5.2 2.5 7.5 4.3zm-7-7.5l-0.4-6.4q2 0.4 3.9 1zm0.1 44l3.8 5.8q-2.1 0.7-4.3 1.1zm0.3-3.5l0.4-7.1 6.3 3.1 5.4 8.6c-2.2 1.8-4.7 3.3-7.4 4.3zm5.2-11.8l7-0.4 8.9 4.6c-1.1 2.7-2.5 5.3-4.3 7.5l-8.5-5.4zm10.6-0.6l6.8-0.5q-0.4 2.2-1.1 4.2zm0-11.8l5.5-3.6c0.5 1.3 0.9 2.7 1.1 4.1zm0-13.1l-5.9 2.9 2.9-5.8q1.6 1.3 3 2.9zm-17.6-9.6l-0.4 9.6-3.9 5.9-3.9-5.9-0.4-9.6c1.4-0.2 2.8-0.3 4.3-0.3 1.4 0 2.9 0.1 4.3 0.3zm-2.1 36.8q0.4 0.6 0.9 1.1 0.4 0.7 0.5 1.6l0.1 2.8-1.3-2.5q-0.4-0.8-0.4-1.6 0.2-0.7 0.2-1.4zm-0.3-17.8q0.1-0.9 0.5-1.7l1.2-2.4-0.1 2.7q0 0.9-0.4 1.6-0.5 0.5-0.9 1.1-0.1-0.7-0.3-1.3zm-5.5 20.5q0.1-0.9 0.5-1.6 0.5-0.5 0.9-1.1 0 0.7 0.2 1.4 0 0.8-0.4 1.7l-1.3 2.4zm-0.1-24.7l1.2 2.4q0.4 0.8 0.5 1.7-0.2 0.6-0.3 1.3-0.3-0.5-0.8-1-0.5-0.7-0.5-1.7zm-25.5 14c0-1.6 0.2-3.1 0.4-4.6l9.8 0.5 5.9 3.9-5.9 3.8-9.9 0.5c-0.1-1.4-0.3-2.7-0.3-4.1zm17.9 2.2q0.8-0.5 1.7-0.5 0.6 0.2 1.3 0.3-0.5 0.3-1 0.8-0.8 0.5-1.7 0.5l-2.7 0.1zm0-4.8l-2.5-1.3 2.8 0.2q0.9 0 1.6 0.4 0.5 0.5 1.1 0.9-0.7 0-1.3 0.2-0.9 0-1.7-0.4zm2.7 10.1q0.5-0.7 1.2-1.2 0.7-0.1 1.3-0.4-0.3 0.6-0.4 1.2-0.5 0.8-1.3 1.3l-2.3 1.4zm1.3-14.2q-0.8-0.4-1.3-1.2l-1.5-2.3 2.3 1.5q0.8 0.5 1.3 1.2 0.1 0.6 0.4 1.3-0.6-0.3-1.2-0.5zm0.7-4.8l-6.3-3.2-5.2-8.1c2.3-1.8 4.8-3.2 7.5-4.3l4.5 8.5zm-4.8 4.8l-7.1 0.5-8.6-4.5c1.1-2.8 2.5-5.3 4.4-7.5l8.1 5.2zm-10.6 0.7l-6.6 0.4q0.4-2.1 1.1-4.1zm0 11.8l-5.6 3.8q-0.7-2.1-1.1-4.2zm3.6 0.2l7.1 0.5-3.2 6.3-8.4 5.3c-1.8-2.2-3.2-4.7-4.3-7.5zm5.5 8.4l6.4-3.2 0.4 7.1-4.7 9c-2.7-1.1-5.2-2.6-7.5-4.4zm7 7.5l0.4 6.9q-2.2-0.4-4.2-1.1zm-0.1-44l-3.5-5.3q1.9-0.6 3.9-1zm-13 0.1l2.8 5.8-5.8-2.9q1.4-1.6 3-2.9zm-3.3 41l6.2-3.1-3.1 6.2q-1.7-1.5-3.1-3.1zm17.9 9.9l0.4-10.1 4-5.9 3.8 5.9 0.5 10.1c-1.4 0.2-2.9 0.4-4.4 0.4-1.4 0-2.9-0.2-4.3-0.4zm23.5-6.8l-3.1-6.2 6.2 3.1q-1.4 1.6-3.1 3.1z"/>
					<path id="&lt;Path&gt;" class="s12" d="m115.3 129.9c21.6 0 39.3 16.7 41 37.9q0.2-1.7 0.2-3.3c0-22.8-18.5-41.2-41.2-41.2-22.8 0-41.2 18.4-41.2 41.2q0 1.6 0.1 3.3c1.7-21.2 19.5-37.9 41.1-37.9z"/>
					<path id="&lt;Path&gt;" class="s13" d="m115.3 205.1c-23.5 0-42.7-18.5-43.9-41.7q0 1.2 0 2.3c0 24.3 19.6 43.9 43.9 43.9 24.2 0 43.9-19.6 43.9-43.9q0-1.1-0.1-2.3c-1.1 23.2-20.3 41.7-43.8 41.7z"/>
					<path id="&lt;Path&gt;" class="s13" d="m115.3 134c17.2 0 31.1 13.7 31.6 30.8 0-0.3 0.1-0.6 0.1-1 0-17.5-14.2-31.6-31.7-31.6-17.5 0-31.7 14.1-31.7 31.6 0 0.4 0 0.7 0 1 0.6-17.1 14.5-30.8 31.7-30.8z"/>
					<path id="&lt;Path&gt;" class="s12" d="m115.3 197.5c17.2 0 31.1-13.7 31.6-30.7 0 0.3 0.1 0.6 0.1 0.9 0 17.5-14.2 31.7-31.7 31.7-17.5 0-31.7-14.2-31.7-31.7 0-0.3 0-0.6 0-0.9 0.6 17 14.5 30.7 31.7 30.7z"/>
				</g>
				<g id="&lt;Group&gt;">
					<path id="&lt;Path&gt;" fill-rule="evenodd" class="s10" d="m404.9 209.6c-24.3 0-43.9-19.6-43.9-43.9 0-24.3 19.6-43.9 43.9-43.9 24.3 0 43.9 19.6 43.9 43.9 0 24.3-19.6 43.9-43.9 43.9z"/>
					<path id="&lt;Compound Path&gt;" fill-rule="evenodd" class="s11" d="m404.9 197.4c-17.5 0-31.7-14.2-31.7-31.7 0-17.5 14.2-31.7 31.7-31.7 17.5 0 31.7 14.2 31.7 31.7 0 17.5-14.2 31.7-31.7 31.7zm29.2-31.7c0 1.4-0.1 2.7-0.3 4l-9.9-0.4-5.9-3.9 5.9-3.9 9.8-0.4c0.2 1.5 0.4 3 0.4 4.6zm-21.9 6.2q0.8 0.5 1.3 1.3l1.5 2.3-2.3-1.5q-0.8-0.5-1.3-1.2-0.1-0.7-0.4-1.3 0.6 0.3 1.2 0.4zm-1.2-12.5q0.2-0.6 0.4-1.3 0.4-0.7 1.2-1.3l2.3-1.4-1.4 2.3q-0.5 0.8-1.3 1.2-0.6 0.2-1.2 0.5zm3.2 9.1q-0.4-0.5-1-0.9 0.7 0 1.3-0.2 0.9 0 1.7 0.4l2.4 1.3-2.7-0.1q-0.9-0.1-1.7-0.5zm2-5.5q-0.8 0.4-1.7 0.4-0.6-0.2-1.3-0.2 0.5-0.4 1-0.9 0.8-0.4 1.7-0.4l2.7-0.2zm0.1-4.1l3.1-6.3 8.2-5.2c1.8 2.2 3.3 4.7 4.4 7.4l-8.7 4.5zm1.5-7.9l-6.3 3.2-0.4-7.1 4.4-8.5c2.7 1.1 5.3 2.5 7.5 4.3zm-7-7.5l-0.4-6.4q2.1 0.4 4 1zm0 44l3.9 5.8q-2.1 0.7-4.3 1.1zm0.2-3.5l0.4-7.1 6.3 3.1 5.5 8.6c-2.3 1.8-4.8 3.3-7.5 4.3zm5.2-11.8l7-0.4 8.9 4.6c-1 2.7-2.5 5.3-4.3 7.5l-8.4-5.4zm10.6-0.6l6.7-0.5q-0.4 2.2-1 4.2zm-0.1-11.8l5.5-3.6c0.5 1.3 0.9 2.7 1.2 4.1zm-0.1-13.1l-5.8 2.9 2.9-5.8q1.5 1.3 2.9 2.9zm-17.6-9.6l-0.4 9.6-3.9 5.9-3.9-5.9-0.4-9.6c1.4-0.2 2.9-0.3 4.3-0.3 1.5 0 2.9 0.1 4.3 0.3zm-2 36.8q0.3 0.6 0.8 1.1 0.5 0.7 0.5 1.6l0.1 2.8-1.2-2.5q-0.5-0.8-0.5-1.6 0.2-0.7 0.3-1.4zm-0.3-17.8q0-0.9 0.4-1.7l1.3-2.4-0.1 2.7q-0.1 0.9-0.5 1.6-0.5 0.5-0.9 1.1 0-0.7-0.2-1.3zm-5.5 20.5q0-0.9 0.4-1.6 0.5-0.5 0.9-1.1 0.1 0.7 0.3 1.4 0 0.8-0.5 1.7l-1.2 2.4zm-0.2-24.7l1.3 2.4q0.4 0.8 0.4 1.7-0.2 0.6-0.2 1.3-0.4-0.5-0.9-1-0.4-0.7-0.5-1.7zm-25.4 14c0-1.6 0.1-3.1 0.4-4.6l9.8 0.5 5.8 3.9-5.8 3.8-9.9 0.5c-0.2-1.4-0.3-2.7-0.3-4.1zm17.8 2.2q0.9-0.5 1.7-0.5 0.7 0.2 1.4 0.3-0.6 0.3-1.1 0.8-0.7 0.5-1.7 0.5l-2.7 0.1zm0-4.8l-2.4-1.3 2.7 0.2q0.9 0 1.7 0.4 0.4 0.5 1 0.9-0.7 0-1.3 0.2-0.9 0-1.7-0.4zm2.7 10.1q0.5-0.7 1.3-1.2 0.6-0.1 1.3-0.4-0.3 0.6-0.5 1.2-0.4 0.8-1.2 1.3l-2.3 1.4zm1.2-14.2q-0.7-0.4-1.3-1.2l-1.4-2.3 2.3 1.5q0.7 0.5 1.2 1.2 0.2 0.6 0.5 1.3-0.6-0.3-1.3-0.5zm0.8-4.8l-6.3-3.2-5.2-8.1c2.2-1.8 4.7-3.2 7.5-4.3l4.4 8.5zm-4.8 4.8l-7 0.5-8.7-4.5c1.1-2.8 2.6-5.3 4.4-7.5l8.2 5.2zm-10.7 0.7l-6.6 0.4q0.5-2.1 1.2-4.1zm0 11.8l-5.6 3.8q-0.7-2.1-1.1-4.2zm3.6 0.2l7 0.5-3.1 6.3-8.5 5.3c-1.8-2.2-3.2-4.7-4.2-7.5zm5.5 8.4l6.3-3.2 0.4 7.1-4.7 9c-2.7-1.1-5.2-2.6-7.4-4.4zm6.9 7.5l0.5 6.9q-2.2-0.4-4.3-1.1zm0-44l-3.6-5.3q1.9-0.6 4-1zm-13.1 0.1l2.9 5.8-5.8-2.9q1.3-1.6 2.9-2.9zm-3.2 41l6.1-3.1-3.1 6.2q-1.6-1.5-3-3.1zm17.9 9.9l0.4-10.1 3.9-5.9 3.9 5.9 0.4 10.1c-1.4 0.2-2.8 0.4-4.3 0.4-1.5 0-2.9-0.2-4.3-0.4zm23.4-6.8l-3-6.2 6.1 3.1q-1.4 1.6-3.1 3.1z"/>
					<path id="&lt;Path&gt;" class="s12" d="m404.9 129.9c21.7 0 39.4 16.7 41.1 37.9q0.1-1.7 0.1-3.3c0-22.8-18.4-41.2-41.2-41.2-22.7 0-41.2 18.4-41.2 41.2q0 1.6 0.2 3.3c1.7-21.2 19.4-37.9 41-37.9z"/>
					<path id="&lt;Path&gt;" class="s13" d="m404.9 205.1c-23.5 0-42.6-18.5-43.8-41.7q-0.1 1.2-0.1 2.3c0 24.3 19.7 43.9 43.9 43.9 24.3 0 43.9-19.6 43.9-43.9q0-1.1 0-2.3c-1.2 23.2-20.4 41.7-43.9 41.7z"/>
					<path id="&lt;Path&gt;" class="s13" d="m404.9 134c17.2 0 31.2 13.7 31.7 30.8 0-0.3 0-0.6 0-1 0-17.5-14.2-31.6-31.7-31.6-17.5 0-31.7 14.1-31.7 31.6 0 0.4 0.1 0.7 0.1 1 0.5-17.1 14.4-30.8 31.6-30.8z"/>
					<path id="&lt;Path&gt;" class="s12" d="m404.9 197.5c17.2 0 31.2-13.7 31.7-30.7 0 0.3 0 0.6 0 0.9 0 17.5-14.2 31.7-31.7 31.7-17.5 0-31.7-14.2-31.7-31.7 0-0.3 0.1-0.6 0.1-0.9 0.5 17 14.4 30.7 31.6 30.7z"/>
				</g>
				<g id="&lt;Group&gt;">
					<path id="&lt;Path&gt;" class="s0" d="m349.2 158.2c0 1.9-1.6 3.5-3.5 3.5h-175.6c-1.9 0-3.4-1.6-3.4-3.5 0-1.9 1.5-3.4 3.4-3.4h175.6c1.9 0 3.5 1.5 3.5 3.4z"/>
					<path id="&lt;Path&gt;" class="s3" d="m349.1 157.4c-0.4-1.5-1.7-2.6-3.4-2.6h-175.6c-1.6 0-3 1.1-3.3 2.6z"/>
					<path id="&lt;Path&gt;" class="s2" d="m167.3 160.2c0.6 0.9 1.7 1.5 2.8 1.5h175.6c1.2 0 2.2-0.6 2.9-1.5z"/>
				</g>
				<g id="&lt;Group&gt;">
					<path id="&lt;Compound Path&gt;" fill-rule="evenodd" class="s7" d="m257.7 77.8v5c0 0.7-0.5 1.3-1.2 1.3h-20.6c-0.7 0-1.2-0.6-1.2-1.3v-5c0-0.6 0.6-1.2 1.2-1.2h20.6c0.7 0 1.2 0.5 1.2 1.2q0 0 0 0zm-22.5 0.1v2.6c0 0.4 0.3 0.7 0.7 0.7h20.6c0.4 0 0.7-0.3 0.7-0.7v-2.6c0-0.4-0.3-0.8-0.7-0.8h-20.6c-0.4 0-0.7 0.4-0.7 0.8zm22 4.9v-1.4c-0.2 0.2-0.4 0.3-0.7 0.3h-20.6c-0.2 0-0.5-0.1-0.7-0.3v1.4c0 0.4 0.3 0.8 0.7 0.8h20.6c0.4 0 0.7-0.4 0.7-0.8z"/>
				</g>
				<path id="&lt;Path&gt;" class="s6" d="m452.8 126.2c0 0 24.5 0 30.8 0 6.3 0 3.7 13.8 3.7 13.8l-28.2-0.6z"/>
				<path id="&lt;Path&gt;" class="s14" d="m21.4 128.3l1.5-23.5-17.9 0.4c-1.4 2.8-1.5 14.4-1.3 23.5z"/>
				<path id="&lt;Path&gt;" class="s15" d="m22.6 110.4l0.8-12.4-18 0.4c-0.8 1.7-1.2 6.7-1.3 12.4z"/>
				<path id="&lt;Path&gt;" class="s16" d="m464.3 91.7v-1.4c0-2.1-1.7-3.8-3.8-3.8h-13.8c-2.1 0-3.7 1.7-3.7 3.8v1.4z"/>
				<path id="&lt;Path&gt;" class="s17" d="m485 124.5h1.9c2.7-0.1 4.7-2.6 4.5-5.6l-1.2-20.1c-0.2-3-2.6-5.4-5.3-5.4h-1.8z"/>
				<g id="&lt;Group&gt;">
					<path id="&lt;Path&gt;" class="s18" d="m358.8 67.5c-0.6 9.8-8 7.2-11.5 7.1-3.5-0.2-4.5-3.4-4.1-7.5 0.6-5.9 2.8-7.8 6.3-7.7 3.6 0.2 9.9-0.3 9.3 8.1z"/>
					<path id="&lt;Path&gt;" class="s4" d="m344 63.8c0.7 1.8 2.2 3.1 4.2 3.1 2.2 0.1 11.9 2.4 8.4-5.1-1.8-2-4.9-1.7-7-1.8-2.2-0.1-4.4 1.5-5.6 3.8z"/>
				</g>
			</g>
			<path id="&lt;Path&gt;" class="s6" d="m394.1 91.9l86.3 2.6 1.7 12.7z"/>
		</g>
		<path id="&lt;Compound Path&gt;" fill-rule="evenodd" class="s6" d="m234.8 57v-42.7c16.3 0.3 30.2 0.6 41.8 0.9q-20.9 20.9-41.8 41.8zm50.4-41.5q6.5 0.2 11.5 0.4-25.8 25.9-51.7 51.8h-10.2v-1.8zm23.6 52.1h-38.2l45.9-45.9c4.6 6.3 10.5 14 16.4 21.7zm28.1-19.1q2.6 3.4 5.2 6.8-6.2 6.1-12.4 12.3h-12z"/>
	</g>
</svg>