<svg version="1.2" xmlns="http://www.w3.org/2000/svg" viewBox="0 0 470 156" width="470" height="156">
	<title>-e-12</title>
	<style>
		.s0 { fill: #070000 } 
		.s1 { fill: #262626 } 
		.s2 { fill: #d60606 } 
		.s3 { fill: #f4cc25 } 
		.s4 { fill: #191919 } 
		.s5 { fill: #f2a927 } 
		.s6 { fill: #f9eff0 } 
		.s7 { fill: #999999 } 
		.s8 { fill: #2b2b2b } 
		.s9 { fill: #80c2dc } 
		.s10 { fill: #231f20 } 
		.s11 { fill: #ffffff } 
		.s12 { fill: #540c16 } 
		.s13 { fill: #ffe161 } 
	</style>
	<g id="-e-12">
		<g id="&lt;Group&gt;">
			<path id="&lt;Path&gt;" class="s0" d="m249.6 60.8c-0.6 1.2-2.1 1.8-3.3 1.2-1.3-0.6-1.8-2.1-1.2-3.4l12.4-25.9c0.6-1.2 2.1-1.7 3.4-1.1 1.2 0.6 1.7 2.1 1.1 3.3z"/>
			<g id="&lt;Group&gt;">
				<path id="&lt;Path&gt;" class="s1" d="m231.2 6.2q-0.1-0.4-0.7-0.8c-8.4-5.1-94.7-15.8-152.7 27.8 20-3.1 26.1-8 33.5 4.2 7.3 3.1 19 7.4 34.3 6.1 0-24.7 48.6-38.3 84.7-30.5z"/>
				<g id="&lt;Group&gt;">
					<path id="&lt;Path&gt;" class="s2" d="m15.2 81.8c-1.8 7.5-5.5 13-8.1 12.4-2.6-0.7-3.1-7.3-1.2-14.8 1.9-7.4 5.5-13 8.1-12.3 2.6 0.6 3.1 7.2 1.2 14.7z"/>
					<path id="&lt;Path&gt;" class="s0" d="m114.1 39.2c2.7 4.5 1.2 10.3-3.3 13-4.5 2.6-10.3 1.2-12.9-3.3l-4.9-8.2c-2.6-4.4-1.2-10.2 3.3-12.9 4.5-2.7 10.3-1.2 13 3.3z"/>
					<path id="&lt;Path&gt;" class="s0" d="m197.1 44.4c2.7 4.5 1.2 10.3-3.2 13-4.5 2.6-10.3 1.2-13-3.3l-4.8-8.2c-2.7-4.4-1.2-10.2 3.3-12.9 4.4-2.7 10.2-1.2 12.9 3.3z"/>
					<path id="&lt;Path&gt;" class="s0" d="m275.9 51.1c-3.1 4.2-9.1 5-13.2 1.9-4.2-3.1-5.1-9.1-1.9-13.2l5.6-7.6c3.2-4.2 9.1-5 13.3-1.9 4.1 3.1 5 9.1 1.9 13.2z"/>
					<g id="&lt;Group&gt;">
						<g id="&lt;Group&gt;">
							<path id="&lt;Path&gt;" class="s3" d="m462.3 128.5c0 0-0.4-4.1-0.8-10.8 2.4-3.6-5.2-20.2-10.1-29.9-8.7-17.2-64.8-43.8-132.5-43.8-30.1-16.8-63.5-32.9-89-37.9-1.4-0.3-9.4 2.1 2.6 8 21.1 10.6 65 29.9 30.5 29.9-121.7 0-147.3-0.5-150.8-6.5-14.2-20.2-51.8 4.3-69.5 11.2-22.7 8.8-36.9 12.7-32.8 24.9 3.3 9.8 0.9 14-3.5 15.6-5 1.7-6 31.5-1.7 35.2 6.5 5.7 40 12 52.5 13.1 19.5 1.7 210.3 1.4 271.9-0.5 51.3-1.6 159.4-0.2 133.2-8.5z"/>
							<g id="&lt;Group&gt;">
								<path id="&lt;Path&gt;" class="s4" d="m464.9 128.6c-0.7-0.3 1.3-4.8-2.7-7.1-11.5 1.2-19-0.4-43.2 0.9-5.2 0.3-27.2-22.5-32.5-22.2-25.1 1.3-48.5 28.6-65.7 29.1-5.7 0.2-12.4 0.3-20 0.5-32.1 0.6-79.1 0.9-124.3 1.1-17.5 0-42.4-31-58.3-31.1-42-0.1-67.9 30.7-75.5 30-12.7-1.1 0.9-17.7-7.5-19.9-1.4-0.3-31.8-4.7-33-6-1.9 25.9 6.7 28.1 10.2 29.1 8.3 2.1 22.1 4.4 34.5 5.5 19.4 1.7 210.2 1.4 271.9-0.5 51.5-1.6 171.6-1.1 146.1-9.4z"/>
							</g>
							<g id="&lt;Group&gt;">
								<path id="&lt;Path&gt;" class="s4" d="m445.8 95.8c3.7 6.6 11.1 19.2 12.7 19.1 1.6 0 2.7 0.1 3.4 0.3-1-7.4-6.9-20.7-10.4-26.8-0.4 5.1-5.7 7.4-5.7 7.4z"/>
							</g>
							<g id="&lt;Group&gt;">
								<path id="&lt;Path&gt;" class="s4" d="m77.6 73.1c24.4 0 44.1 19.8 44.1 44.2 0 1.3 0.3 10.6 0.6 21.6-36.6-0.1-66-0.5-75.9-1.4q-7-0.6-13.2-1.4c0.1-9.4 0.2-17.1 0.2-18.8 0-24.4 19.8-44.2 44.2-44.2z"/>
								<path id="&lt;Path&gt;" class="s4" d="m347.4 73.1c24.4 0 44.2 19.8 44.2 44.2 0 1.2 0.1 9.5 0.3 18.8-23.4 0.7-50.1 0.2-73.6 0.9-4.1 0.1-9.3 0.3-15.3 0.4 0.1-10 0.3-18.3 0.3-20.1 0-24.4 19.7-44.2 44.1-44.2z"/>
							</g>
						</g>
						<g id="&lt;Group&gt;">
							<path id="&lt;Path&gt;" fill-rule="evenodd" class="s0" d="m347.9 155.6c-20.8 0-37.7-16.8-37.7-37.6 0-20.9 16.9-37.7 37.7-37.7 20.8 0 37.7 16.8 37.7 37.7 0 20.8-16.9 37.6-37.7 37.6z"/>
							<path id="&lt;Path&gt;" class="s5" d="m331.5 128.8c7.9 7.9 6.8-5.9 14.6-13.7 7.8-7.8 21.6-6.7 13.7-14.6-7.8-7.8-20.4-7.8-28.3 0-7.8 7.9-7.8 20.5 0 28.3z"/>
							<path id="&lt;Compound Path&gt;" fill-rule="evenodd" class="s6" d="m347.9 147.1c-16.1 0-29.1-13-29.1-29.1 0-16.1 13-29.1 29.1-29.1 16.1 0 29.1 13 29.1 29.1 0 16.1-13 29.1-29.1 29.1zm-23.1-18.7l3-2.2-3.7 0.6q0.3 0.8 0.7 1.6zm10.5-7.6l3.8-2.8-3.8-2.7-12.3-2q-0.5 2.3-0.5 4.7 0 2.4 0.5 4.7zm36.2 6.2l-4.2-0.7 3.5 2.5q0.4-0.9 0.7-1.8zm1.2-4.1q0.5-2.4 0.5-4.9 0-2.4-0.5-4.7l-12.9 2.1-3.8 2.7 3.7 2.7zm-1.9-15.5l-3.5 2.5 4.3-0.6q-0.3-1-0.8-1.9zm-46.7 2l3.7 0.5-3.1-2.2q-0.3 0.8-0.6 1.7zm2.7-5.4l10.2 7.4 4.6 0.7-0.8-4.6-7.4-10.2c-2.6 1.8-4.9 4.1-6.6 6.7zm12.6-5.6l-0.7-4q-0.8 0.4-1.7 0.8zm3.5-5.2l2 12.7 2.7 3.7 2.7-3.7 2.1-12.8q-2.2-0.4-4.5-0.4-2.6 0-5 0.5zm12.9 5.2l2.5-3.5q-0.9-0.4-1.8-0.7zm6.2-1.4l-7.7 10.6-0.7 4.6 4.6-0.8 10.6-7.7c-1.8-2.6-4.2-4.9-6.8-6.7zm6.7 35.5l-10.5-7.6-4.6-0.8 0.7 4.6 7.6 10.5c2.7-1.7 5-4 6.8-6.7zm-12.9 5.4l0.6 4.1q0.9-0.3 1.8-0.7zm-3.4 5.1l-2.1-12.7-2.7-3.7-2.7 3.7-2 12.6q2.4 0.5 5 0.5 2.3 0 4.5-0.4zm-13-5.1l-2.2 3.1q0.8 0.4 1.6 0.7zm-5.9 1l7.4-10.2 0.7-4.6-4.6 0.8-10.1 7.3c1.7 2.7 4 4.9 6.6 6.7z"/>
							<path id="&lt;Compound Path&gt;" class="s7" d="m341.2 137.9l-3.2-1.3 4.4-6zm12.7 0l-1.1-7.3 4.3 6zm-10.6-9.7l1.1-7.1-7.1 1.1 5.8-4.2-5.8-4.2 7.1 1.1-1.1-7.1 4.2 5.8 4.2-5.8-1.1 7.1 7.1-1.1-5.8 4.2 5.8 4.2-7.1-1.1 1.1 7.1-4.2-5.8zm-14.3-0.7l-1.4-3.1 7.3-1.2zm37.2 0l-6-4.3 7.3 1.1zm-6-14.8l6-4.3 1.3 3.2zm-25.2 0l-7.3-1.2 1.4-3.2zm7.3-7.3l-4.3-6 3.2-1.3zm10.4 0l1.2-7.3 3.2 1.3z"/>
							<path id="&lt;Path&gt;" class="s1" d="m347.9 85.6c-19.4 0-35.1 15.2-36.1 34.3-0.1-0.6-0.1-1.3-0.1-1.9 0-20 16.2-36.3 36.2-36.3 20 0 36.2 16.3 36.2 36.3 0 0.6-0.1 1.3-0.1 1.9-1-19.1-16.8-34.3-36.1-34.3z"/>
							<path id="&lt;Path&gt;" class="s1" d="m347.9 147.2c15.6 0 28.4-12.3 29.2-27.7 0 0.5 0.1 1 0.1 1.6 0 16.1-13.1 29.3-29.3 29.3-16.2 0-29.3-13.2-29.3-29.3 0-0.6 0-1.1 0.1-1.6 0.8 15.4 13.5 27.7 29.2 27.7z"/>
						</g>
						<g id="&lt;Group&gt;">
							<path id="&lt;Path&gt;" fill-rule="evenodd" class="s0" d="m76 155.6c-20.9 0-37.7-16.8-37.7-37.6 0-20.9 16.8-37.7 37.7-37.7 20.8 0 37.6 16.8 37.6 37.7 0 20.8-16.8 37.6-37.6 37.6z"/>
							<path id="&lt;Path&gt;" class="s5" d="m59.6 128.8c7.8 7.9 6.8-5.9 14.6-13.7 7.8-7.8 21.5-6.7 13.7-14.6-7.8-7.8-20.5-7.8-28.3 0-7.8 7.9-7.8 20.5 0 28.3z"/>
							<path id="&lt;Compound Path&gt;" fill-rule="evenodd" class="s6" d="m76 147.1c-16.1 0-29.1-13-29.1-29.1 0-16.1 13-29.1 29.1-29.1 16.1 0 29.1 13 29.1 29.1 0 16.1-13 29.1-29.1 29.1zm-23.1-18.7l3-2.2-3.7 0.6q0.3 0.8 0.7 1.6zm10.5-7.6l3.8-2.8-3.8-2.7-12.3-2q-0.5 2.3-0.5 4.7 0 2.4 0.5 4.7zm36.2 6.2l-4.2-0.7 3.5 2.5q0.4-0.9 0.7-1.8zm1.2-4.1q0.5-2.4 0.5-4.9 0-2.4-0.5-4.7l-13 2.1-3.7 2.7 3.7 2.7zm-1.9-15.5l-3.5 2.5 4.3-0.6q-0.4-1-0.8-1.9zm-46.7 2l3.7 0.5-3.1-2.2q-0.3 0.8-0.6 1.7zm2.6-5.4l10.3 7.4 4.5 0.7-0.7-4.6-7.4-10.2c-2.6 1.8-4.9 4.1-6.7 6.7zm12.6-5.6l-0.6-4q-0.8 0.4-1.7 0.8zm3.5-5.2l2 12.7 2.7 3.7 2.7-3.7 2.1-12.8q-2.2-0.4-4.5-0.4-2.6 0-5 0.5zm12.9 5.2l2.5-3.5q-0.9-0.4-1.8-0.7zm6.2-1.4l-7.7 10.6-0.7 4.6 4.5-0.8 10.7-7.7c-1.9-2.6-4.2-4.9-6.8-6.7zm6.7 35.5l-10.6-7.6-4.5-0.8 0.7 4.6 7.6 10.5c2.7-1.7 5-4 6.8-6.7zm-12.9 5.4l0.6 4.1q0.9-0.3 1.8-0.7zm-3.5 5.1l-2-12.7-2.7-3.7-2.7 3.7-2 12.6q2.4 0.5 5 0.5 2.3 0 4.4-0.4zm-12.9-5.1l-2.3 3.1q0.9 0.4 1.7 0.7zm-5.9 1l7.4-10.2 0.7-4.6-4.6 0.8-10.2 7.3c1.8 2.7 4.1 4.9 6.7 6.7z"/>
							<path id="&lt;Compound Path&gt;" class="s7" d="m69.3 137.9l-3.2-1.3 4.3-6zm12.8 0l-1.2-7.3 4.4 6zm-10.6-9.7l1.1-7.1-7.1 1.1 5.8-4.2-5.8-4.2 7.1 1.1-1.1-7.1 4.2 5.8 4.2-5.8-1.1 7.1 7.1-1.1-5.8 4.2 5.8 4.2-7.1-1.1 1.1 7.1-4.2-5.8zm-14.4-0.7l-1.3-3.1 7.3-1.2zm37.2 0l-6-4.3 7.3 1.1zm-6-14.8l6-4.3 1.3 3.2zm-25.2 0l-7.3-1.2 1.3-3.2zm7.4-7.3l-4.3-6 3.2-1.3zm10.4 0l1.2-7.3 3.1 1.3z"/>
							<path id="&lt;Path&gt;" class="s1" d="m76 85.6c-19.4 0-35.1 15.2-36.2 34.3 0-0.6-0.1-1.3-0.1-1.9 0-20 16.3-36.3 36.3-36.3 20 0 36.2 16.3 36.2 36.3 0 0.6-0.1 1.3-0.1 1.9-1-19.1-16.8-34.3-36.1-34.3z"/>
							<path id="&lt;Path&gt;" class="s1" d="m76 147.2c15.6 0 28.4-12.3 29.2-27.7 0 0.5 0.1 1 0.1 1.6 0 16.1-13.1 29.3-29.3 29.3-16.2 0-29.3-13.2-29.3-29.3 0-0.6 0-1.1 0-1.6 0.9 15.4 13.6 27.7 29.3 27.7z"/>
						</g>
						<path id="&lt;Path&gt;" class="s8" d="m416.2 128.9l7.8-8c1-1.7 3.2-2.5 4.6-2.5l32.1-1.1c2.4 0 2.5 10.4 0.2 10.4z"/>
						<path id="&lt;Path&gt;" class="s9" d="m230.1 6.3c30.4 7 60.5 22.8 86 37.7l-10.9-0.1c-34.5-25.6-78.5-35.2-75.1-37.6z"/>
						<g id="&lt;Group&gt;">
							<path id="&lt;Path&gt;" class="s10" d="m188.8 131.5h95.3c10.1 0 10.2-13 10.3-31.1 0-4.7 0.1-9.6 0.3-14.8 1-25.2 1-29.8-6.5-42.4l-0.4 0.3c7.4 12.5 7.4 17 6.4 42.1-0.2 5.1-0.3 10.1-0.3 14.8-0.1 17.8-0.2 30.6-9.8 30.6h-95.3c-11 0-21.2-8.5-30.4-25.2-8-14.5-12.6-30.6-13.8-35.2-2.3-8.8-1.7-15.6 1.7-20 3.2-4.1 8.7-6.2 15.9-6.2v-0.5c-7.4 0-13 2.2-16.3 6.3-3.5 4.7-4.1 11.6-1.8 20.5 1.2 4.6 5.8 20.8 13.8 35.4 9.3 16.9 19.7 25.4 30.9 25.4z"/>
						</g>
						<g id="&lt;Group&gt;" style="opacity: .5">
							<path id="&lt;Path&gt;" class="s11" d="m378 58.7c-130.5 0.1-204.9-2.1-293.6 8.8-14.9-8.4-44-5.1-44-5.1 173.7-27.1 337.6-3.7 337.6-3.7z"/>
						</g>
						<g id="&lt;Group&gt;" style="opacity: .5">
							<path id="&lt;Path&gt;" class="s11" d="m342.1 63.1c19-1.3 45.9 1.4 55.3 38.2l-8.8-1.8c-12.4-23-31.2-27.8-45.3-26.8-22.1 1.6-37.2 19.7-40.1 37.7-1.7-22.5 16.8-45.7 38.9-47.3z"/>
						</g>
						<g id="&lt;Group&gt;" style="opacity: .5">
							<path id="&lt;Path&gt;" class="s11" d="m302.9 92.8l-197.7-13.1 14.5 17.8z"/>
						</g>
						<g id="&lt;Group&gt;" style="opacity: .5">
							<path id="&lt;Path&gt;" class="s11" d="m453.9 114l-60.2-11 16.9 14.1z"/>
						</g>
						<g id="&lt;Group&gt;" style="opacity: .5">
							<path id="&lt;Path&gt;" class="s11" d="m452.3 128.5l-60.4 1.6 15.3 3.3 43.6-3.5z"/>
						</g>
						<path id="&lt;Path&gt;" fill-rule="evenodd" class="s10" d="m159.2 65.9c-7.6 0-13.7-1.2-13.7-2.7 0-1.5 6.1-2.8 13.7-2.8 7.6 0 13.7 1.3 13.7 2.8 0 1.5-6.1 2.7-13.7 2.7z"/>
						<path id="&lt;Path&gt;" fill-rule="evenodd" class="s12" d="m159.2 64.4c-6.7 0-12-0.8-12-1.8 0-1 5.3-1.8 12-1.8 6.6 0 12 0.8 12 1.8 0 1-5.4 1.8-12 1.8z"/>
					</g>
					<g id="&lt;Group&gt;" style="opacity: .5">
						<path id="&lt;Path&gt;" class="s11" d="m228.5 12.1c0.9-0.8 2.5-1.1 3-1 22.6 4.3 45.1 19 72.9 34.4 102.7 9.6 129.5 32.4 140.6 49.5 3.1 4.8 14.3 24.1 17.2 31.1 0.8-17.8-7.3-28-10.8-38.3-5.5-16.1-64.2-43.3-135.7-43.8-28.6-16.8-60.7-32.9-85.8-37.9-1.2-0.2-7.7 1.5-1.4 6z"/>
						<path id="&lt;Path&gt;" class="s11" d="m7.9 93.9c5-1.7 8.7-6.4 8.6-16.6-0.2-12.5 14.7-16.5 38.8-25.4 18.4-6.9 35.4-17.4 58.1-8.6 19.6 6.1 35.4 3.3 147.2 2.4 8.5 0 11.8-1.4 11.6-3.6-1.4 1.4-5.1 2.2-12 2.2-118.9 0-143.9-0.5-146.8-6.6-12.3-20.1-51 4.4-68.8 11.3-22.9 8.8-37.7 11.1-34.6 23.4 2.4 9.7 0.3 15.5-4.1 17-1.8 0.6-3.8 11.1-3.4 15 0.9-4 4.1-10.1 5.4-10.5z"/>
					</g>
					<path id="&lt;Path&gt;" class="s11" d="m442.5 123.8c1.5-1.8 1.3-3.3-0.6-3.3h-6.2c-1.8 0-4.6 1.5-6.1 3.3-1.5 1.9-1.3 3.4 0.6 3.4h6.1c1.9 0 4.6-1.5 6.2-3.4z"/>
				</g>
				<path id="&lt;Path&gt;" class="s6" d="m405.2 63c7.9-9.9 19.4-13.5 19.4-13.5 0 0 2.7 13-0.7 22.9-5.7 0.3-18.7-9.4-18.7-9.4z"/>
				<path id="&lt;Path&gt;" class="s3" d="m405.2 63c7.9-9.9 19.4-13.5 19.4-13.5 0 0-1.5 9.2-0.7 22.9-5.7 0.3-18.7-9.4-18.7-9.4z"/>
				<g id="&lt;Group&gt;">
					<path id="&lt;Path&gt;" class="s13" d="m294.8 47.6c-1.1 5.4-12.4 7.7-17.8 6.7-5.4-1.1-8.8-6.3-7.8-11.7 1.1-5.4 6.3-8.9 11.7-7.9 5.3 1.1 14.9 7.5 13.9 12.9z"/>
					<g id="&lt;Group&gt;" style="opacity: .5">
						<path id="&lt;Path&gt;" class="s11" d="m272.2 39.1c1.1 2.6 3.4 4.7 6.3 5.3 3.4 0.6 9.4-0.2 12.8-2.5-2.5-3.1-7.2-5.8-10.3-6.4-3.5-0.7-6.9 0.8-8.8 3.6z"/>
					</g>
				</g>
			</g>
		</g>
		<g id="&lt;Group&gt;" style="opacity: .5">
			<path id="&lt;Path&gt;" class="s11" d="m149.2 114.3c33.9 7.6 122.8 10.7 151.7 0.3-26.9 9.1-124.9 27.5-151.7-0.3z"/>
		</g>
	</g>
</svg>