<svg version="1.2" xmlns="http://www.w3.org/2000/svg" viewBox="0 0 464 182" width="464" height="182">
	<title>-e-2</title>
	<style>
		.s0 { fill: #db3535 } 
		.s1 { fill: #f4cc25 } 
		.s2 { fill: #f2a927 } 
		.s3 { fill: #2a2a2b } 
		.s4 { fill: #f29b27 } 
		.s5 { fill: #ce7305 } 
		.s6 { fill: #070707 } 
		.s7 { fill: #091119 } 
		.s8 { opacity: .3;fill: #091119 } 
		.s9 { fill: #ffffff } 
		.s10 { fill: #f49625 } 
		.s11 { opacity: .3;fill: #2a2a2b } 
		.s12 { opacity: .2;fill: #f9f9f9 } 
		.s13 { fill: #80c2dc } 
		.s14 { opacity: .6;fill: #ffffff } 
		.s15 { opacity: .7;fill: #ffffff } 
		.s16 { fill: #ededed } 
		.s17 { opacity: .2;fill: #ededed } 
	</style>
	<g id="-e-2">
		<g id="&lt;Group&gt;">
			<g id="&lt;Group&gt;">
				<g id="&lt;Group&gt;">
					<path id="&lt;Path&gt;" class="s0" d="m244.6 19.8c2.8 8 0.9 15-4.5 15h-102.7c-5.4 0-7.5-7-5.1-15l2.6-8.1c2-6.7 7.1-11.7 11.5-11.7h83.4c4.4 0 9.6 5 12 11.7z"/>
					<g id="&lt;Group&gt;">
						<g id="&lt;Group&gt;">
							<path id="&lt;Path&gt;" class="s1" d="m457.9 149.3l1.1-18.1c-2.2-17.4-20.3-35-32.4-39.2-8.7-3.1-84.5-20.9-93.6-21.2-5-1.4-64.2-35.4-85.3-43.6-6-2.3-115.1-3.4-118.2-1.7-10 5.6-47.2 19.2-75.3 36.9-6.4 4-31.4 7-35 11.8-8.9 11.8-14.4 75.1-14.4 75.1-1 8.3 4 15.2 11.1 15.2h397.6c7.1 0 47.6-6.9 44.4-15.2z"/>
							<path id="&lt;Path&gt;" class="s2" d="m172.1 84.2c-68 0-126.6 22.2-153.6 54.1-1 7.9-1.6 13.5-1.6 13.5-0.9 6.9 3.7 12.7 10.4 12.7h51.6c30.9-23.3 80.6-38.3 136.7-38.3 47 0 89.6 10.5 120.3 27.6-19.2-40-85.3-69.6-163.8-69.6z"/>
							<path id="&lt;Path&gt;" class="s3" d="m288.2 70.9c6.9 0.1 6.8-3.3-4.5-11.4-10.3-7.5-23.7-17.1-32.1-21.8-9.8-5.7-39-9-65-9.2-22.2-0.1-36.6 2.2-48.3 5.9-8.1 2.5-43.4 15.4-58.8 27.3-2 1.7-4.3 5.7 6.3 5.9 21.9 0.3 137.6 2.2 202.4 3.3z"/>
							<path id="&lt;Path&gt;" class="s4" d="m463.3 153v-7.1c0-15.1-1.4-18.6-11.8-18.6h-69.8v9.8c0 6.6-5.3 11.9-11.9 11.9h-269.4c-6.5 0-11.8-5.3-11.8-11.9v-9.8h-76.4c-6.5 0-11.8 5.4-11.8 11.9v13.8c0 6.5-0.2 11.8 6.3 11.8h419.4c20.3 0 37.2-5.3 37.2-11.8z"/>
							<path id="&lt;Path&gt;" class="s4" d="m118.4 147.1c0-23.7-19.2-43-42.9-43-23.7 0-43 19.3-43 43 0 6 1.3 11.8 3.6 17h78.8c2.2-5.2 3.5-11 3.5-17z"/>
							<path id="&lt;Path&gt;" class="s4" d="m413.5 147.1c0-23.7-19.2-43-42.9-43-23.7 0-43 19.3-43 43 0 6 1.3 11.8 3.6 17h78.8c2.3-5.2 3.5-11 3.5-17z"/>
							<path id="&lt;Path&gt;" class="s5" d="m426.1 157.1h-419.4c-6 0-6.3-4.5-6.3-10.3v6.2c0 6.5-0.2 11.8 6.3 11.8h419.4c20.3 0 37.2-5.3 37.2-11.8v-7.1q0-0.3 0-0.7c-0.1 6.6-17 11.9-37.2 11.9z"/>
							<g id="&lt;Group&gt;">
								<path id="&lt;Path&gt;" class="s6" d="m114.1 146c0-21.3-17.4-38.6-38.6-38.6-21.3 0-38.6 17.3-38.6 38.6 0 6.8 1.8 13.2 4.9 18.7h67.4c3.1-5.5 4.9-11.9 4.9-18.7z"/>
								<g id="&lt;Group&gt;">
									<g id="&lt;Group&gt;">
										<g id="&lt;Group&gt;">
											<g id="&lt;Group&gt;">
												<path id="&lt;Path&gt;" fill-rule="evenodd" class="s3" d="m75.5 180.6c-19.2 0-34.7-15.5-34.7-34.6 0-19.2 15.5-34.7 34.7-34.7 19.1 0 34.6 15.5 34.6 34.7 0 19.1-15.5 34.6-34.6 34.6z"/>
												<path id="&lt;Path&gt;" fill-rule="evenodd" class="s7" d="m75.5 175.6c-16.4 0-29.7-13.2-29.7-29.6 0-16.4 13.3-29.7 29.7-29.7 16.4 0 29.6 13.3 29.6 29.7 0 16.4-13.2 29.6-29.6 29.6z"/>
											</g>
										</g>
									</g>
								</g>
								<path id="&lt;Compound Path&gt;" fill-rule="evenodd" class="s3" d="m75.5 171.9c-14.4 0-26-11.6-26-25.9 0-14.4 11.6-26 26-26 14.3 0 25.9 11.6 25.9 26 0 14.3-11.6 25.9-25.9 25.9zm9.8-43.6l-4.1 8.9c-0.2 0.3 0.4 1.3 1.2 2.1 0.8 0.9 1.8 1.4 2.1 1.3l9-4.1c2.6-1.3 3.1-5.1 0-8.2-3.1-3.1-7-2.7-8.2 0zm-15.4-1.7l3.5 9.2c0.1 0.4 1.2 0.7 2.3 0.7 1.2 0 2.3-0.3 2.4-0.7l3.4-9.2c1.1-2.7-1.4-5.8-5.8-5.8-4.3 0-6.8 3.1-5.8 5.8zm-12 9.7l9 4.1c0.3 0.1 1.3-0.4 2.1-1.3 0.8-0.8 1.4-1.7 1.2-2.1l-4.1-8.9c-1.2-2.7-5-3.1-8.2 0-3.1 3.1-2.6 7 0 8.2zm-1.6 15.3l9.2-3.4c0.4-0.2 0.7-1.2 0.7-2.4 0-1.2-0.3-2.2-0.7-2.4l-9.2-3.4c-2.7-1-5.8 1.4-5.8 5.8 0 4.4 3.1 6.8 5.8 5.8zm9.7 12l4.1-8.9c0.1-0.4-0.4-1.3-1.3-2.2-0.8-0.8-1.7-1.4-2.1-1.2l-8.9 4.1c-2.7 1.2-3.1 5.1 0 8.2 3.1 3.1 6.9 2.7 8.2 0zm15.3 1.6l-3.4-9.2c-0.2-0.3-1.2-0.6-2.4-0.6-1.2 0-2.3 0.3-2.4 0.6l-3.4 9.2c-1 2.8 1.4 5.8 5.8 5.8 4.4 0 6.8-3 5.8-5.8zm12-9.6l-8.9-4.1c-0.4-0.2-1.3 0.4-2.2 1.2-0.8 0.8-1.4 1.8-1.2 2.2l4.1 8.9c1.2 2.6 5.1 3.1 8.2 0 3.1-3.1 2.6-7 0-8.2zm7.4-9.5c0-4.4-3-6.9-5.8-5.8l-9.2 3.4c-0.3 0.1-0.6 1.2-0.6 2.4 0 1.1 0.3 2.2 0.6 2.3l9.2 3.5c2.8 1 5.8-1.5 5.8-5.8z"/>
							</g>
							<g id="&lt;Group&gt;">
								<path id="&lt;Path&gt;" class="s6" d="m409.2 146c0-21.3-17.3-38.6-38.6-38.6-21.3 0-38.6 17.3-38.6 38.6 0 6.8 1.8 13.2 4.9 18.7h67.4c3.1-5.5 4.9-11.9 4.9-18.7z"/>
								<g id="&lt;Group&gt;">
									<g id="&lt;Group&gt;">
										<g id="&lt;Group&gt;">
											<g id="&lt;Group&gt;">
												<path id="&lt;Path&gt;" fill-rule="evenodd" class="s3" d="m370.6 180.6c-19.2 0-34.6-15.5-34.6-34.6 0-19.2 15.4-34.7 34.6-34.7 19.1 0 34.6 15.5 34.6 34.7 0 19.1-15.5 34.6-34.6 34.6z"/>
												<path id="&lt;Path&gt;" fill-rule="evenodd" class="s7" d="m370.6 175.6c-16.4 0-29.6-13.2-29.6-29.6 0-16.4 13.2-29.7 29.6-29.7 16.4 0 29.6 13.3 29.6 29.7 0 16.4-13.2 29.6-29.6 29.6z"/>
											</g>
										</g>
									</g>
								</g>
								<path id="&lt;Compound Path&gt;" fill-rule="evenodd" class="s3" d="m370.6 171.9c-14.4 0-26-11.6-26-25.9 0-14.4 11.6-26 26-26 14.4 0 26 11.6 26 26 0 14.3-11.6 25.9-26 25.9zm9.8-43.6l-4.1 8.9c-0.2 0.3 0.4 1.3 1.2 2.1 0.9 0.9 1.8 1.4 2.2 1.3l8.9-4.1c2.7-1.3 3.1-5.1 0-8.2-3.1-3.1-7-2.7-8.2 0zm-15.3-1.7l3.4 9.2c0.1 0.4 1.2 0.7 2.4 0.7 1.2 0 2.2-0.3 2.4-0.7l3.4-9.2c1-2.7-1.4-5.8-5.8-5.8-4.4 0-6.9 3.1-5.8 5.8zm-12 9.7l8.9 4.1c0.4 0.1 1.3-0.4 2.1-1.3 0.9-0.8 1.4-1.7 1.3-2.1l-4.1-8.9c-1.2-2.7-5.1-3.1-8.2 0-3.1 3.1-2.7 7 0 8.2zm-1.7 15.3l9.2-3.4c0.4-0.2 0.7-1.2 0.7-2.4 0-1.2-0.3-2.2-0.7-2.4l-9.2-3.4c-2.7-1-5.8 1.4-5.8 5.8 0 4.4 3.1 6.8 5.8 5.8zm9.7 12l4.1-8.9c0.2-0.4-0.4-1.3-1.2-2.2-0.9-0.8-1.8-1.4-2.2-1.2l-8.9 4.1c-2.7 1.2-3.1 5.1 0 8.2 3.1 3.1 7 2.7 8.2 0zm15.3 1.6l-3.4-9.2c-0.1-0.3-1.2-0.6-2.4-0.6-1.2 0-2.2 0.3-2.4 0.6l-3.4 9.2c-1 2.8 1.4 5.8 5.8 5.8 4.4 0 6.8-3 5.8-5.8zm12-9.6l-8.9-4.1c-0.4-0.2-1.3 0.4-2.2 1.2-0.8 0.8-1.4 1.8-1.2 2.2l4.1 8.9c1.2 2.6 5.1 3.1 8.2 0 3.1-3.1 2.7-7 0-8.2zm7.5-9.5c0-4.4-3.1-6.9-5.8-5.8l-9.3 3.4c-0.3 0.1-0.6 1.2-0.6 2.4 0 1.1 0.3 2.2 0.6 2.3l9.3 3.5c2.7 1 5.8-1.5 5.8-5.8z"/>
							</g>
							<path id="&lt;Path&gt;" class="s8" d="m442.6 102.8l-33 0.4c-1.3 0-1.5 1.4-0.4 3l7.1 11.3c0.7 1.2 2.2 2.3 3.4 2.5l37.9 6.2c-0.8-6.7-3.7-15.7-15-23.4z"/>
							<path id="&lt;Path&gt;" class="s9" d="m457.7 125.4c-0.7-3.3-2-12.6-12.8-21h-32.5c-1.4 0-1.6 1.2-0.7 2.7l5.6 9.1c0.6 1.1 2.1 2.1 3.3 2.4z"/>
							<path id="&lt;Path&gt;" class="s10" d="m418.7 104.5l-6.3-0.1c-1.4 0-1.6 1.2-0.7 2.7l5.6 9.1c0.6 1.1 2.1 2.1 3.3 2.4l9.3 1.7z"/>
							<path id="&lt;Path&gt;" class="s5" d="m459.4 139.5c0 2.6-2.1 4.7-4.7 4.7h-13.8c-2.6 0-4.7-2.1-4.7-4.7 0-2.6 2.1-4.7 4.7-4.7h13.8c2.6 0 4.7 2.1 4.7 4.7z"/>
							<path id="&lt;Path&gt;" class="s9" d="m450 139.3c0 2-1.7 3.7-3.7 3.7h-3.5c-2 0-3.6-1.7-3.6-3.7 0-2 1.6-3.6 3.6-3.6h3.5c2 0 3.7 1.6 3.7 3.6z"/>
							<path id="&lt;Path&gt;" class="s8" d="m11.2 99.5h7c4.3 0 8.6-3.5 9.6-7.9l1.5-6.9c0.9-4.3-1.9-7.9-6.2-7.9h-5.9c-2.4 5.2-4.4 13.6-6 22.7z"/>
							<path id="&lt;Path&gt;" class="s0" d="m11.5 97.5c1.6-8.2 3.2-14.5 5-18.7h6.6c1.5 0 2.7 0.5 3.5 1.5 0.8 1 1.1 2.4 0.7 4l-1.4 6.8c-0.8 3.5-4.3 6.4-7.8 6.4z"/>
							<path id="&lt;Path&gt;" class="s10" d="m12.8 91.4q-0.7 2.8-1.3 6.1h6.6c3.4 0 6.8-2.8 7.7-6.1z"/>
						</g>
						<path id="&lt;Path&gt;" class="s3" d="m333 70.8c-5-1.4-54.4-29.8-75.2-38.9-0.7-0.3-1.5-0.6-2.2-0.9l39.1 27.5c7 5 14.7 9.3 17.1 9.6 0 0 22.2 2.8 21.2 2.7z"/>
						<path id="&lt;Path&gt;" fill-rule="evenodd" class="s11" d="m184.7 68.8v80.3h-1v-80.3z"/>
						<path id="&lt;Path&gt;" class="s11" d="m288.5 149.1h-1l4.1-80.3h1z"/>
						<path id="&lt;Path&gt;" class="s11" d="m84.6 104c0.3 0.1 0.5 0.2 0.8 0.3l-6.6-40h-1l6.5 39.7q0.2 0 0.3 0z"/>
						<path id="&lt;Path&gt;" class="s3" d="m107.1 74.7c0 1.2-0.9 2.2-2.1 2.2h-17.8c-1.2 0-2.2-1-2.2-2.2 0-1.2 1-2.2 2.2-2.2h17.8c1.2 0 2.1 1 2.1 2.2z"/>
						<path id="&lt;Path&gt;" class="s3" d="m209.5 75c0 1.2-1 2.2-2.2 2.2h-17.8c-1.2 0-2.2-1-2.2-2.2 0-1.2 1-2.2 2.2-2.2h17.8c1.2 0 2.2 1 2.2 2.2z"/>
						<g id="&lt;Group&gt;">
							<path id="&lt;Path&gt;" class="s12" d="m75.5 107.2c11.7 0 22.2 5.5 29.7 14.1-6.1-11-17.1-18.4-29.7-18.4-12.7 0-23.7 7.4-29.7 18.4 7.4-8.6 17.9-14.1 29.7-14.1z"/>
						</g>
						<g id="&lt;Group&gt;">
							<path id="&lt;Path&gt;" class="s12" d="m370.6 104.1c11.7 0 22.3 5.5 29.7 14.1-6-11-17.1-18.4-29.7-18.4-12.6 0-23.7 7.4-29.7 18.4 7.4-8.6 18-14.1 29.7-14.1z"/>
						</g>
						<path id="&lt;Compound Path&gt;" fill-rule="evenodd" class="s13" d="m177.8 68.4l-82.4-1.7c-6.1-0.1-8.9-7.3-8-8 14.8-10.8 42.9-21 51.1-23.5 10.7-3.4 22.4-5.6 42.6-5.8zm97.3 1.5l-83-1.4-2.2-39.2c24.4 0.5 52 3.7 61.3 9 7.1 4.1 17.8 11.6 27.3 18.4 1.6 1.2-1.2 13.2-3.4 13.2zm19.7-12l-36.8-26c19.1 8.4 61.8 32.7 72.7 37.9-5.5-0.7-18.8-2.3-18.8-2.3-2.4-0.3-10-4.6-17.1-9.6z"/>
					</g>
					<g id="&lt;Group&gt;">
						<path id="&lt;Path&gt;" fill-rule="evenodd" class="s7" d="m224.3 92.4v10.3h-10.3v-10.3z"/>
						<path id="&lt;Path&gt;" class="s7" d="m204.3 102.7v-10.3h-10.3v10.3h9.8v9.7h-9.8v-9.7h-9.8v-10.3h-10.3v10.3h9.8v9.7h-9.8v-9.7h-9.8v-10.3h-10.2v10.3h9.8v9.7h-9.8v10.2h10.2v-9.7h9.8v9.7h10.3v-9.7h9.8v9.7h10.3v-9.7h9.7v9.7h10.3v-10.2h-10.3v-9.7z"/>
					</g>
					<path id="&lt;Path&gt;" class="s14" d="m239.7 7.3c-2.7-4.3-6.6-7.3-9.9-7.3h-83.4c-3.4 0-7.1 3-9.6 7.3z"/>
					<g id="&lt;Group&gt;">
						<path id="&lt;Path&gt;" fill-rule="evenodd" class="s7" d="m207.7 3.4v5.9h-6v-5.9z"/>
						<path id="&lt;Path&gt;" class="s7" d="m196.1 9.3v-5.9h-6v5.9h5.7v5.6h-5.7v-5.6h-5.6v-5.9h-5.9v5.9h5.6v5.6h-5.6v-5.6h-5.7v-5.9h-5.9v5.9h5.6v5.6h-5.6v6h5.9v-5.6h5.7v5.6h5.9v-5.6h5.6v5.6h6v-5.6h5.6v5.6h6v-6h-6v-5.6z"/>
					</g>
				</g>
				<path id="&lt;Compound Path&gt;" fill-rule="evenodd" class="s15" d="m179.8 45.1l-2 23.3-20.9-0.4zm-92.5 13.7c5.8-4.2 13.6-8.4 21.4-12l-18.1 18.1c-2.7-2.2-3.9-5.7-3.3-6.1zm60.2-26c5.4-1.3 11.4-2.2 18.7-2.8l-37.4 37.4-15.7-0.3zm44 25.7l-1.2-23.8 5-5.1c7.9 0.3 16 0.8 23.5 1.6q-13.6 13.6-27.3 27.3zm46.8 10.9l-26-0.4 33-33c2.4 0.7 4.4 1.6 5.9 2.4 3.2 1.8 7 4.3 11 7zm35.6-15.8q0.9 0.6 1.8 1.2l-14.9 15-3-0.1q8-8 16.1-16.1zm-73.8 15.2l-6.2-0.1 36-36q2.8 0.4 5.4 0.9zm94.8-10.7l-5.8-4.1q2-2.1 4-4.1 5 2.7 9.7 5.2l-4.9 5q-1.5-1-3-2zm35.9 11.9c-5.5-0.7-18.8-2.4-18.8-2.4-1.1-0.1-3.5-1.2-6.4-2.8q2.7-2.6 5.4-5.3c8.8 4.8 16.1 8.8 19.8 10.5z"/>
			</g>
			<g id="&lt;Group&gt;" style="opacity: .6">
				<path id="&lt;Path&gt;" class="s16" d="m41.7 127.3h-29.5c-6.5 0-11.8 5.4-11.8 11.9v13.8c0 4.1-0.1 7.7 1.5 9.8q0-0.8 0-1.7v-13.7c0-6.6 5.2-11.9 11.8-11.9h24.7q1.2-4.3 3.3-8.2z"/>
			</g>
			<g id="&lt;Group&gt;">
				<path id="&lt;Path&gt;" class="s14" d="m117.8 139.6c-0.3 2.8-1 11.5-1 11.5l210.9-2c-3.7-2.7-209.9-9.5-209.9-9.5z"/>
				<path id="&lt;Path&gt;" class="s14" d="m451.5 127.3h-47.1c1.4 2.6 50.2 4.5 50.2 4.5 5.8 0 7 4.7 8.6 8.2-0.5-10.1-2.8-12.7-11.7-12.7z"/>
			</g>
			<g id="&lt;Group&gt;" style="opacity: .6">
				<path id="&lt;Path&gt;" class="s9" d="m426.6 92c-8.7-3.1-84.5-20.9-93.6-21.2-5-1.4-64.2-35.4-85.3-43.6-6-2.3-115.1-3.4-118.2-1.7-10 5.6-47.2 19.2-75.3 36.9-6.4 4-31.4 7-35 11.8-5.4 7.2-9.6 33.7-12 53.2h0.6c2.5-16.6 6.4-36.8 11.4-42.7 3.6-4.1 51.1-13.5 56-18.8 12.5-13.9 56.9-30.1 67.7-32.9 24.5-6.3 61.1-6.3 100.2 1.4 14.8 2.3 52.1 36.1 64.9 40.2 23.1 5.5 93.4 19.3 102 22 10.1 3.1 40.8 18.2 46.6 30.8h1.7c-4.2-16.1-20.5-31.5-31.7-35.4z"/>
			</g>
		</g>
		<g id="&lt;Group&gt;">
			<path id="&lt;Path&gt;" class="s17" d="m75.5 115.4c18.4 0 33.4 14.4 34.5 32.6 0-0.7 0.1-1.4 0.1-2 0-19.2-15.5-34.7-34.6-34.7-19.2 0-34.7 15.5-34.7 34.7 0 0.6 0.1 1.3 0.1 2 1.1-18.2 16.1-32.6 34.6-32.6z"/>
			<path id="&lt;Path&gt;" class="s17" d="m75.5 175.9c-15.9 0.4-28.9-11.7-29.8-27.4q0 0.5-0.1 1c0.5 16.1 13.6 28.7 29.9 28.3 16.2-0.4 29.4-13.7 29.8-29.8q0-0.5-0.1-1c-0.9 15.7-13.8 28.5-29.7 28.9z"/>
		</g>
		<g id="&lt;Group&gt;">
			<path id="&lt;Path&gt;" class="s17" d="m370.4 115.4c18.4 0 33.5 14.4 34.5 32.6 0.1-0.7 0.1-1.4 0.1-2 0-19.2-15.5-34.7-34.6-34.7-19.1 0-34.6 15.5-34.6 34.7 0 0.6 0 1.3 0.1 2 1-18.2 16.1-32.6 34.5-32.6z"/>
			<path id="&lt;Path&gt;" class="s17" d="m370.4 175.9c-15.9 0.4-28.9-11.7-29.8-27.4q0 0.5 0 1c0.4 16.1 13.6 28.7 29.8 28.3 16.2-0.4 29.4-13.7 29.8-29.8q0-0.5 0-1c-0.9 15.7-13.9 28.5-29.8 28.9z"/>
		</g>
	</g>
</svg>