<svg version="1.2" xmlns="http://www.w3.org/2000/svg" viewBox="0 0 466 174" width="466" height="174">
	<title>-e-3</title>
	<style>
		.s0 { fill: #f2f2f2 } 
		.s1 { fill: #2a2a2b } 
		.s2 { fill: #327bcc } 
		.s3 { fill: #1e5384 } 
		.s4 { fill: #091119 } 
		.s5 { opacity: .3;fill: #091119 } 
		.s6 { fill: #ffffff } 
		.s7 { fill: #f49625 } 
		.s8 { fill: #db3535 } 
		.s9 { opacity: .3;fill: #2a2a2b } 
		.s10 { fill: #2453bd } 
		.s11 { fill: #477fe2 } 
		.s12 { opacity: .2;fill: #f9f9f9 } 
		.s13 { fill: #80c2dc } 
		.s14 { opacity: .7;fill: #ffffff } 
		.s15 { opacity: .6;fill: #ffffff } 
		.s16 { opacity: .6;fill: #ededed } 
		.s17 { opacity: .2;fill: #ededed } 
	</style>
	<g id="-e-3">
		<g id="&lt;Group&gt;">
			<g id="&lt;Group&gt;">
				<g id="&lt;Group&gt;">
					<g id="&lt;Group&gt;">
						<path id="&lt;Path&gt;" class="s0" d="m459.4 141.3l1.1-18.1c-2.2-17.4-20.4-35-32.5-39.2-8.6-3.1-84.5-20.9-93.6-21.2-4.9-1.4-54.3-29.8-75.1-38.9-40.6-17.7-120.6-6.9-134.5-2.8-11 3.3-41 15.6-69.2 33.3-6.3 4-31.3 7-34.9 11.8-8.9 11.8-14.4 75.1-14.4 75.1-1 8.3 4 15.2 11 15.2h397.6c7.1 0 47.6-6.9 44.5-15.2z"/>
						<path id="&lt;Path&gt;" class="s1" d="m289.7 62.9c6.8 0.1 6.8-3.3-4.5-11.4-10.4-7.5-23.7-17.1-32.1-21.8-9.8-5.7-39-9-65-9.2-22.3-0.1-36.6 2.2-48.4 5.9-8.1 2.5-43.3 15.4-58.7 27.3-2.1 1.7-4.3 5.7 6.3 5.9 21.9 0.3 137.6 2.2 202.4 3.3z"/>
						<path id="&lt;Path&gt;" class="s2" d="m464.8 145v-7.1c0-15.1-1.4-18.6-11.9-18.6h-69.7v9.8c0 6.6-5.3 11.9-11.9 11.9l-269.8-11.5c-6.5 0-11.5 6.2-11.5-0.4v-9.8h-76.3c-6.5 0-11.8 5.4-11.8 11.9v13.8c0 6.5-0.2 11.8 6.3 11.8h419.3c20.3 0 37.3-5.3 37.3-11.8z"/>
						<path id="&lt;Path&gt;" class="s2" d="m119.9 139.1c0-23.7-19.3-43-43-43-23.6 0-42.9 19.3-42.9 43 0 6 1.3 11.8 3.6 17h78.7c2.3-5.2 3.6-11 3.6-17z"/>
						<path id="&lt;Path&gt;" class="s2" d="m415 139.1c0-23.7-19.2-43-42.9-43-23.7 0-43 19.3-43 43 0 6 1.3 11.8 3.6 17h78.8c2.2-5.2 3.5-11 3.5-17z"/>
						<path id="&lt;Path&gt;" class="s3" d="m427.5 149.1h-419.3c-6 0-6.3-4.5-6.3-10.3v6.2c0 6.5-0.2 11.8 6.3 11.8h419.3c20.3 0 37.3-5.3 37.3-11.8v-7.1q0-0.3 0-0.7c-0.1 6.6-17 11.9-37.3 11.9z"/>
						<path id="&lt;Path&gt;" class="s2" d="m410.2 119.4c-6.9-8.8-27.3-22.3-35.8-23.2-4.1-0.4-357.2-21.7-357.2-21.7-2.4 7-4.4 17.1-6 27.2z"/>
						<g id="&lt;Group&gt;">
							<path id="&lt;Path&gt;" class="s4" d="m115.5 138c0-21.3-17.3-38.6-38.6-38.6-21.2 0-38.5 17.3-38.5 38.6 0 6.8 1.7 13.2 4.9 18.7h67.3c3.1-5.5 4.9-11.9 4.9-18.7z"/>
							<g id="&lt;Group&gt;">
								<g id="&lt;Group&gt;">
									<g id="&lt;Group&gt;">
										<g id="&lt;Group&gt;">
											<path id="&lt;Path&gt;" fill-rule="evenodd" class="s1" d="m76.9 172.6c-19.1 0-34.6-15.5-34.6-34.6 0-19.2 15.5-34.7 34.6-34.7 19.2 0 34.7 15.5 34.7 34.7 0 19.1-15.5 34.6-34.7 34.6z"/>
											<path id="&lt;Path&gt;" fill-rule="evenodd" class="s4" d="m76.9 167.6c-16.3 0-29.6-13.2-29.6-29.6 0-16.4 13.3-29.7 29.6-29.7 16.4 0 29.7 13.3 29.7 29.7 0 16.4-13.3 29.6-29.7 29.6z"/>
										</g>
									</g>
								</g>
							</g>
							<path id="&lt;Compound Path&gt;" fill-rule="evenodd" class="s1" d="m76.9 163.9c-14.3 0-25.9-11.6-25.9-25.9 0-14.4 11.6-26 25.9-26 14.4 0 26 11.6 26 26 0 14.3-11.6 25.9-26 25.9zm9.8-43.6l-4.1 8.9c-0.1 0.3 0.4 1.3 1.3 2.1 0.8 0.9 1.8 1.4 2.1 1.3l8.9-4.1c2.7-1.3 3.1-5.1 0-8.2-3.1-3.1-6.9-2.7-8.2 0zm-15.3-1.7l3.4 9.2c0.2 0.4 1.2 0.7 2.4 0.7 1.2 0 2.3-0.3 2.4-0.7l3.4-9.2c1-2.7-1.4-5.8-5.8-5.8-4.4 0-6.8 3.1-5.8 5.8zm-12 9.7l8.9 4.1c0.4 0.1 1.4-0.4 2.2-1.3 0.8-0.8 1.4-1.7 1.2-2.1l-4.1-8.9c-1.2-2.7-5.1-3.1-8.2 0-3.1 3.1-2.6 7 0 8.2zm-1.6 15.3l9.2-3.4c0.4-0.2 0.6-1.2 0.6-2.4 0-1.2-0.2-2.2-0.6-2.4l-9.2-3.4c-2.8-1-5.8 1.4-5.8 5.8 0 4.4 3 6.8 5.8 5.8zm9.6 12l4.1-8.9c0.2-0.4-0.4-1.3-1.2-2.2-0.8-0.8-1.8-1.4-2.1-1.2l-9 4.1c-2.6 1.2-3.1 5.1 0 8.2 3.2 3.1 7 2.7 8.2 0zm15.4 1.6l-3.4-9.2c-0.2-0.3-1.2-0.6-2.4-0.6-1.2 0-2.3 0.3-2.4 0.6l-3.4 9.2c-1.1 2.8 1.4 5.8 5.8 5.8 4.4 0 6.8-3 5.8-5.8zm12-9.6l-9-4.1c-0.3-0.2-1.3 0.4-2.1 1.2-0.8 0.8-1.4 1.8-1.2 2.2l4.1 8.9c1.2 2.6 5.1 3.1 8.2 0 3.1-3.1 2.6-7 0-8.2zm7.4-9.5c0-4.4-3-6.9-5.8-5.8l-9.2 3.4c-0.4 0.1-0.6 1.2-0.6 2.4 0 1.1 0.2 2.2 0.6 2.3l9.2 3.5c2.8 1 5.8-1.5 5.8-5.8z"/>
						</g>
						<g id="&lt;Group&gt;">
							<path id="&lt;Path&gt;" class="s4" d="m410.7 138c0-21.3-17.4-38.6-38.6-38.6-21.3 0-38.6 17.3-38.6 38.6 0 6.8 1.8 13.2 4.9 18.7h67.4c3.1-5.5 4.9-11.9 4.9-18.7z"/>
							<g id="&lt;Group&gt;">
								<g id="&lt;Group&gt;">
									<g id="&lt;Group&gt;">
										<g id="&lt;Group&gt;">
											<path id="&lt;Path&gt;" fill-rule="evenodd" class="s1" d="m372.1 172.6c-19.2 0-34.7-15.5-34.7-34.6 0-19.2 15.5-34.7 34.7-34.7 19.1 0 34.6 15.5 34.6 34.7 0 19.1-15.5 34.6-34.6 34.6z"/>
											<path id="&lt;Path&gt;" fill-rule="evenodd" class="s4" d="m372.1 167.6c-16.4 0-29.7-13.2-29.7-29.6 0-16.4 13.3-29.7 29.7-29.7 16.4 0 29.6 13.3 29.6 29.7 0 16.4-13.2 29.6-29.6 29.6z"/>
										</g>
									</g>
								</g>
							</g>
							<path id="&lt;Compound Path&gt;" fill-rule="evenodd" class="s1" d="m372.1 163.9c-14.4 0-26-11.6-26-25.9 0-14.4 11.6-26 26-26 14.3 0 25.9 11.6 25.9 26 0 14.3-11.6 25.9-25.9 25.9zm9.8-43.6l-4.1 8.9c-0.2 0.3 0.4 1.3 1.2 2.1 0.8 0.9 1.8 1.4 2.1 1.3l9-4.1c2.6-1.3 3.1-5.1 0-8.2-3.1-3.1-7-2.7-8.2 0zm-15.4-1.7l3.5 9.2c0.1 0.4 1.2 0.7 2.3 0.7 1.2 0 2.3-0.3 2.4-0.7l3.4-9.2c1.1-2.7-1.4-5.8-5.8-5.8-4.3 0-6.8 3.1-5.8 5.8zm-12 9.7l9 4.1c0.3 0.1 1.3-0.4 2.1-1.3 0.9-0.8 1.4-1.7 1.2-2.1l-4-8.9c-1.3-2.7-5.1-3.1-8.3 0-3.1 3.1-2.6 7 0 8.2zm-1.6 15.3l9.2-3.4c0.4-0.2 0.7-1.2 0.7-2.4 0-1.2-0.3-2.2-0.7-2.4l-9.2-3.4c-2.7-1-5.8 1.4-5.8 5.8 0 4.4 3.1 6.8 5.8 5.8zm9.7 12l4.1-8.9c0.1-0.4-0.4-1.3-1.3-2.2-0.8-0.8-1.7-1.4-2.1-1.2l-8.9 4.1c-2.7 1.2-3.1 5.1 0 8.2 3.1 3.1 7 2.7 8.2 0zm15.3 1.6l-3.4-9.2c-0.2-0.3-1.2-0.6-2.4-0.6-1.2 0-2.3 0.3-2.4 0.6l-3.4 9.2c-1 2.8 1.4 5.8 5.8 5.8 4.4 0 6.8-3 5.8-5.8zm12-9.6l-8.9-4.1c-0.4-0.2-1.3 0.4-2.2 1.2-0.8 0.8-1.4 1.8-1.2 2.2l4.1 8.9c1.2 2.6 5.1 3.1 8.2 0 3.1-3.1 2.6-7 0-8.2zm7.4-9.5c0-4.4-3-6.9-5.8-5.8l-9.2 3.4c-0.3 0.1-0.6 1.2-0.6 2.4 0 1.1 0.3 2.2 0.6 2.3l9.2 3.5c2.8 1 5.8-1.5 5.8-5.8z"/>
						</g>
						<path id="&lt;Path&gt;" class="s5" d="m444.1 94.8l-33.1 0.4c-1.2 0-1.4 1.4-0.3 3l7.1 11.3c0.7 1.2 2.2 2.3 3.4 2.5l37.9 6.2c-0.9-6.7-3.8-15.7-15-23.4z"/>
						<path id="&lt;Path&gt;" class="s6" d="m459.1 117.4c-0.6-3.3-2-12.6-12.8-21h-32.5c-1.3 0-1.6 1.2-0.7 2.7l5.6 9.1c0.7 1.1 2.2 2.1 3.4 2.4z"/>
						<path id="&lt;Path&gt;" class="s7" d="m420.2 96.5l-6.4-0.1c-1.3 0-1.6 1.2-0.7 2.7l5.6 9.1c0.7 1.1 2.2 2.1 3.4 2.4l9.3 1.7z"/>
						<path id="&lt;Path&gt;" class="s3" d="m460.8 131.5c0 2.6-2.1 4.7-4.7 4.7h-13.7c-2.6 0-4.7-2.1-4.7-4.7 0-2.6 2.1-4.7 4.7-4.7h13.7c2.6 0 4.7 2.1 4.7 4.7z"/>
						<path id="&lt;Path&gt;" class="s6" d="m451.4 131.3c0 2-1.6 3.7-3.6 3.7h-3.5c-2 0-3.6-1.7-3.6-3.7 0-2 1.6-3.6 3.6-3.6h3.5c2 0 3.6 1.6 3.6 3.6z"/>
						<path id="&lt;Path&gt;" class="s5" d="m12.6 91.5h7c4.4 0 8.7-3.5 9.7-7.9l1.5-6.9c0.9-4.3-1.9-7.9-6.3-7.9h-5.8c-2.4 5.2-4.4 13.6-6.1 22.7z"/>
						<path id="&lt;Path&gt;" class="s8" d="m13 89.5c1.6-8.2 3.2-14.5 4.9-18.7h6.7c1.4 0 2.7 0.5 3.5 1.5 0.8 1 1.1 2.4 0.7 4l-1.5 6.8c-0.7 3.5-4.3 6.4-7.7 6.4z"/>
						<path id="&lt;Path&gt;" class="s7" d="m14.3 83.4q-0.7 2.8-1.3 6.1h6.6c3.4 0 6.8-2.8 7.7-6.1z"/>
					</g>
					<path id="&lt;Path&gt;" class="s1" d="m334.4 62.8c-4.9-1.4-54.3-29.8-75.1-38.9-0.7-0.3-1.5-0.6-2.2-0.9l39 27.5c7.1 5 14.8 9.3 17.1 9.6 0 0 22.3 2.8 21.2 2.7z"/>
					<path id="&lt;Path&gt;" class="s9" d="m186.2 133.1q0 0 0 0v-72.3h-1v72.3q0.5 0 1 0z"/>
					<path id="&lt;Path&gt;" class="s9" d="m290.2 137.4l3.9-76.6h-1l-3.9 76.6q0.5-0.1 1 0z"/>
					<path id="&lt;Path&gt;" class="s9" d="m86.1 96c0.3 0.1 0.5 0.2 0.8 0.3l-6.6-40h-1l6.5 39.7q0.2 0 0.3 0z"/>
					<path id="&lt;Path&gt;" class="s1" d="m212.2 8.1c0 3.3-2.7 6-6 6h-24.2c-3.3 0-6-2.7-6-6 0-3.4 2.7-6.1 6-6.1h24.2c3.3 0 6 2.7 6 6.1z"/>
					<path id="&lt;Path&gt;" class="s10" d="m211.9 6.1c0 3-2.4 5.4-5.4 5.4h-25c-2.9 0-5.4-2.4-5.4-5.4 0-3 2.5-5.4 5.4-5.4h25c3 0 5.4 2.4 5.4 5.4z"/>
					<path id="&lt;Path&gt;" fill-rule="evenodd" class="s11" d="m202.5 0.7v10.8h-16.6v-10.8z"/>
					<path id="&lt;Path&gt;" class="s1" d="m108.6 66.7c0 1.2-1 2.2-2.2 2.2h-17.7c-1.2 0-2.2-1-2.2-2.2 0-1.2 1-2.2 2.2-2.2h17.7c1.2 0 2.2 1 2.2 2.2z"/>
					<path id="&lt;Path&gt;" class="s1" d="m211 67c0 1.2-1 2.2-2.2 2.2h-17.8c-1.2 0-2.2-1-2.2-2.2 0-1.2 1-2.2 2.2-2.2h17.8c1.2 0 2.2 1 2.2 2.2z"/>
					<g id="&lt;Group&gt;">
						<path id="&lt;Path&gt;" class="s12" d="m76.9 99.2c11.8 0 22.3 5.5 29.7 14.1-6-11-17-18.4-29.7-18.4-12.6 0-23.6 7.4-29.6 18.4 7.4-8.6 17.9-14.1 29.6-14.1z"/>
					</g>
					<g id="&lt;Group&gt;">
						<path id="&lt;Path&gt;" class="s12" d="m372.1 96.1c11.7 0 22.2 5.5 29.7 14.1-6-11-17.1-18.4-29.7-18.4-12.7 0-23.7 7.4-29.7 18.4 7.4-8.6 17.9-14.1 29.7-14.1z"/>
					</g>
					<path id="&lt;Compound Path&gt;" fill-rule="evenodd" class="s13" d="m179.3 60.4l-82.4-1.7c-6.1-0.1-8.9-7.3-8.1-8 14.9-10.8 43-21 51.2-23.5 10.7-3.4 22.3-5.6 42.6-5.8zm97.3 1.5l-83.1-1.4-2.1-39.2c24.3 0.5 52 3.7 61.3 9 7.1 4.1 17.8 11.6 27.3 18.4 1.6 1.2-1.2 13.2-3.4 13.2zm19.7-12l-36.8-26c19.1 8.4 61.8 32.7 72.7 37.9-5.5-0.7-18.8-2.3-18.8-2.3-2.4-0.3-10-4.6-17.1-9.6z"/>
				</g>
				<path id="&lt;Path&gt;" class="s14" d="m164.2 60.1l15.1 0.3 1.4-16.9z"/>
				<path id="&lt;Path&gt;" class="s14" d="m109.3 59l7.7 0.1 35.1-35c-3.8 0.7-7.2 1.6-10.4 2.6z"/>
				<path id="&lt;Path&gt;" class="s14" d="m96.9 58.7h0.2l25.1-25c-11.2 4.5-24.6 10.6-33.4 17-0.8 0.7 2 7.9 8.1 8z"/>
				<path id="&lt;Path&gt;" class="s14" d="m199.8 60.7q17.7-17.8 35.4-35.5c-9.4-1.7-21.1-2.9-32.7-3.4q-5.2 5.2-10.5 10.4l1.5 28.4z"/>
				<path id="&lt;Path&gt;" class="s14" d="m255.8 32.2q-1.6-1-3.1-1.8c-1.8-1.1-4.3-2-7.3-2.9l-33.3 33.4 14.8 0.2z"/>
				<path id="&lt;Path&gt;" class="s14" d="m275.4 45.5l-16.2 16.1 17.4 0.3c2.2 0 5-12 3.4-13.1-1.5-1.1-3.1-2.2-4.6-3.3z"/>
				<path id="&lt;Path&gt;" class="s14" d="m284.5 36.4l-3.1 3 14.9 10.5c7.1 5 14.7 9.3 17.1 9.6 0 0 13.3 1.7 18.8 2.4-7.2-3.5-28.6-15.4-47.7-25.5z"/>
			</g>
			<path id="&lt;Path&gt;" class="s15" d="m77.9 65.2c-20.8-11.7 54.8-39.5 65.8-42.2 14-3.3 69.5-9.6 110 4.8 20.8 7.4 52.1 41.7 57 42.9 9.1 0.3 101.6 19.7 110.3 22.2 9.9 2.9 31.1 9.8 37 21.2-5.9-14.1-20-26.6-30-30.1-8.6-3.1-84.5-20.9-93.6-21.2-4.9-1.4-54.3-29.8-75.1-38.9-40.6-17.7-120.6-6.9-134.5-2.8-11 3.3-41 15.6-69.2 33.3-6.3 4-31.3 7-34.9 11.8-5 6.6-8.9 29.2-11.3 47.9 2.4-15.2 6.3-33.6 11.3-39 3.6-3.9 63.4-6.5 57.2-9.9z"/>
			<path id="&lt;Path&gt;" class="s16" d="m181.5 4.7h25c2.3 0 4.2 1.4 5 3.4q0.4-0.9 0.4-2c0-3-2.4-5.4-5.4-5.4h-25c-2.9 0-5.4 2.4-5.4 5.4q0 1.1 0.4 2c0.8-2 2.8-3.4 5-3.4z"/>
			<path id="&lt;Path&gt;" class="s15" d="m30.8 76.1c23.9 6.2 23.9 6.2 23.9 6.2 0 0 228.2 19.4 284.5 11.5-88.6-7.4-308.4-17.7-308.4-17.7z"/>
			<path id="&lt;Path&gt;" class="s16" d="m335.1 149.1c-1-3.5-1.6-7.3-1.6-11.1 0-21.3 17.3-38.6 38.6-38.6 21.2 0 38.6 17.3 38.6 38.6 0 3.8-0.6 7.6-1.7 11.1h1c2.4-5.2 3.7-11 3.7-17 0-23-18.7-41.7-41.6-41.7-23 0-41.7 18.7-41.7 41.7 0 6 1.4 11.8 3.7 17z"/>
			<path id="&lt;Path&gt;" class="s15" d="m2.5 140.3c0-6.5 5.2-13 11.5-14.5l28.7-6.5h-29c-6.5 0-11.8 5.4-11.8 11.9v7.6c0 2.4 0.1 4.6 0.6 6.4z"/>
			<path id="&lt;Path&gt;" class="s15" d="m333.7 141.3q-0.1-0.9-0.1-1.9l-218.9-9.3q0.8 3.8 0.8 7.9 0 0 0 0.1z"/>
		</g>
		<g id="&lt;Group&gt;">
			<path id="&lt;Path&gt;" class="s17" d="m372.1 106.9c18.4 0 33.4 14.5 34.5 32.7 0-0.7 0.1-1.4 0.1-2.1 0-19.1-15.5-34.6-34.6-34.6-19.2 0-34.7 15.5-34.7 34.6 0 0.7 0.1 1.4 0.1 2.1 1.1-18.2 16.1-32.7 34.6-32.7z"/>
			<path id="&lt;Path&gt;" class="s17" d="m372.1 167.5c-15.9 0.4-28.9-11.8-29.8-27.4q0 0.5 0 1c0.4 16.1 13.5 28.7 29.8 28.3 16.2-0.4 29.4-13.7 29.8-29.8q0-0.5-0.1-1c-0.9 15.7-13.8 28.5-29.7 28.9z"/>
		</g>
		<g id="&lt;Group&gt;">
			<path id="&lt;Path&gt;" class="s17" d="m77.1 107.1c18.5 0 33.5 14.4 34.6 32.6 0-0.7 0.1-1.3 0.1-2 0-19.1-15.5-34.6-34.7-34.6-19.1 0-34.6 15.5-34.6 34.6 0 0.7 0.1 1.3 0.1 2 1.1-18.2 16.1-32.6 34.5-32.6z"/>
			<path id="&lt;Path&gt;" class="s17" d="m77.1 167.6c-15.9 0.4-28.8-11.7-29.7-27.4q-0.1 0.5-0.1 1c0.4 16.1 13.6 28.8 29.8 28.4 16.3-0.5 29.5-13.7 29.9-29.9q-0.1-0.5-0.1-1c-0.9 15.7-13.9 28.5-29.8 28.9z"/>
		</g>
	</g>
</svg>