<svg version="1.2" xmlns="http://www.w3.org/2000/svg" viewBox="0 0 464 156" width="464" height="156">
	<title>-e-4</title>
	<style>
		.s0 { fill: #80c2dc } 
		.s1 { fill: #c8e064 } 
		.s2 { fill: #b2c443 } 
		.s3 { fill: #2a2a2b } 
		.s4 { fill: #070707 } 
		.s5 { fill: #091119 } 
		.s6 { fill: #dcdfe2 } 
		.s7 { opacity: .3;fill: #124f2a } 
		.s8 { fill: #0d5e56 } 
		.s9 { opacity: .7;fill: #ffffff } 
		.s10 { fill: #f9f9f9 } 
		.s11 { fill: #f49625 } 
		.s12 { fill: #124f2a } 
		.s13 { fill: #db3535 } 
		.s14 { opacity: .6;fill: #ffffff } 
		.s15 { opacity: .2;fill: #ededed } 
	</style>
	<g id="-e-4">
		<g id="&lt;Group&gt;">
			<path id="&lt;Path&gt;" class="s0" d="m51.2 26.1c-19.7 14.6-33.5 29.2-30.8 32.7 2.6 3.5 20.7-5.5 40.4-20 19.6-14.6 33.4-29.3 30.8-32.8-2.7-3.5-20.8 5.5-40.4 20.1z"/>
			<path id="&lt;Path&gt;" class="s0" d="m366.6 56.2c-12.9-5.3-118.7-45.2-118.7-45.2-4.4-2.1-10.7-3.6-14.4-3.5l-40.6 1.6c0 0 32.5 52.4 56.9 53.5l116.6-2.2q0.2-2.1 0.2-4.2z"/>
			<path id="&lt;Path&gt;" class="s1" d="m459.6 124l-0.5-17.5c-2.2-17.4-9.8-27.7-26.8-34.2-8.6-3.3-58.9-17.2-68-17.5-16.8 1.3-100.3-35-120.7-44.8-8.2-3.9-25.2-8.8-51.6-8.8-25.8 0-80.4-2.3-99.1 2.4-14.3 3.7-55.9 31.6-71.8 52.8-8.9 11.9-14.7 67.6-14.7 67.6-0.9 8.3 4 15.2 11.1 15.2h397.6c7.1 0 47.6-6.9 44.5-15.2z"/>
			<path id="&lt;Path&gt;" class="s2" d="m463.9 128v-7c0-15.1-1.4-18.6-11.8-18.6h-69.8v9.8c0 6.5-5.3 11.9-11.9 11.9h-269.4c-6.5 0-11.8-5.4-11.8-11.9v-9.8h-76.4c-6.5 0-11.8 5.3-11.8 11.9v13.7c0 6.6-0.2 11.9 6.3 11.9h419.4c20.3 0 37.2-5.3 37.2-11.9z"/>
			<path id="&lt;Path&gt;" class="s2" d="m119 122.1c0-23.6-19.2-42.9-42.9-42.9-23.7 0-43 19.3-43 42.9 0 6.1 1.3 11.9 3.6 17.1h78.8c2.2-5.2 3.5-11 3.5-17.1z"/>
			<path id="&lt;Path&gt;" class="s2" d="m414.1 122.1c0-23.6-19.2-42.9-42.9-42.9-23.7 0-43 19.3-43 42.9 0 6.1 1.3 11.9 3.6 17.1h78.8c2.3-5.2 3.5-11 3.5-17.1z"/>
			<path id="&lt;Path&gt;" class="s3" d="m426.7 132.1h-419.4c-6 0-6.3-4.5-6.3-10.3v6.2c0 6.6-0.2 11.9 6.3 11.9h419.4c20.3 0 37.2-5.3 37.2-11.9v-7q0-0.4 0-0.7c-0.1 6.5-17 11.8-37.2 11.8z"/>
			<g id="&lt;Group&gt;">
				<path id="&lt;Path&gt;" class="s4" d="m114.7 121c0-21.2-17.4-38.6-38.6-38.6-21.3 0-38.6 17.4-38.6 38.6 0 6.8 1.8 13.2 4.9 18.8h67.4c3.1-5.6 4.9-12 4.9-18.8z"/>
				<g id="&lt;Group&gt;">
					<g id="&lt;Group&gt;">
						<g id="&lt;Group&gt;">
							<g id="&lt;Group&gt;">
								<path id="&lt;Path&gt;" fill-rule="evenodd" class="s3" d="m76.1 155.7c-19.2 0-34.7-15.5-34.7-34.7 0-19.1 15.5-34.6 34.7-34.6 19.1 0 34.6 15.5 34.6 34.6 0 19.2-15.5 34.7-34.6 34.7z"/>
								<path id="&lt;Path&gt;" fill-rule="evenodd" class="s5" d="m76.1 150.7c-16.4 0-29.7-13.3-29.7-29.7 0-16.4 13.3-29.6 29.7-29.6 16.4 0 29.6 13.2 29.6 29.6 0 16.4-13.2 29.7-29.6 29.7z"/>
							</g>
						</g>
					</g>
				</g>
				<path id="&lt;Compound Path&gt;" fill-rule="evenodd" class="s6" d="m76.1 147c-14.4 0-26-11.6-26-26 0-14.3 11.6-26 26-26 14.3 0 25.9 11.7 25.9 26 0 14.4-11.6 26-25.9 26zm9.8-43.7l-4.1 8.9c-0.2 0.4 0.4 1.3 1.2 2.2 0.8 0.8 1.8 1.4 2.1 1.2l9-4.1c2.6-1.2 3.1-5.1 0-8.2-3.1-3.1-7-2.6-8.2 0zm-15.4-1.6l3.5 9.2c0.1 0.4 1.2 0.6 2.3 0.6 1.2 0 2.3-0.2 2.4-0.6l3.4-9.2c1.1-2.8-1.4-5.8-5.8-5.8-4.3 0-6.8 3-5.8 5.8zm-12 9.6l9 4.1c0.3 0.2 1.3-0.4 2.1-1.2 0.9-0.8 1.4-1.8 1.2-2.1l-4.1-9c-1.2-2.6-5-3.1-8.2 0-3.1 3.1-2.6 7 0 8.2zm-1.6 15.4l9.2-3.5c0.4-0.1 0.7-1.2 0.7-2.3 0-1.2-0.3-2.3-0.7-2.4l-9.2-3.4c-2.7-1.1-5.8 1.4-5.8 5.8 0 4.4 3.1 6.8 5.8 5.8zm9.7 12l4.1-9c0.1-0.3-0.4-1.3-1.3-2.1-0.8-0.8-1.7-1.4-2.1-1.2l-8.9 4.1c-2.7 1.2-3.1 5.1 0 8.2 3.1 3.1 6.9 2.6 8.2 0zm15.3 1.6l-3.4-9.2c-0.2-0.4-1.2-0.6-2.4-0.6-1.2 0-2.3 0.2-2.4 0.6l-3.4 9.2c-1 2.8 1.4 5.8 5.8 5.8 4.4 0 6.8-3 5.8-5.8zm12-9.7l-8.9-4.1c-0.4-0.1-1.3 0.4-2.2 1.3-0.8 0.8-1.4 1.8-1.2 2.1l4.1 8.9c1.2 2.7 5.1 3.1 8.2 0 3.1-3.1 2.6-6.9 0-8.2zm7.4-9.5c0-4.4-3-6.8-5.8-5.8l-9.2 3.4c-0.3 0.2-0.6 1.2-0.6 2.4 0 1.2 0.3 2.3 0.6 2.4l9.2 3.4c2.8 1 5.8-1.4 5.8-5.8z"/>
			</g>
			<g id="&lt;Group&gt;">
				<path id="&lt;Path&gt;" class="s4" d="m409.8 121c0-21.2-17.3-38.6-38.6-38.6-21.3 0-38.6 17.4-38.6 38.6 0 6.8 1.8 13.2 4.9 18.8h67.4c3.1-5.6 4.9-12 4.9-18.8z"/>
				<g id="&lt;Group&gt;">
					<g id="&lt;Group&gt;">
						<g id="&lt;Group&gt;">
							<g id="&lt;Group&gt;">
								<path id="&lt;Path&gt;" fill-rule="evenodd" class="s3" d="m371.2 155.7c-19.2 0-34.6-15.5-34.6-34.7 0-19.1 15.4-34.6 34.6-34.6 19.1 0 34.6 15.5 34.6 34.6 0 19.2-15.5 34.7-34.6 34.7z"/>
								<path id="&lt;Path&gt;" fill-rule="evenodd" class="s5" d="m371.2 150.7c-16.4 0-29.6-13.3-29.6-29.7 0-16.4 13.2-29.6 29.6-29.6 16.4 0 29.6 13.2 29.6 29.6 0 16.4-13.2 29.7-29.6 29.7z"/>
							</g>
						</g>
					</g>
				</g>
				<path id="&lt;Compound Path&gt;" fill-rule="evenodd" class="s6" d="m371.2 147c-14.4 0-26-11.6-26-26 0-14.3 11.6-26 26-26 14.4 0 26 11.7 26 26 0 14.4-11.6 26-26 26zm9.8-43.7l-4.1 8.9c-0.2 0.4 0.4 1.3 1.2 2.2 0.9 0.8 1.8 1.4 2.2 1.2l8.9-4.1c2.7-1.2 3.1-5.1 0-8.2-3.1-3.1-7-2.6-8.2 0zm-15.3-1.6l3.4 9.2c0.1 0.4 1.2 0.6 2.4 0.6 1.2 0 2.2-0.2 2.4-0.6l3.4-9.2c1-2.8-1.4-5.8-5.8-5.8-4.4 0-6.9 3-5.8 5.8zm-12 9.6l8.9 4.1c0.4 0.2 1.3-0.4 2.1-1.2 0.9-0.8 1.4-1.8 1.3-2.1l-4.1-9c-1.2-2.6-5.1-3.1-8.2 0-3.1 3.1-2.7 7 0 8.2zm-1.7 15.4l9.2-3.5c0.4-0.1 0.7-1.2 0.7-2.3 0-1.2-0.3-2.3-0.7-2.4l-9.2-3.4c-2.7-1.1-5.8 1.4-5.8 5.8 0 4.4 3.1 6.8 5.8 5.8zm9.7 12l4.1-9c0.2-0.3-0.4-1.3-1.2-2.1-0.9-0.8-1.8-1.4-2.2-1.2l-8.9 4.1c-2.7 1.2-3.1 5.1 0 8.2 3.1 3.1 7 2.6 8.2 0zm15.3 1.6l-3.4-9.2c-0.1-0.4-1.2-0.6-2.4-0.6-1.2 0-2.2 0.2-2.4 0.6l-3.4 9.2c-1 2.8 1.4 5.8 5.8 5.8 4.4 0 6.8-3 5.8-5.8zm12-9.7l-8.9-4.1c-0.4-0.1-1.3 0.4-2.2 1.3-0.8 0.8-1.4 1.8-1.2 2.1l4.1 8.9c1.2 2.7 5.1 3.1 8.2 0 3.1-3.1 2.7-6.9 0-8.2zm7.5-9.5c0-4.4-3.1-6.8-5.8-5.8l-9.3 3.4c-0.3 0.2-0.6 1.2-0.6 2.4 0 1.2 0.3 2.3 0.6 2.4l9.3 3.4c2.7 1 5.8-1.4 5.8-5.8z"/>
			</g>
			<g id="&lt;Group&gt;">
				<path id="&lt;Path&gt;" class="s0" d="m239.1 15.6c-3.6-1.9-9.5-3.4-13.4-3.4h-41.6c0 0 6.3 42 6.3 42.9l151 6.5c5.4 0.2 4.9-1.9 0.1-5.1-2.5-1.6-102.4-40.9-102.4-40.9z"/>
				<path id="&lt;Path&gt;" class="s7" d="m55.2 50.7c-6.8-0.3-9.1-2.7-9.8-4.1-1.5-2.8 0.3-6.4 5.1-9.7l35.1-24.8c2.1-1.4 6.8-2.1 10.4-2l17.7 0.2c0 0-4.5 21.7-6.3 30.6-1.3 6.8-2.1 10.4-2.2 10.8l-0.3 1.3z"/>
				<path id="&lt;Path&gt;" class="s0" d="m111.2 11.8l-15.2-0.2c-3.6 0-7.5 0.7-8.9 1.6l-35.2 24.8c-7.4 5.2-6.8 10.8 3.3 11.2l47.9 2.1c0.3-1.2 7.9-40 8.1-39.5z"/>
				<path id="&lt;Compound Path&gt;" fill-rule="evenodd" class="s7" d="m186.8 54.3l1.4 69.3-67.3-0.6q0-0.8 0-1.6c-0.3-10.8-5.5-24.3-12.3-30.4l-0.6-0.5 0.9-39v-0.1c0.6-4 5.7-38.8 5.9-39.6l0.2-1.3h65.3zm-2 0l-6.3-42.1-62.1-0.1c-0.2 1-4.7 31.5-5.9 39.5l-0.9 38.3c8.1 7.1 12.6 21.5 13 31.6l63.6 0.2z"/>
				<path id="&lt;Path&gt;" class="s0" d="m184.9 55.1v-0.8l-6.3-42.1-62.2-0.1c-0.1 0.7-5.9 39.5-5.9 39.5v0.3z"/>
				<path id="&lt;Path&gt;" class="s8" d="m128.8 58.3l-16.2-0.8v-3.8l16.2 0.8z"/>
				<path id="&lt;Path&gt;" class="s8" d="m213.3 62.4l-19.2-0.9v-4.1l19.2 0.9z"/>
				<path id="&lt;Compound Path&gt;" fill-rule="evenodd" class="s7" d="m189.5 123.4l-1-68.1v-0.2c-0.1-1-4.6-31.2-6.3-42.7l-0.3-1.9 43.8-0.1c4.3 0 10.6 1.6 14.5 3.6 6.8 3.8 100.4 39.4 102.9 41.1 3.4 2.2 4.9 3.9 4.8 5.6l-18.1 63.1zm0.9-68.3h0.1l1.6 66 135.1 0.5 18-61.1c0.1-0.9-1.2-2.3-3.7-4-2.5-1.6-102.5-40.9-102.5-40.9-3.5-1.9-9.5-3.4-13.3-3.4h-41.6c0 0 6.3 42 6.3 42.9z"/>
			</g>
			<path id="&lt;Path&gt;" class="s9" d="m86.1 50.6l17 0.7c0.1-0.6 2.4-11.9 4.4-22.2z"/>
			<path id="&lt;Path&gt;" class="s9" d="m57.1 34.3l-5.2 3.7c-3.2 2.3-4.9 4.6-5 6.6z"/>
			<path id="&lt;Path&gt;" class="s9" d="m87.1 13.2l-4.5 3.2q-16 16-32.1 32.1 1.9 0.6 4.7 0.7l9.7 0.4q19-18.9 37.9-37.9l-6.8-0.1c-3.6 0-7.5 0.7-8.9 1.6z"/>
			<path id="&lt;Path&gt;" class="s9" d="m142.7 12.1h-18.1l-9.6 9.5c-1 6.6-2.3 15.1-3.2 21.4z"/>
			<path id="&lt;Path&gt;" class="s9" d="m157.2 12.1h-6.9q-19.9 19.9-39.8 39.8l6.7 0.3z"/>
			<path id="&lt;Path&gt;" class="s9" d="m180.8 26.9l-0.8-5.5q-16.1 16-32.2 32.1l6.1 0.3q13.4-13.5 26.9-26.9z"/>
			<path id="&lt;Path&gt;" class="s9" d="m161.1 54.1l23.8 1v-0.8l-3.1-20.8q-10.4 10.3-20.7 20.6z"/>
			<path id="&lt;Path&gt;" class="s9" d="m195.5 12.2h-6.3l-4.4 4.4c0.2 1.5 0.5 3.4 0.8 5.5z"/>
			<path id="&lt;Path&gt;" class="s9" d="m228.9 12.5c-1.2-0.2-2.3-0.3-3.2-0.3h-22.7l-16.4 16.5c1.2 8.3 2.6 17.7 3.3 22.7z"/>
			<path id="&lt;Path&gt;" class="s9" d="m260.3 23.9c-7.8-3-14.1-5.5-17.8-7q-19.4 19.4-38.7 38.8l23.7 1q16.4-16.4 32.8-32.8z"/>
			<path id="&lt;Path&gt;" class="s9" d="m292 36.5q-4.4-1.8-8.8-3.5l-25 25 11.8 0.5z"/>
			<path id="&lt;Path&gt;" class="s9" d="m312.8 44.8c-4.9-2-10.1-4-15.4-6.2l-20.2 20.2 20.6 0.9z"/>
			<path id="&lt;Path&gt;" class="s8" d="m443.2 77.9l-31.9 0.3c-1.3 0-1.5 1.4-0.4 3.1l6 11.2c0.7 1.2 2.2 2.3 3.4 2.6l37.9 6.2c-0.8-6.7-3.7-15.8-15-23.4z"/>
			<path id="&lt;Path&gt;" class="s10" d="m458.3 100.4c-0.7-3.3-2-12.6-12.8-20.9h-32.5c-1.4 0-1.6 1.2-0.7 2.6l5.6 9.2c0.6 1.1 2.1 2.1 3.3 2.3z"/>
			<path id="&lt;Path&gt;" class="s11" d="m419.3 79.6l-6.3-0.1c-1.4 0-1.6 1.2-0.7 2.6l5.6 9.2c0.6 1.1 2.1 2.1 3.3 2.3l9.3 1.7z"/>
			<path id="&lt;Path&gt;" class="s3" d="m460 114.6c0 2.5-2.1 4.7-4.7 4.7h-13.8c-2.6 0-4.7-2.2-4.7-4.7 0-2.6 2.1-4.8 4.7-4.8h13.8c2.6 0 4.7 2.2 4.7 4.8z"/>
			<path id="&lt;Path&gt;" class="s10" d="m450.6 114.4c0 2-1.7 3.6-3.7 3.6h-3.5c-2 0-3.6-1.6-3.6-3.6 0-2.1 1.6-3.7 3.6-3.7h3.5c2 0 3.7 1.6 3.7 3.7z"/>
			<path id="&lt;Path&gt;" class="s12" d="m12.7 82.3h7c4.3 0 8.7-3.5 9.8-7.9l1.6-6.9c1.1-4.4-1.6-7.9-6-7.9h-5.9c-2.5 5.2-4.7 13.6-6.5 22.7z"/>
			<path id="&lt;Path&gt;" class="s13" d="m13 80.3c1.8-8.3 3.6-14.5 5.4-18.7h6.7c1.4 0 2.7 0.5 3.4 1.5 0.8 1 1.1 2.4 0.7 4l-1.6 6.8c-0.9 3.5-4.5 6.4-7.9 6.4z"/>
			<path id="&lt;Path&gt;" class="s11" d="m14.5 74.1q-0.7 2.9-1.5 6.2h6.7c3.3 0 6.9-2.8 7.8-6.2z"/>
			<path id="&lt;Path&gt;" class="s7" d="m37.1 61.1c18.2-0.2 265.3 9.9 347.5 15.9-57-0.4-279.7-3.1-284.8-3.1-5 0.1-62.7-12.8-62.7-12.8z"/>
		</g>
		<path id="&lt;Path&gt;" class="s14" d="m29.9 59.8c14.3 4.9 272.5 11.2 354.7 17.2-59.3-9-311.1-14.9-341.4-26.6-4.7-1.9-13.3 9.4-13.3 9.4z"/>
		<path id="&lt;Path&gt;" class="s14" d="m458.5 102.7c-2.9-15.1-10.5-24.4-26.2-30.4-8.6-3.3-58.9-17.2-68-17.5-20.5-9.6-106-38.7-116.5-43.1-8.1-3.9-29.4-10.5-55.8-10.5-25.8 0-80.4-2.3-99.1 2.4-14.3 3.7-55.9 31.6-71.8 52.8-5.3 7-9.4 29-11.9 46.1q0.4-0.1 0.7-0.2c2.6-14.3 6.4-31 11.2-36.6 15.9-18.8 55.1-46.8 68.6-55.8 3.8-2.5 114.8-2.9 140.4 0 10.9 1.2 97.4 36 119.8 46.5 11.8 9.1 73.8 20.5 82.4 23.4 14 4.8 21.6 11.9 25.1 22.8q0.5 0 1.1 0.1z"/>
		<path id="&lt;Path&gt;" class="s14" d="m1.9 136.7l0.2-13.8c0.2-6.5 5.7-13.2 12.5-14.9l22.4-5.6h-24.2c-6.5 0-11.8 5.3-11.8 11.9v13.7c0 3.5 0 6.5 0.9 8.7q0 0 0 0z"/>
		<path id="&lt;Path&gt;" class="s14" d="m463 122.5q0.4-0.5 0.9-1v-0.5c0-15.1-1.4-18.6-11.8-18.6h-40l39.3 5.3c8.3 1.5 10.8 6 11.6 14.8z"/>
		<path id="&lt;Path&gt;" class="s14" d="m114.5 124.1c-0.2 2.5-0.6 5-1.3 7.4h220.9c-0.5-1.7-219.6-7.4-219.6-7.4z"/>
		<path id="&lt;Path&gt;" class="s14" d="m76.1 79.2c22.9 0 41.7 18.1 42.8 40.8 0-0.7 0.1-1.4 0.1-2.1 0-23.7-19.2-42.9-42.9-42.9-23.7 0-43 19.2-43 42.9 0 0.7 0.1 1.4 0.1 2.1 1.2-22.7 19.9-40.8 42.9-40.8z"/>
		<path id="&lt;Path&gt;" class="s14" d="m371.2 79.2c22.9 0 41.7 18.1 42.8 40.8 0.1-0.7 0.1-1.4 0.1-2.1 0-23.7-19.2-42.9-42.9-42.9-23.7 0-43 19.2-43 42.9 0 0.7 0.1 1.4 0.2 2.1 1.1-22.7 19.8-40.8 42.8-40.8z"/>
		<path id="&lt;Compound Path&gt;" fill-rule="evenodd" class="s15" d="m41.5 122.8c0-0.6-0.1-1.2-0.1-1.8 0-19.1 15.5-34.6 34.7-34.6 19.1 0 34.6 15.5 34.6 34.6 0 0.6-0.1 1.2-0.1 1.8-0.9-18.3-16-32.9-34.5-32.9-18.6 0-33.7 14.6-34.6 32.9zm34.6 27c16 0 29-12.5 29.8-28.3 0 0.5 0 1 0 1.5 0 16.5-13.3 29.9-29.8 29.9-16.5 0-29.9-13.4-29.9-29.9 0-0.5 0-1 0.1-1.5 0.8 15.8 13.8 28.3 29.8 28.3z"/>
		<path id="&lt;Compound Path&gt;" fill-rule="evenodd" class="s15" d="m336.4 122.8c-0.1-0.6-0.1-1.2-0.1-1.8 0-19.1 15.5-34.6 34.6-34.6 19.1 0 34.6 15.5 34.6 34.6 0 0.6 0 1.2 0 1.8-1-18.3-16-32.9-34.6-32.9-18.5 0-33.6 14.6-34.5 32.9zm34.5 27c16 0 29-12.5 29.8-28.3 0 0.5 0.1 1 0.1 1.5 0 16.5-13.4 29.9-29.9 29.9-16.5 0-29.9-13.4-29.9-29.9 0-0.5 0.1-1 0.1-1.5 0.8 15.8 13.8 28.3 29.8 28.3z"/>
	</g>
</svg>