<svg version="1.2" xmlns="http://www.w3.org/2000/svg" viewBox="0 0 478 154" width="478" height="154">
	<title>-e-5</title>
	<style>
		.s0 { fill: #e05a01 } 
		.s1 { fill: #191919 } 
		.s2 { fill: #070000 } 
		.s3 { fill: #757575 } 
		.s4 { fill: #999999 } 
		.s5 { fill: #262626 } 
		.s6 { fill: #96bcbb } 
		.s7 { fill: #fff48d } 
		.s8 { fill: #edf1f4 } 
		.s9 { fill: #2b2b2b } 
		.s10 { fill: #80c2dc } 
		.s11 { fill: #231f20 } 
		.s12 { fill: #be5041 } 
		.s13 { fill: #711814 } 
		.s14 { fill: #d77c7b } 
		.s15 { fill: #1c171d } 
		.s16 { fill: #ffffff } 
		.s17 { fill: #200000 } 
		.s18 { opacity: .7;fill: #ffffff } 
	</style>
	<g id="-e-5">
		<g id="&lt;Group&gt;">
			<path id="&lt;Path&gt;" class="s0" d="m473.6 126.8c-1.5-0.5-1.3-4.9-1.2-11.6 4.7 1.9 0.2-21.1-3.9-30.8-7.3-17.1-17.2-38.4-131.4-42.1-41.6-24.4-90.4-49.3-144.5-39.4-54 9.8-121.5 35.3-144.9 44.1-23.4 8.8-30.1 3.6-34.8 24.9-4.7 21.3-15.1 31.2-10.4 44.2 4.7 13 22.9 17.1 52.5 19.7 29.6 2.6 233.2 1.1 284.7-0.5 51.4-1.5 159.3-0.2 133.9-8.5z"/>
			<g id="&lt;Group&gt;">
				<path id="&lt;Path&gt;" class="s1" d="m86.2 71.4c24.3 0 44.1 19.8 44.1 44.2 0 1.4 0.3 10.6 0.6 21.6-36.6-0.1-66-0.5-75.9-1.4q-7-0.6-13.2-1.3c0.1-9.5 0.2-17.2 0.2-18.9 0-24.4 19.8-44.2 44.2-44.2z"/>
				<path id="&lt;Path&gt;" class="s1" d="m368.7 71.4c24.4 0 44.2 19.8 44.2 44.2 0 1.2 0.1 9.5 0.3 18.8-23.4 0.8-50.1 0.2-73.5 0.9-4.2 0.1-9.4 0.3-15.3 0.4 0.1-10 0.2-18.3 0.2-20.1 0-24.4 19.8-44.2 44.1-44.2z"/>
			</g>
		</g>
		<g id="&lt;Group&gt;">
			<path id="&lt;Path&gt;" fill-rule="evenodd" class="s2" d="m369.2 154c-20.8 0-37.7-16.9-37.7-37.7 0-20.8 16.9-37.7 37.7-37.7 20.8 0 37.7 16.9 37.7 37.7 0 20.8-16.9 37.7-37.7 37.7z"/>
			<path id="&lt;Path&gt;" class="s0" d="m352.9 127.2c7.8 7.8 6.7-5.9 14.5-13.8 7.9-7.8 21.6-6.7 13.8-14.5-7.9-7.9-20.5-7.9-28.3 0-7.9 7.8-7.9 20.4 0 28.3z"/>
			<path id="&lt;Compound Path&gt;" fill-rule="evenodd" class="s3" d="m369.2 145.4c-16.1 0-29.1-13-29.1-29.1 0-16.1 13-29.1 29.1-29.1 16.1 0 29.1 13 29.1 29.1 0 16.1-13 29.1-29.1 29.1zm-23.1-18.7l3-2.2-3.6 0.6q0.3 0.8 0.6 1.6zm10.6-7.6l3.7-2.8-3.7-2.7-12.4-2q-0.4 2.3-0.5 4.7 0.1 2.4 0.5 4.7zm36.3 6.2l-4.3-0.7 3.5 2.5q0.4-0.9 0.8-1.8zm1.1-4.1q0.5-2.4 0.5-4.8 0-2.5-0.4-4.8l-13 2.1-3.8 2.7 3.8 2.7zm-1.9-15.5l-3.6 2.6 4.3-0.7q-0.3-1-0.7-1.9zm-46.8 2l3.7 0.6-3.1-2.3q-0.3 0.8-0.6 1.7zm2.7-5.4l10.2 7.4 4.6 0.8-0.8-4.6-7.4-10.3c-2.6 1.8-4.9 4.1-6.6 6.7zm12.6-5.6l-0.6-4q-0.9 0.4-1.7 0.8zm3.4-5.2l2 12.7 2.7 3.8 2.8-3.8 2-12.8q-2.2-0.4-4.4-0.4-2.7 0-5.1 0.5zm12.9 5.2l2.5-3.5q-0.9-0.4-1.8-0.7zm6.2-1.4l-7.7 10.6-0.7 4.6 4.6-0.7 10.6-7.8c-1.8-2.6-4.1-4.9-6.8-6.7zm6.8 35.6l-10.6-7.7-4.6-0.7 0.7 4.6 7.6 10.4c2.7-1.7 5-4 6.9-6.6zm-13 5.3l0.6 4.1q0.9-0.3 1.8-0.7zm-3.4 5.1l-2-12.6-2.8-3.8-2.7 3.8-2 12.5q2.5 0.5 5 0.5 2.3 0 4.5-0.4zm-13-5.1l-2.2 3.1q0.8 0.4 1.6 0.7zm-5.9 1.1l7.4-10.3 0.7-4.5-4.6 0.7-10.1 7.4c1.7 2.6 4 4.8 6.6 6.7z"/>
			<path id="&lt;Compound Path&gt;" class="s4" d="m362.5 136.2l-3.2-1.3 4.4-6zm12.7 0l-1.1-7.3 4.3 6zm-10.6-9.7l1.1-7.1-7.1 1.2 5.9-4.3-5.9-4.2 7.1 1.1-1.1-7.1 4.2 5.9 4.3-5.9-1.2 7.1 7.1-1.1-5.8 4.2 5.8 4.3-7.1-1.2 1.2 7.1-4.3-5.8zm-14.3-0.6l-1.3-3.2 7.3-1.2zm37.1 0l-6-4.3 7.3 1.1zm-5.9-14.7l5.9-4.4 1.4 3.2zm-25.2 0l-7.3-1.2 1.3-3.1zm7.4-7.4l-4.4-6 3.2-1.3zm10.4 0l1.2-7.3 3.2 1.3z"/>
			<path id="&lt;Path&gt;" class="s5" d="m369.2 84c-19.3 0-35.1 15.1-36.1 34.2-0.1-0.6-0.1-1.3-0.1-1.9 0-20 16.2-36.2 36.2-36.2 20 0 36.2 16.2 36.2 36.2 0 0.6 0 1.3-0.1 1.9-1-19.1-16.7-34.2-36.1-34.2z"/>
			<path id="&lt;Path&gt;" class="s5" d="m369.2 145.5c15.7 0 28.4-12.3 29.2-27.7 0.1 0.5 0.1 1 0.1 1.6 0 16.2-13.1 29.3-29.3 29.3-16.2 0-29.3-13.1-29.3-29.3 0-0.6 0-1.1 0.1-1.6 0.8 15.4 13.5 27.7 29.2 27.7z"/>
		</g>
		<g id="&lt;Group&gt;">
			<path id="&lt;Path&gt;" fill-rule="evenodd" class="s2" d="m84.5 154c-20.8 0-37.6-16.9-37.6-37.7 0-20.8 16.8-37.7 37.6-37.7 20.9 0 37.7 16.9 37.7 37.7 0 20.8-16.8 37.7-37.7 37.7z"/>
			<path id="&lt;Path&gt;" class="s0" d="m68.2 127.2c7.8 7.8 6.8-5.9 14.6-13.8 7.8-7.8 21.5-6.7 13.7-14.5-7.8-7.9-20.5-7.9-28.3 0-7.8 7.8-7.8 20.4 0 28.3z"/>
			<path id="&lt;Compound Path&gt;" fill-rule="evenodd" class="s3" d="m84.5 145.4c-16.1 0-29.1-13-29.1-29.1 0-16.1 13-29.1 29.1-29.1 16.1 0 29.1 13 29.1 29.1 0 16.1-13 29.1-29.1 29.1zm-23.1-18.7l3.1-2.2-3.7 0.6q0.3 0.8 0.6 1.6zm10.6-7.6l3.8-2.8-3.8-2.7-12.4-2q-0.4 2.3-0.4 4.7 0 2.4 0.4 4.7zm36.3 6.2l-4.3-0.7 3.5 2.5q0.4-0.9 0.8-1.8zm1.2-4.1q0.4-2.4 0.4-4.8 0-2.5-0.4-4.8l-13 2.1-3.8 2.7 3.8 2.7zm-1.9-15.5l-3.5 2.6 4.3-0.7q-0.4-1-0.8-1.9zm-46.8 2l3.7 0.6-3-2.3q-0.4 0.8-0.7 1.7zm2.7-5.4l10.2 7.4 4.6 0.8-0.7-4.6-7.5-10.3c-2.6 1.8-4.8 4.1-6.6 6.7zm12.6-5.6l-0.6-4q-0.9 0.4-1.7 0.8zm3.4-5.2l2 12.7 2.8 3.8 2.7-3.8 2-12.8q-2.1-0.4-4.4-0.4-2.6 0-5.1 0.5zm13 5.2l2.4-3.5q-0.9-0.4-1.8-0.7zm6.2-1.4l-7.6 10.6-0.8 4.6 4.6-0.7 10.6-7.8c-1.8-2.6-4.1-4.9-6.8-6.7zm6.8 35.6l-10.6-7.7-4.6-0.7 0.8 4.6 7.6 10.4c2.6-1.7 5-4 6.8-6.6zm-13 5.3l0.7 4.1q0.9-0.3 1.7-0.7zm-3.4 5.1l-2-12.6-2.7-3.8-2.8 3.8-2 12.5q2.5 0.5 5.1 0.5 2.3 0 4.4-0.4zm-12.9-5.1l-2.3 3.1q0.8 0.4 1.7 0.7zm-6 1.1l7.4-10.3 0.8-4.5-4.6 0.7-10.2 7.4c1.8 2.6 4 4.8 6.6 6.7z"/>
			<path id="&lt;Compound Path&gt;" class="s4" d="m77.8 136.2l-3.1-1.3 4.3-6zm12.8 0l-1.2-7.3 4.3 6zm-10.6-9.7l1.2-7.1-7.1 1.2 5.8-4.3-5.8-4.2 7.1 1.1-1.2-7.1 4.3 5.9 4.2-5.9-1.1 7.1 7.1-1.1-5.9 4.2 5.9 4.3-7.1-1.2 1.1 7.1-4.2-5.8zm-14.4-0.6l-1.3-3.2 7.3-1.2zm37.2 0l-6-4.3 7.3 1.1zm-6-14.7l6-4.4 1.3 3.2zm-25.2 0l-7.3-1.2 1.3-3.1zm7.4-7.4l-4.3-6 3.1-1.3zm10.5 0l1.1-7.3 3.2 1.3z"/>
			<path id="&lt;Path&gt;" class="s5" d="m84.5 84c-19.3 0-35.1 15.1-36.1 34.2 0-0.6-0.1-1.3-0.1-1.9 0-20 16.2-36.2 36.2-36.2 20 0 36.3 16.2 36.3 36.2 0 0.6-0.1 1.3-0.1 1.9-1.1-19.1-16.8-34.2-36.2-34.2z"/>
			<path id="&lt;Path&gt;" class="s5" d="m84.5 145.5c15.7 0 28.4-12.3 29.3-27.7 0 0.5 0 1 0 1.6 0 16.2-13.1 29.3-29.3 29.3-16.2 0-29.3-13.1-29.3-29.3 0-0.6 0.1-1.1 0.1-1.6 0.8 15.4 13.6 27.7 29.2 27.7z"/>
		</g>
		<path id="&lt;Path&gt;" class="s1" d="m459.1 89.5c-3.3-15-16.2-22.3-39.6-22.3-6.5 0-12.9 0.5-18.1 1l-1.5 0.1-0.1 1c13.1 4.1 23.5 19.9 23.6 20.1l0.1 0.2h0.3c0.1 0 5.8-0.1 12.9-0.1 6.6 0 15.7 0.1 21.9 0.6l0.7 0.1z"/>
		<path id="&lt;Path&gt;" class="s6" d="m458.6 89.6c-11.9-1-34.8-0.5-34.8-0.5 0 0-10.4-16.1-23.9-20.3 18.7-1.5 53-5.2 58.7 20.8z"/>
		<path id="&lt;Path&gt;" class="s7" d="m436.1 89c-6.7-7.2-13.6-14.2-20.4-21.2 2.7-0.1 5.5-0.1 8.3 0q11.5 10 21.7 21.2c-3.2 0-6.6 0-9.6 0z"/>
		<path id="&lt;Path&gt;" class="s7" d="m428.8 68.2c13.8 1.3 26.5 6.5 29.8 21.4-2.5-0.2-5.6-0.4-8.8-0.5-6.6-7.3-13.6-14.4-21-20.9z"/>
		<path id="&lt;Path&gt;" class="s8" d="m457.3 85.8q0.1 0.1 0.2 0.1 0.7 1.7 1.1 3.7c-11.9-1-34.8-0.5-34.8-0.5 0 0-10.4-16.1-23.9-20.3 2.9-0.2 6.3-0.5 9.8-0.7 14.5 8.9 30.9 14.5 47.6 17.7z"/>
		<path id="&lt;Path&gt;" class="s9" d="m443.1 115.2h29.3c0.4 3.9 0.8 7.8 1.2 11.6l-35.6 1.5c-1.4 0-1.8-1.3-0.8-3z"/>
		<path id="&lt;Path&gt;" class="s9" d="m443.7 112.4l5.7-9.8c1.1-1.7 3.1-3.2 4.5-3.2l16.3-0.7c0 4.6 0.3 9.2 0.8 13.7z"/>
		<path id="&lt;Path&gt;" class="s9" d="m124.1 43.2c0-0.2-9.2-0.5-9.4-0.5-13.5 0 53.4-34.5 105.7-34.5 31.5 0 85.5 30.5 90.7 33.4 0.1 0.1 0 0.3 0 0.5z"/>
		<path id="&lt;Path&gt;" class="s10" d="m171.4 19q-0.4-1.1-0.9-2.2c16.2-4.7 34-8.2 50.3-8.2 30.8 0 83.5 29.8 88.5 32.6 0.2 0.1 0 0.3 0 0.5l-128.1 0.7c-3.5-7.7-6.8-15.4-9.8-23.4z"/>
		<path id="&lt;Path&gt;" class="s10" d="m166.4 8.5c-0.3 0.5-0.5 1.3-1 1.5-20 6.9-58.8 18.8-89.6 31.4h-13.1c24.7-9.1 65.2-23.4 103.7-32.9z"/>
		<path id="&lt;Path&gt;" class="s10" d="m251.4 4.6c30.4 7 60.5 22.8 86 37.7l-10.8-0.1c-34.6-25.6-78.6-35.2-75.2-37.6z"/>
		<g id="&lt;Group&gt;">
			<path id="&lt;Path&gt;" class="s11" d="m207.7 129.9h97.7c10.1 0 10.2-13.1 10.3-31.2 0.1-4.7 0.1-9.6 0.3-14.8 1.1-25.2 1-29.7-6.5-42.3l-0.4 0.2c7.4 12.5 7.4 17 6.4 42.1-0.2 5.2-0.3 10.1-0.3 14.8-0.1 17.8-0.2 30.6-9.8 30.6h-97.7c-11 0-21.2-8.4-30.4-25.2-8-14.5-12.6-30.6-13.8-35.2-2.3-8.8-1.7-15.5 1.8-20 3.1-4.1 8.6-6.2 15.9-6.2v-0.5c-7.5 0-13.1 2.2-16.4 6.4-3.5 4.6-4.1 11.5-1.8 20.4 1.2 4.7 5.8 20.8 13.8 35.4 9.3 16.9 19.7 25.5 30.9 25.5z"/>
		</g>
		<g id="&lt;Group&gt;">
			<path id="&lt;Path&gt;" class="s12" d="m29 53.2l37.9 14.6-22.8 14.5-32.2-4.6c0 0 1.5-23.9 17.1-24.5z"/>
			<path id="&lt;Path&gt;" class="s13" d="m22.5 69.8c-3.1-0.1-6.1-0.2-9.1-0.4 1.5-5.7 4.8-12.8 11.2-15.3 5.1 5.5 10.1 11.2 14.8 17.1-5.6-0.6-11.3-1.2-16.9-1.4z"/>
			<path id="&lt;Path&gt;" class="s14" d="m23.9 72.8c6 0.3 12 1 17.9 1.6q2.4 3.1 4.7 6.4l-2.4 1.5-32.2-4.6c0 0 0.1-2.3 0.8-5.4 3.7 0.2 7.4 0.2 11.2 0.5z"/>
			<path id="&lt;Path&gt;" class="s15" d="m62.3 66.7l-34.9-13.3q0.8-0.1 1.6-0.2l37.9 14.6-20.7 13.2z"/>
		</g>
		<g id="&lt;Group&gt;" style="opacity: .5">
			<path id="&lt;Path&gt;" class="s16" d="m468.5 91.1c-7.3-15-21.6-40.5-142.9-38 0-8.2-71.7-54.2-125.7-45.6-54 8.6-78.5 22.7-113.2 38.5-22.4 10.1-43.1 7.8-62.4 23.9-11.3 9.5-22 33.1-22.9 41.4-1-10.9 7.4-20.7 11.5-39.4 4.7-21.3 11.4-16.1 34.8-24.9 23.4-8.8 90.9-34.3 144.9-44.1 54.1-9.9 102.9 15 144.5 39.4 114.2 3.7 124.1 25 131.4 42.1 4.1 9.7 7.5 28.5 5.3 30.5-0.2-7.7-1.7-16.3-5.3-23.8z"/>
		</g>
		<g id="&lt;Group&gt;" style="opacity: .5">
			<path id="&lt;Path&gt;" class="s16" d="m324.6 53.6c0 0-132.8 0.1-231.6 12.2-14.9-8.4-44-5.1-44-5.1 0 0 64.1-24.5 267.1-15.4 2.1 4.2 8.5 8.3 8.5 8.3z"/>
		</g>
		<g id="&lt;Group&gt;" style="opacity: .5">
			<path id="&lt;Path&gt;" class="s16" d="m364 63.1c19-1.3 56.3 8.2 68.6 45.8l-19.2-3.7c-12.6-33.8-34.7-35.1-48.7-34.2-22.2 1.6-37.3 19.7-40.2 37.7-1.7-22.4 17.3-44 39.5-45.6z"/>
		</g>
		<g id="&lt;Group&gt;" style="opacity: .5">
			<path id="&lt;Path&gt;" class="s16" d="m321.5 117.1l-189.6-12.4 54.5 14.7z"/>
		</g>
		<g id="&lt;Group&gt;" style="opacity: .5">
			<path id="&lt;Path&gt;" class="s16" d="m443 113.8l-29.8-5.8 1 8.7z"/>
		</g>
		<g id="&lt;Group&gt;" style="opacity: .5">
			<path id="&lt;Path&gt;" class="s16" d="m473.6 126.8l-60.4 1.6 15.3 3.8 48.3-4z"/>
		</g>
		<g id="&lt;Group&gt;" style="opacity: .5">
			<path id="&lt;Path&gt;" class="s16" d="m471.6 112.5l-31.3-0.1 7.2 2.5 26.2-0.8z"/>
		</g>
		<path id="&lt;Path&gt;" fill-rule="evenodd" class="s11" d="m178.1 64.3c-7.5 0-13.7-1.3-13.7-2.8 0-1.5 6.2-2.8 13.7-2.8 7.6 0 13.7 1.3 13.7 2.8 0 1.5-6.1 2.8-13.7 2.8z"/>
		<path id="&lt;Path&gt;" fill-rule="evenodd" class="s0" d="m178.1 62.7c-6.6 0-12-0.8-12-1.8 0-1 5.4-1.8 12-1.8 6.7 0 12 0.8 12 1.8 0 1-5.3 1.8-12 1.8z"/>
		<g id="&lt;Group&gt;">
			<path id="&lt;Path&gt;" class="s17" d="m316.1 46c-1.1 5.3-12.4 7.7-17.8 6.6-5.3-1.1-8.8-6.3-7.8-11.7 1.1-5.4 6.3-8.9 11.7-7.8 5.3 1 15 7.5 13.9 12.9z"/>
			<g id="&lt;Group&gt;" style="opacity: .5">
				<path id="&lt;Path&gt;" class="s16" d="m293.6 37.4c1 2.6 3.3 4.7 6.2 5.3 3.4 0.6 9.4-0.2 12.9-2.5-2.6-3.1-7.3-5.8-10.4-6.4-3.5-0.7-6.9 0.9-8.7 3.6z"/>
			</g>
		</g>
		<path id="&lt;Path&gt;" class="s18" d="m253.7 42l29.3-0.2 9.5-9.5c-5.7-2.9-12.5-6.1-19.8-9.3z"/>
		<path id="&lt;Path&gt;" class="s18" d="m217.4 42.2h11.3l26.2-26.3q-4.3-1.4-8.4-2.7-14.5 14.5-29.1 29z"/>
		<path id="&lt;Path&gt;" class="s18" d="m220.8 8.6c-8 0-16.3 0.9-24.6 2.3l-20.1 20q2.5 5.8 5.1 11.5l18.2-0.1 32.6-32.6c-3.9-0.7-7.7-1.1-11.2-1.1z"/>
		<path id="&lt;Path&gt;" class="s1" d="m21.2 112.5c-0.6-1.8-2.4-3.2-4.2-3.2h-15.7c0 2.2 0.4 4.5 1.2 6.8 3 8.3 11.6 13 25.2 16z"/>
		<g id="&lt;Group&gt;" style="opacity: .5">
			<path id="&lt;Path&gt;" class="s16" d="m17 109.3c1.8 0 3.6 1.4 4.2 3.2l6.5 19.6c1 0.3-4.6-21.6-4.6-21.6-0.5-1.7-2.4-3.1-4.1-3.1 0 0-17.3 1.3-17.2 1.9z"/>
		</g>
	</g>
</svg>