<svg version="1.2" xmlns="http://www.w3.org/2000/svg" viewBox="0 0 474 166" width="474" height="166">
	<title>-e-6</title>
	<style>
		.s0 { fill: #e3e3e3 } 
		.s1 { fill: #191919 } 
		.s2 { fill: #070000 } 
		.s3 { fill: #757575 } 
		.s4 { fill: #999999 } 
		.s5 { fill: #262626 } 
		.s6 { fill: #ffffff } 
		.s7 { fill: #c3eae8 } 
		.s8 { fill: #fff48d } 
		.s9 { fill: #2b2b2b } 
		.s10 { fill: #80c2dc } 
		.s11 { fill: #231f20 } 
		.s12 { fill: #be5041 } 
		.s13 { fill: #711814 } 
		.s14 { fill: #d77c7b } 
		.s15 { fill: #1c171d } 
		.s16 { fill: #200000 } 
		.s17 { opacity: .7;fill: #ffffff } 
	</style>
	<g id="-e-6">
		<g id="&lt;Group&gt;">
			<g id="&lt;Group&gt;">
				<path id="&lt;Path&gt;" class="s0" d="m470.1 138.8c-1.5-0.5-1.3-4.9-1.2-11.6 4.6 1.9-1.7-33.2-5.8-42.9-3.3-8.1-15.3-26.3-129.6-30-41.5-24.4-91-56.2-145.9-54.3-81.1 2.9-111.4 18.6-132.7 31-21.6 12.6-29.7 29.1-31 34.4-8.2 1-14.1 11.1-15.6 24.3-2.6 1.9-2.1 20-2.1 20-7.6 0-5.6 21.4-4 25.4 3.2 8.6 19.7 10.1 49.3 12.7 29.6 2.6 233.2 1.1 284.6-0.5 51.5-1.5 159.4-0.2 134-8.5z"/>
				<g id="&lt;Group&gt;">
					<path id="&lt;Path&gt;" class="s1" d="m82.6 83.4c24.4 0 44.2 19.8 44.2 44.2 0 1.4 0.3 10.6 0.6 21.6-36.7-0.1-66-0.5-75.9-1.4q-7.1-0.6-13.2-1.3c0.1-9.5 0.2-17.2 0.2-18.9 0-24.4 19.7-44.2 44.1-44.2z"/>
					<path id="&lt;Path&gt;" class="s1" d="m365.2 83.4c24.4 0 44.2 19.8 44.2 44.2 0 1.2 0.1 9.5 0.3 18.8-23.4 0.8-50.1 0.2-73.6 0.9-4.1 0.1-9.3 0.3-15.3 0.4 0.1-10 0.3-18.3 0.3-20.1 0-24.4 19.7-44.2 44.1-44.2z"/>
				</g>
			</g>
			<g id="&lt;Group&gt;">
				<path id="&lt;Path&gt;" fill-rule="evenodd" class="s2" d="m365.7 166c-20.9 0-37.7-16.9-37.7-37.7 0-20.8 16.8-37.7 37.7-37.7 20.8 0 37.6 16.9 37.6 37.7 0 20.8-16.8 37.7-37.6 37.7z"/>
				<path id="&lt;Compound Path&gt;" fill-rule="evenodd" class="s3" d="m365.7 157.4c-16.1 0-29.1-13-29.1-29.1 0-16.1 13-29.1 29.1-29.1 16.1 0 29.1 13 29.1 29.1 0 16.1-13 29.1-29.1 29.1zm-23.1-18.7l3-2.2-3.7 0.6q0.3 0.8 0.7 1.6zm10.5-7.6l3.8-2.8-3.8-2.7-12.3-2q-0.5 2.3-0.5 4.7 0 2.4 0.5 4.7zm36.2 6.2l-4.2-0.7 3.5 2.5q0.4-0.9 0.7-1.8zm1.2-4.1q0.5-2.4 0.5-4.8 0-2.5-0.5-4.8l-13 2.1-3.7 2.7 3.7 2.7zm-1.9-15.5l-3.5 2.6 4.3-0.7q-0.3-1-0.8-1.9zm-46.7 2l3.7 0.6-3.1-2.3q-0.3 0.8-0.6 1.7zm2.7-5.4l10.2 7.4 4.6 0.8-0.8-4.6-7.4-10.3c-2.6 1.8-4.9 4.1-6.6 6.7zm12.6-5.6l-0.7-4q-0.8 0.4-1.7 0.8zm3.5-5.2l2 12.7 2.7 3.8 2.7-3.8 2.1-12.8q-2.2-0.4-4.5-0.4-2.6 0-5 0.5zm12.9 5.2l2.5-3.5q-0.9-0.4-1.8-0.7zm6.2-1.4l-7.7 10.6-0.7 4.6 4.6-0.7 10.6-7.8c-1.8-2.6-4.2-4.9-6.8-6.7zm6.7 35.6l-10.5-7.7-4.6-0.7 0.7 4.6 7.6 10.4c2.7-1.7 5-4 6.8-6.6zm-12.9 5.3l0.6 4.1q0.9-0.3 1.8-0.7zm-3.4 5.1l-2.1-12.6-2.7-3.8-2.7 3.8-2 12.5q2.4 0.5 5 0.5 2.3 0 4.5-0.4zm-13-5.1l-2.2 3.1q0.8 0.4 1.6 0.7zm-5.9 1.1l7.4-10.3 0.7-4.5-4.6 0.7-10.1 7.4c1.7 2.6 4 4.8 6.6 6.7z"/>
				<path id="&lt;Compound Path&gt;" class="s4" d="m359 148.2l-3.2-1.3 4.3-6zm12.8 0l-1.2-7.3 4.4 6zm-10.6-9.7l1.1-7.1-7.1 1.2 5.8-4.3-5.8-4.2 7.1 1.1-1.1-7.1 4.2 5.9 4.2-5.9-1.1 7.1 7.1-1.1-5.8 4.2 5.8 4.3-7.1-1.2 1.1 7.1-4.2-5.8zm-14.3-0.6l-1.4-3.2 7.3-1.2zm37.2 0l-6-4.3 7.3 1.1zm-6-14.7l6-4.4 1.3 3.2zm-25.2 0l-7.3-1.2 1.3-3.1zm7.4-7.4l-4.3-6 3.2-1.3zm10.4 0l1.2-7.3 3.1 1.3z"/>
				<path id="&lt;Path&gt;" class="s5" d="m365.7 96c-19.4 0-35.1 15.1-36.1 34.2-0.1-0.6-0.1-1.3-0.1-1.9 0-20 16.2-36.2 36.2-36.2 20 0 36.2 16.2 36.2 36.2 0 0.6-0.1 1.3-0.1 1.9-1-19.1-16.8-34.2-36.1-34.2z"/>
				<path id="&lt;Path&gt;" class="s5" d="m365.7 157.5c15.6 0 28.4-12.3 29.2-27.7 0 0.5 0.1 1 0.1 1.6 0 16.2-13.1 29.3-29.3 29.3-16.2 0-29.3-13.1-29.3-29.3 0-0.6 0-1.1 0-1.6 0.9 15.4 13.6 27.7 29.3 27.7z"/>
			</g>
			<g id="&lt;Group&gt;">
				<path id="&lt;Path&gt;" fill-rule="evenodd" class="s2" d="m81 166c-20.8 0-37.7-16.9-37.7-37.7 0-20.8 16.9-37.7 37.7-37.7 20.8 0 37.7 16.9 37.7 37.7 0 20.8-16.9 37.7-37.7 37.7z"/>
				<path id="&lt;Compound Path&gt;" fill-rule="evenodd" class="s3" d="m81 157.4c-16.1 0-29.1-13-29.1-29.1 0-16.1 13-29.1 29.1-29.1 16.1 0 29.1 13 29.1 29.1 0 16.1-13 29.1-29.1 29.1zm-23.1-18.7l3-2.2-3.6 0.6q0.3 0.8 0.6 1.6zm10.6-7.6l3.7-2.8-3.7-2.7-12.4-2q-0.4 2.3-0.5 4.7 0.1 2.4 0.5 4.7zm36.3 6.2l-4.3-0.7 3.5 2.5q0.4-0.9 0.8-1.8zm1.1-4.1q0.5-2.4 0.5-4.8 0-2.5-0.4-4.8l-13 2.1-3.8 2.7 3.8 2.7zm-1.9-15.5l-3.6 2.6 4.3-0.7q-0.3-1-0.7-1.9zm-46.8 2l3.7 0.6-3.1-2.3q-0.3 0.8-0.6 1.7zm2.7-5.4l10.2 7.4 4.6 0.8-0.7-4.6-7.5-10.3c-2.6 1.8-4.9 4.1-6.6 6.7zm12.6-5.6l-0.6-4q-0.9 0.4-1.7 0.8zm3.4-5.2l2 12.7 2.7 3.8 2.8-3.8 2-12.8q-2.2-0.4-4.4-0.4-2.6 0-5.1 0.5zm12.9 5.2l2.5-3.5q-0.9-0.4-1.8-0.7zm6.2-1.4l-7.7 10.6-0.7 4.6 4.6-0.7 10.6-7.8c-1.8-2.6-4.1-4.9-6.8-6.7zm6.8 35.6l-10.6-7.7-4.6-0.7 0.7 4.6 7.6 10.4c2.7-1.7 5-4 6.9-6.6zm-13 5.3l0.6 4.1q0.9-0.3 1.8-0.7zm-3.4 5.1l-2-12.6-2.8-3.8-2.7 3.8-2 12.5q2.5 0.5 5.1 0.5 2.2 0 4.4-0.4zm-12.9-5.1l-2.3 3.1q0.8 0.4 1.6 0.7zm-5.9 1.1l7.4-10.3 0.7-4.5-4.5 0.7-10.2 7.4c1.8 2.6 4 4.8 6.6 6.7z"/>
				<path id="&lt;Compound Path&gt;" class="s4" d="m74.3 148.2l-3.2-1.3 4.4-6zm12.7 0l-1.1-7.3 4.3 6zm-10.6-9.7l1.1-7.1-7.1 1.2 5.9-4.3-5.9-4.2 7.1 1.1-1.1-7.1 4.2 5.9 4.3-5.9-1.2 7.1 7.2-1.1-5.9 4.2 5.8 4.3-7.1-1.2 1.2 7.1-4.3-5.8zm-14.3-0.6l-1.3-3.2 7.3-1.2zm37.1 0l-5.9-4.3 7.2 1.1zm-5.9-14.7l5.9-4.4 1.4 3.2zm-25.2 0l-7.3-1.2 1.3-3.1zm7.4-7.4l-4.4-6 3.2-1.3zm10.4 0l1.2-7.3 3.2 1.3z"/>
				<path id="&lt;Path&gt;" class="s5" d="m81 96c-19.3 0-35.1 15.1-36.1 34.2 0-0.6-0.1-1.3-0.1-1.9 0-20 16.2-36.2 36.2-36.2 20 0 36.2 16.2 36.2 36.2 0 0.6 0 1.3-0.1 1.9-1-19.1-16.7-34.2-36.1-34.2z"/>
				<path id="&lt;Path&gt;" class="s5" d="m81 157.5c15.7 0 28.4-12.3 29.2-27.7 0.1 0.5 0.1 1 0.1 1.6 0 16.2-13.1 29.3-29.3 29.3-16.2 0-29.3-13.1-29.3-29.3 0-0.6 0.1-1.1 0.1-1.6 0.8 15.4 13.6 27.7 29.2 27.7z"/>
			</g>
			<g id="&lt;Group&gt;">
				<path id="&lt;Path&gt;" class="s1" d="m455.6 101.5c-3.3-15-16.3-22.3-39.6-22.3-6.5 0-12.9 0.5-18.1 1l-1.6 0.1-0.1 1c13.2 4.1 23.5 19.9 23.6 20.1l0.2 0.2h0.3c0.1 0 5.8-0.1 12.9-0.1 6.6 0 15.7 0.1 21.8 0.6l0.7 0.1z"/>
				<path id="&lt;Path&gt;" class="s6" d="m455.1 101.6c-12-1-34.8-0.5-34.8-0.5 0 0-10.4-16.1-23.9-20.3 18.7-1.5 53-5.2 58.7 20.8z"/>
				<path id="&lt;Path&gt;" class="s7" d="m432.6 101c-6.7-7.2-13.6-14.2-20.4-21.2 2.7-0.1 5.5-0.1 8.2 0q11.5 10 21.8 21.2c-3.3 0-6.6 0-9.6 0z"/>
				<path id="&lt;Path&gt;" class="s7" d="m425.3 80.2c13.8 1.3 26.5 6.5 29.8 21.4-2.6-0.2-5.6-0.4-8.9-0.5-6.6-7.3-13.6-14.4-20.9-20.9z"/>
				<path id="&lt;Path&gt;" class="s8" d="m453.8 97.8q0.1 0.1 0.2 0.1 0.6 1.7 1.1 3.7c-12-1-34.8-0.5-34.8-0.5 0 0-10.4-16.1-23.9-20.3 2.9-0.2 6.2-0.5 9.8-0.7 14.5 8.9 30.9 14.5 47.6 17.7z"/>
			</g>
			<path id="&lt;Path&gt;" class="s9" d="m439.6 127.2h29.3c0.4 3.9 0.7 7.8 1.2 11.6l-35.6 1.5c-1.5 0-1.8-1.3-0.8-3z"/>
			<path id="&lt;Path&gt;" class="s3" d="m95.5 55.2c-6 0-12.6 0-12.7 0-22.1 0-18.5-43.7 108.9-49.2 40.4-1.8 109.2 43.4 115.8 47.2 0.2 0.1 0 0.4 0 0.6z"/>
			<path id="&lt;Path&gt;" class="s9" d="m82.8 53.6c-5.3 0-8.7-2.6-8.8-6.7-0.2-9.5 20.6-35.1 117.7-39.3q1.1 0 2.3 0c24 0 60.6 15 108.8 44.6l-207.3 1.4z"/>
			<path id="&lt;Path&gt;" class="s10" d="m282.3 40.1c-38.2-21.6-67.9-32.5-88.3-32.5q-1.2 0-2.3 0c-5.5 0.2-10.8 0.6-15.8 0.9 6.2 14.9 13.5 29.4 19.4 44.4l82.5-0.5q2.3-6.2 4.5-12.3z"/>
			<path id="&lt;Path&gt;" class="s10" d="m102.1 53.5l88.5-0.6c-5.9-14.8-13.2-29.2-19.3-44-37.2 3.1-61 9.7-75.6 16.7 2 9.4 4.2 18.6 6.4 27.9z"/>
			<path id="&lt;Path&gt;" class="s10" d="m231.4 5.2c30.4 6.9 77 34.2 102.4 49.1l-10.8-0.1c-34.5-25.6-95-46.6-91.6-49z"/>
			<g id="&lt;Group&gt;">
				<path id="&lt;Path&gt;" class="s11" d="m307.6 53.6l-0.4 0.2c5.8 12.5 5.8 17 5 42.1-0.2 5.2-0.2 10.1-0.2 14.8-0.1 17.8-0.2 30.6-7.6 30.6h-75.6c-8.5 0-16.4-8.4-23.5-25.2-6.2-14.5-9.7-30.6-10.7-35.2-1.6-8-3.5-20.7-1.8-26.4h-0.4c-1.6 5.9 0.2 18.5 1.9 26.5 0.9 4.7 4.4 20.8 10.6 35.4 7.2 16.9 15.3 25.5 23.9 25.5h75.6c7.8 0 7.9-13.1 8-31.2 0-4.7 0-9.6 0.2-14.8 0.8-25.2 0.8-29.7-5-42.3z"/>
			</g>
			<g id="&lt;Group&gt;">
				<path id="&lt;Path&gt;" class="s12" d="m25.5 65.2l37.9 14.6-22.8 14.5-32.3-4.6c0 0 1.6-23.9 17.2-24.5z"/>
				<path id="&lt;Path&gt;" class="s13" d="m19 81.8c-3.1-0.1-6.1-0.2-9.2-0.4 1.6-5.7 4.8-12.8 11.2-15.3 5.2 5.5 10.2 11.2 14.9 17.1-5.7-0.6-11.3-1.2-16.9-1.4z"/>
				<path id="&lt;Path&gt;" class="s14" d="m20.3 84.8c6 0.3 12 1 18 1.6q2.4 3.1 4.7 6.4l-2.4 1.5-32.3-4.6c0 0 0.2-2.3 0.8-5.4 3.8 0.2 7.5 0.2 11.2 0.5z"/>
				<path id="&lt;Path&gt;" class="s15" d="m58.7 78.7l-34.8-13.3q0.8-0.1 1.6-0.2l37.9 14.6-20.7 13.2z"/>
			</g>
			<g id="&lt;Group&gt;" style="opacity: .5">
				<path id="&lt;Path&gt;" class="s6" d="m418.1 71.7c0 0-229.8-6-328.7 6.1-31.6-6.9-28.1-9.6-54.8-11.7 226.8-24.4 383.5 5.6 383.5 5.6z"/>
			</g>
			<g id="&lt;Group&gt;" style="opacity: .5">
				<path id="&lt;Path&gt;" class="s6" d="m360.5 75.1c19-1.3 56.3 8.2 68.5 45.8l-19.1-3.7c-12.6-33.8-34.7-35.1-48.8-34.2-22.1 1.6-37.2 19.7-40.1 37.7-1.7-22.4 17.3-44 39.5-45.6z"/>
			</g>
			<g id="&lt;Group&gt;" style="opacity: .5">
				<path id="&lt;Path&gt;" class="s6" d="m317.9 129.1l-189.6-12.4 54.6 14.7z"/>
			</g>
			<g id="&lt;Group&gt;" style="opacity: .5">
				<path id="&lt;Path&gt;" class="s6" d="m439.5 125.8l-29.8-5.8 1 8.7z"/>
			</g>
			<g id="&lt;Group&gt;" style="opacity: .5">
				<path id="&lt;Path&gt;" class="s6" d="m470.1 138.8l-60.4 1.6 15.3 3.8 48.3-4z"/>
			</g>
			<g id="&lt;Group&gt;" style="opacity: .5">
				<path id="&lt;Path&gt;" class="s6" d="m468 124.5l-31.2-0.1 7.2 2.5 26.2-0.8z"/>
			</g>
			<g id="&lt;Group&gt;">
				<path id="&lt;Path&gt;" fill-rule="evenodd" class="s11" d="m209.6 68.8c-6 0-10.8-1.2-10.8-2.7 0-1.4 4.8-2.6 10.8-2.6 5.9 0 10.8 1.2 10.8 2.6 0 1.5-4.9 2.7-10.8 2.7z"/>
				<path id="&lt;Path&gt;" fill-rule="evenodd" class="s3" d="m209.6 67.3c-5.2 0-9.5-0.8-9.5-1.7 0-1 4.3-1.8 9.5-1.8 5.2 0 9.5 0.8 9.5 1.8 0 0.9-4.3 1.7-9.5 1.7z"/>
			</g>
			<g id="&lt;Group&gt;">
				<path id="&lt;Path&gt;" fill-rule="evenodd" class="s11" d="m106.8 68.8c-5.9 0-10.7-1.2-10.7-2.7 0-1.4 4.8-2.6 10.7-2.6 6 0 10.8 1.2 10.8 2.6 0 1.5-4.8 2.7-10.8 2.7z"/>
				<path id="&lt;Path&gt;" fill-rule="evenodd" class="s3" d="m106.8 67.3c-5.2 0-9.5-0.8-9.5-1.7 0-1 4.3-1.8 9.5-1.8 5.2 0 9.5 0.8 9.5 1.8 0 0.9-4.3 1.7-9.5 1.7z"/>
			</g>
			<g id="&lt;Group&gt;">
				<path id="&lt;Path&gt;" class="s16" d="m312.6 58c-1.1 5.3-12.4 7.7-17.8 6.6-5.4-1.1-8.9-6.3-7.8-11.7 1.1-5.4 6.3-8.9 11.6-7.8 5.4 1 15 7.5 14 12.9z"/>
				<g id="&lt;Group&gt;" style="opacity: .5">
					<path id="&lt;Path&gt;" class="s6" d="m290 49.4c1.1 2.6 3.4 4.7 6.3 5.3 3.4 0.6 9.4-0.2 12.8-2.5-2.5-3.1-7.2-5.8-10.3-6.4-3.5-0.7-6.9 0.9-8.8 3.6z"/>
				</g>
			</g>
		</g>
		<g id="&lt;Group&gt;" style="opacity: .5">
			<path id="&lt;Path&gt;" class="s6" d="m38.7 114c0 0-24.7-3.1-30.2-3.6-5.6-0.5-6.6 6.6-6.1 16.4 2-5.3 4.8-13.9 36.3-12.8z"/>
		</g>
		<g id="&lt;Group&gt;">
			<path id="&lt;Path&gt;" class="s11" d="m232.4 141.8h-95c-0.7 0-0.7-1.4-0.8-4.7-0.2-6.8-0.6-19.4-7.2-31.7-7.6-14.2-19.7-19.2-26.9-22.1-1.4-0.6-2.5-1.1-3.4-1.5-3.4-1.6-8.2-13.7-6.6-20.9 0.8-3.7 2.6-7.3 9.5-7.5l0.4 1.7c-6.9 0-8.7 2.3-9.5 5.9-1.6 7 3.1 18.9 6.3 20.4q1.4 0.7 3.4 1.5c7.3 3 19.5 8 27.2 22.3 6.6 12.3 7 25 7.2 31.9 0 1.9 0.1 4.3 0.4 4.3h95z"/>
		</g>
		<path id="&lt;Path&gt;" class="s10" d="m106.7 9.8c-25 6.2-39.8 14.2-51.8 21.2-8.4 4.9-14.8 10.4-19.5 15.6-4 4.4 24.4-21 71.3-36.8z"/>
		<path id="&lt;Path&gt;" class="s9" d="m467.4 120c0.5 1.6 1.7 2.9 3.1 3.4 0.2-8.6-3.8-29.1-6.9-37.7h-2.4c-1.8 0-2.8 1.7-2.3 3.7z"/>
		<path id="&lt;Path&gt;" class="s17" d="m121 16.8l-22.3 22.3q1.2 5.3 2.5 10.5l36.3-36.4c-6 1.1-11.5 2.3-16.5 3.6z"/>
		<path id="&lt;Path&gt;" class="s17" d="m139.7 53.3l7.3-0.1q15.2-15.1 30.4-30.3-1.1-2.6-2.2-5.1z"/>
		<path id="&lt;Path&gt;" class="s17" d="m163.5 9.6c-3.8 0.4-7.4 0.8-10.9 1.3q-21.3 21.3-42.6 42.6l9.7-0.1q21.9-21.9 43.8-43.8z"/>
		<path id="&lt;Path&gt;" class="s17" d="m184.4 38.5q-2.5-5.7-5.1-11.4l-26.1 26.1 16.5-0.1z"/>
		<path id="&lt;Path&gt;" class="s17" d="m191.7 7.6q-3.4 0.2-6.7 0.4l-6.5 6.5q1.1 2.5 2.2 5.1l12-12q-0.5 0-1 0z"/>
		<path id="&lt;Path&gt;" class="s17" d="m212.7 10.1c-5-1.2-9.7-2-14-2.3l-16.1 16q2.6 5.7 5.1 11.3z"/>
		<path id="&lt;Path&gt;" class="s17" d="m213.2 52.8q15.9-15.8 31.7-31.6c-7.8-3.4-15.1-6.2-21.8-8.3l-31.4 31.3q1.9 4.3 3.6 8.7z"/>
		<path id="&lt;Path&gt;" class="s17" d="m271.7 34.3q-5-2.7-9.9-5.1l-23.4 23.4 15.1-0.1z"/>
		<path id="&lt;Path&gt;" class="s17" d="m278.8 38.2q-1.6-0.9-3.1-1.7l-16 16h4.8z"/>
	</g>
</svg>