<svg version="1.2" xmlns="http://www.w3.org/2000/svg" viewBox="0 0 460 152" width="460" height="152">
	<title>-e-7</title>
	<style>
		.s0 { fill: #d60606 } 
		.s1 { fill: #070000 } 
		.s2 { fill: #861e29 } 
		.s3 { fill: #540c16 } 
		.s4 { fill: #191919 } 
		.s5 { fill: #f9eff0 } 
		.s6 { fill: #999999 } 
		.s7 { fill: #262626 } 
		.s8 { fill: #2b2b2b } 
		.s9 { fill: #80c2dc } 
		.s10 { fill: #231f20 } 
		.s11 { fill: #ffffff } 
		.s12 { fill: #200000 } 
		.s13 { fill: #defcff } 
	</style>
	<g id="-e-7">
		<path id="&lt;Path&gt;" class="s0" d="m11.9 77.5c-1.9 7.5-5.5 13-8.1 12.3-2.6-0.6-3.2-7.2-1.3-14.7 1.9-7.5 5.5-13 8.1-12.3 2.6 0.6 3.2 7.2 1.3 14.7z"/>
		<path id="&lt;Path&gt;" class="s1" d="m117.2 34.2c2.7 4.4 1.2 10.2-3.2 12.9-4.5 2.7-10.3 1.2-13-3.3l-4.8-8.1c-2.7-4.5-1.2-10.3 3.3-13 4.4-2.6 10.2-1.2 12.9 3.3z"/>
		<path id="&lt;Path&gt;" class="s1" d="m200.3 39.4c2.7 4.4 1.2 10.2-3.3 12.9-4.5 2.7-10.3 1.2-13-3.3l-4.8-8.1c-2.7-4.5-1.2-10.3 3.3-13 4.5-2.6 10.3-1.2 12.9 3.3z"/>
		<g id="&lt;Group&gt;">
			<g id="&lt;Group&gt;">
				<path id="&lt;Path&gt;" class="s2" d="m455.4 123.4c-1.5-0.5-1.3-4.8-1.2-11.5 4.7 1.8 7.9-27.5 3.8-37.2-7.3-17.2-71.4-35.7-139.1-35.7-28.7-16.9-60.8-33-85.9-37.9-1.4-0.3-9.5 2 2 8 20.2 10.5 62.5 29.9 28.1 29.9-121.8 0-147.3-0.5-150.4-6.6-12.5-20.1-52.1 4.3-70.4 11.2-23.4 8.9-38 12.7-34.8 25 2.5 9.7-0.3 14-4.8 15.5-5.2 1.7 1.2 39.9 12.4 42.8 8.2 2.2 22 4.5 34.5 5.6 19.3 1.7 210.1 1.3 271.9-0.5 51.4-1.6 159.4-0.2 133.9-8.6z"/>
				<g id="&lt;Group&gt;">
					<path id="&lt;Path&gt;" class="s3" d="m455.4 123.4c-0.8-0.2-1.1-1.5-1.2-3.7-25.5 2.8-93 2.4-130.7 3.5-63.2 1.9-258.4 2.2-278.2 0.6-12.7-1.1-26.8-3.4-35.3-5.6-1.4-0.4-2.7-1.3-3.9-2.5 2.4 5.7 5.4 10.3 9 11.2 8.2 2.2 22 4.5 34.5 5.6 19.3 1.7 210.1 1.3 271.9-0.5 51.4-1.6 159.4-0.2 133.9-8.6z"/>
				</g>
				<g id="&lt;Group&gt;">
					<path id="&lt;Path&gt;" class="s4" d="m454.2 90.7c-0.1 6.7-0.3 11.1 1.2 11.6 1.5 0.5 2.5 0.9 3.1 1.4 1.5-7.4 1.9-18 0.6-25-0.9 7.3-2.8 12.9-4.9 12z"/>
				</g>
				<g id="&lt;Group&gt;">
					<path id="&lt;Path&gt;" class="s4" d="m80.7 68.1c24.4 0 44.2 19.7 44.2 44.1 0 1.4 0.3 10.6 0.5 21.6-36.6-0.1-65.9-0.5-75.8-1.3q-7.1-0.6-13.2-1.4c0-9.4 0.2-17.1 0.2-18.9 0-24.4 19.7-44.1 44.1-44.1z"/>
					<path id="&lt;Path&gt;" class="s4" d="m350.6 68.1c24.3 0 44.1 19.7 44.1 44.1 0 1.2 0.1 9.6 0.4 18.9-23.5 0.7-50.2 0.1-73.6 0.9-4.2 0.1-9.3 0.2-15.3 0.3 0.1-9.9 0.2-18.3 0.2-20.1 0-24.4 19.8-44.1 44.2-44.1z"/>
				</g>
			</g>
			<g id="&lt;Group&gt;">
				<path id="&lt;Path&gt;" fill-rule="evenodd" class="s1" d="m351 150.6c-20.8 0-37.6-16.8-37.6-37.7 0-20.8 16.8-37.6 37.6-37.6 20.8 0 37.7 16.8 37.7 37.6 0 20.9-16.9 37.7-37.7 37.7z"/>
				<path id="&lt;Path&gt;" class="s0" d="m334.7 123.8c7.8 7.8 6.7-5.9 14.6-13.7 7.8-7.8 21.5-6.8 13.7-14.6-7.8-7.8-20.5-7.8-28.3 0-7.8 7.8-7.8 20.5 0 28.3z"/>
				<path id="&lt;Compound Path&gt;" fill-rule="evenodd" class="s5" d="m351 142c-16.1 0-29.1-13-29.1-29.1 0-16.1 13-29.1 29.1-29.1 16.1 0 29.1 13 29.1 29.1 0 16.1-13 29.1-29.1 29.1zm-23.1-18.6l3-2.2-3.6 0.6q0.3 0.8 0.6 1.6zm10.6-7.7l3.7-2.7-3.7-2.7-12.4-2q-0.4 2.2-0.4 4.6 0 2.5 0.4 4.8zm36.3 6.1l-4.3-0.7 3.5 2.6q0.4-0.9 0.8-1.9zm1.2-4.1q0.4-2.3 0.4-4.8 0-2.4-0.4-4.7l-13 2-3.8 2.8 3.8 2.7zm-1.9-15.6l-3.6 2.6 4.3-0.7q-0.3-0.9-0.7-1.9zm-46.8 2l3.7 0.6-3-2.2q-0.4 0.8-0.7 1.6zm2.7-5.3l10.2 7.4 4.6 0.7-0.7-4.6-7.5-10.3c-2.6 1.8-4.8 4.1-6.6 6.8zm12.6-5.7l-0.6-3.9q-0.9 0.3-1.7 0.7zm3.4-5.1l2 12.6 2.8 3.8 2.7-3.8 2-12.7q-2.2-0.4-4.4-0.4-2.6 0-5.1 0.5zm12.9 5.1l2.5-3.4q-0.9-0.4-1.8-0.7zm6.2-1.4l-7.7 10.5-0.7 4.6 4.6-0.7 10.6-7.7c-1.8-2.7-4.1-4.9-6.8-6.7zm6.8 35.5l-10.6-7.7-4.6-0.7 0.7 4.6 7.6 10.5c2.7-1.8 5-4.1 6.9-6.7zm-13 5.4l0.6 4q1-0.3 1.8-0.7zm-3.4 5.2l-2-12.7-2.8-3.8-2.7 3.8-2 12.6q2.5 0.5 5.1 0.5 2.2 0 4.4-0.4zm-12.9-5.2l-2.3 3.2q0.8 0.3 1.7 0.7zm-6 1l7.4-10.2 0.7-4.6-4.5 0.7-10.2 7.4c1.8 2.6 4 4.9 6.6 6.7z"/>
				<path id="&lt;Compound Path&gt;" class="s6" d="m344.3 132.9l-3.2-1.3 4.4-6zm12.7 0l-1.1-7.3 4.3 6zm-10.6-9.7l1.1-7.1-7.1 1.1 5.9-4.2-5.9-4.3 7.1 1.2-1.1-7.1 4.2 5.8 4.3-5.8-1.2 7.1 7.2-1.2-5.9 4.3 5.9 4.2-7.2-1.1 1.2 7.1-4.3-5.8zm-14.3-0.7l-1.3-3.2 7.3-1.1zm37.1 0l-5.9-4.4 7.3 1.2zm-6-14.8l6-4.3 1.3 3.1zm-25.2 0l-7.3-1.1 1.3-3.2zm7.4-7.4l-4.4-6 3.2-1.3zm10.4 0l1.2-7.3 3.2 1.3z"/>
				<path id="&lt;Path&gt;" class="s7" d="m351 80.6c-19.3 0-35.1 15.2-36.1 34.3 0-0.7-0.1-1.3-0.1-2 0-20 16.2-36.2 36.2-36.2 20 0 36.2 16.2 36.2 36.2 0 0.7 0 1.3-0.1 2-1-19.1-16.7-34.3-36.1-34.3z"/>
				<path id="&lt;Path&gt;" class="s7" d="m351 142.2c15.7 0 28.4-12.3 29.2-27.8 0.1 0.6 0.1 1.1 0.1 1.6 0 16.2-13.1 29.3-29.3 29.3-16.2 0-29.3-13.1-29.3-29.3 0-0.5 0.1-1 0.1-1.6 0.8 15.5 13.6 27.8 29.2 27.8z"/>
			</g>
			<g id="&lt;Group&gt;">
				<path id="&lt;Path&gt;" fill-rule="evenodd" class="s1" d="m79.1 150.6c-20.8 0-37.7-16.8-37.7-37.7 0-20.8 16.9-37.6 37.7-37.6 20.8 0 37.7 16.8 37.7 37.6 0 20.9-16.9 37.7-37.7 37.7z"/>
				<path id="&lt;Path&gt;" class="s0" d="m62.8 123.8c7.8 7.8 6.7-5.9 14.5-13.7 7.9-7.8 21.6-6.8 13.8-14.6-7.9-7.8-20.5-7.8-28.3 0-7.9 7.8-7.9 20.5 0 28.3z"/>
				<path id="&lt;Compound Path&gt;" fill-rule="evenodd" class="s5" d="m79.1 142c-16.1 0-29.1-13-29.1-29.1 0-16.1 13-29.1 29.1-29.1 16.1 0 29.1 13 29.1 29.1 0 16.1-13 29.1-29.1 29.1zm-23.1-18.6l3-2.2-3.7 0.6q0.4 0.8 0.7 1.6zm10.6-7.7l3.7-2.7-3.7-2.7-12.4-2q-0.4 2.2-0.5 4.6 0.1 2.5 0.5 4.8zm36.3 6.1l-4.3-0.7 3.5 2.6q0.4-0.9 0.8-1.9zm1.1-4.1q0.5-2.3 0.5-4.8 0-2.4-0.4-4.7l-13 2-3.8 2.8 3.8 2.7zm-1.9-15.6l-3.6 2.6 4.3-0.7q-0.3-0.9-0.7-1.9zm-46.8 2l3.7 0.6-3.1-2.2q-0.3 0.8-0.6 1.6zm2.7-5.3l10.2 7.4 4.6 0.7-0.8-4.6-7.4-10.3c-2.6 1.8-4.9 4.1-6.6 6.8zm12.6-5.7l-0.6-3.9q-0.9 0.3-1.7 0.7zm3.4-5.1l2 12.6 2.7 3.8 2.8-3.8 2-12.7q-2.2-0.4-4.4-0.4-2.7 0-5.1 0.5zm12.9 5.1l2.5-3.4q-0.9-0.4-1.8-0.7zm6.2-1.4l-7.7 10.5-0.7 4.6 4.6-0.7 10.6-7.7c-1.8-2.7-4.1-4.9-6.8-6.7zm6.8 35.5l-10.6-7.7-4.6-0.7 0.7 4.6 7.6 10.5c2.7-1.8 5-4.1 6.9-6.7zm-13 5.4l0.6 4q0.9-0.3 1.8-0.7zm-3.4 5.2l-2-12.7-2.8-3.8-2.7 3.8-2 12.6q2.5 0.5 5 0.5 2.3 0 4.5-0.4zm-13-5.2l-2.2 3.2q0.8 0.3 1.6 0.7zm-5.9 1l7.4-10.2 0.7-4.6-4.6 0.7-10.1 7.4c1.7 2.6 4 4.9 6.6 6.7z"/>
				<path id="&lt;Compound Path&gt;" class="s6" d="m72.4 132.9l-3.2-1.3 4.4-6zm12.7 0l-1.1-7.3 4.3 6zm-10.6-9.7l1.1-7.1-7.1 1.1 5.8-4.2-5.8-4.3 7.1 1.2-1.1-7.1 4.2 5.8 4.3-5.8-1.2 7.1 7.1-1.2-5.8 4.3 5.8 4.2-7.1-1.1 1.2 7.1-4.3-5.8zm-14.3-0.7l-1.3-3.2 7.3-1.1zm37.1 0l-6-4.4 7.3 1.2zm-5.9-14.8l5.9-4.3 1.4 3.1zm-25.2 0l-7.3-1.1 1.3-3.2zm7.4-7.4l-4.4-6 3.2-1.3zm10.4 0l1.2-7.3 3.2 1.3z"/>
				<path id="&lt;Path&gt;" class="s7" d="m79.1 80.6c-19.3 0-35.1 15.2-36.1 34.3-0.1-0.7-0.1-1.3-0.1-2 0-20 16.2-36.2 36.2-36.2 20 0 36.2 16.2 36.2 36.2 0 0.7 0 1.3-0.1 2-1-19.1-16.7-34.3-36.1-34.3z"/>
				<path id="&lt;Path&gt;" class="s7" d="m79.1 142.2c15.7 0 28.4-12.3 29.2-27.8 0.1 0.6 0.1 1.1 0.1 1.6 0 16.2-13.1 29.3-29.3 29.3-16.2 0-29.3-13.1-29.3-29.3 0-0.5 0-1 0.1-1.6 0.8 15.5 13.5 27.8 29.2 27.8z"/>
			</g>
			<path id="&lt;Path&gt;" class="s8" d="m427.5 110.9l5.8-9.8c1-1.7 3-3.1 4.5-3.2l14.6 0.1c2.4 0 4.6 12.9 2.4 12.9z"/>
			<path id="&lt;Path&gt;" class="s8" d="m407.9 123.8l7.7-8c1-1.7 3.2-2.4 4.7-2.5l32.1-1c2.3 0 2.4 10.3 0.2 10.3z"/>
			<path id="&lt;Path&gt;" class="s9" d="m233.2 1.3c30.4 6.9 60.5 22.8 86 37.7l-10.8-0.2c-34.6-25.5-78.5-35.1-75.2-37.5z"/>
			<g id="&lt;Group&gt;">
				<path id="&lt;Path&gt;" class="s10" d="m191.9 126.5h95.3c10.1 0 10.2-13.1 10.3-31.1 0.1-4.8 0.1-9.7 0.3-14.9 1.1-25.2 1-29.7-6.5-42.3l-0.4 0.3c7.4 12.4 7.5 17 6.4 42-0.2 5.2-0.2 10.1-0.3 14.9-0.1 17.7-0.2 30.6-9.8 30.6h-95.3c-11 0-21.2-8.5-30.4-25.2-8-14.5-12.5-30.7-13.7-35.3-2.4-8.8-1.8-15.5 1.7-20 3.1-4 8.6-6.2 15.9-6.2v-0.5c-7.5 0-13.1 2.2-16.3 6.4-3.6 4.6-4.2 11.5-1.8 20.5 1.2 4.6 5.8 20.8 13.8 35.3 9.3 16.9 19.6 25.5 30.8 25.5z"/>
			</g>
			<g id="&lt;Group&gt;" style="opacity: .5">
				<path id="&lt;Path&gt;" class="s11" d="m381.1 53.7c-130.4 0-204.9-2.1-293.6 8.7-14.9-8.4-44-5-44-5 173.8-27.2 337.6-3.7 337.6-3.7z"/>
			</g>
			<g id="&lt;Group&gt;" style="opacity: .5">
				<path id="&lt;Path&gt;" class="s11" d="m345.8 59.8c19-1.3 56.3 8.1 68.6 45.8l-19.2-3.8c-12.6-33.7-34.7-35.1-48.7-34.1-22.2 1.5-37.3 19.6-40.1 37.7-1.8-22.5 17.3-44.1 39.4-45.6z"/>
			</g>
			<g id="&lt;Group&gt;" style="opacity: .5">
				<path id="&lt;Path&gt;" class="s11" d="m303.5 106.9l-187.9-32.3 45.5 14.7z"/>
			</g>
			<g id="&lt;Group&gt;" style="opacity: .5">
				<path id="&lt;Path&gt;" class="s11" d="m424.8 110.5l-29.7-5.9 0.9 8.7z"/>
			</g>
			<g id="&lt;Group&gt;" style="opacity: .5">
				<path id="&lt;Path&gt;" class="s11" d="m455.4 123.4l-60.4 1.6 15.3 3.8 48.4-3.9z"/>
			</g>
			<path id="&lt;Path&gt;" fill-rule="evenodd" class="s10" d="m162.3 60.9c-7.5 0-13.6-1.2-13.6-2.8 0-1.5 6.1-2.7 13.6-2.7 7.6 0 13.7 1.2 13.7 2.7 0 1.6-6.1 2.8-13.7 2.8z"/>
			<path id="&lt;Path&gt;" fill-rule="evenodd" class="s3" d="m162.3 59.4c-6.6 0-12-0.8-12-1.8 0-1.1 5.4-1.9 12-1.9 6.7 0 12.1 0.8 12.1 1.9 0 1-5.4 1.8-12.1 1.8z"/>
			<g id="&lt;Group&gt;">
				<path id="&lt;Path&gt;" class="s12" d="m297.9 42.6c-1.1 5.4-12.4 7.7-17.8 6.6-5.3-1-8.8-6.2-7.7-11.6 1-5.4 6.2-9 11.6-7.9 5.3 1.1 15 7.5 13.9 12.9z"/>
				<g id="&lt;Group&gt;" style="opacity: .5">
					<path id="&lt;Path&gt;" class="s11" d="m275.4 34.1c1 2.6 3.3 4.6 6.3 5.2 3.3 0.7 9.3-0.2 12.8-2.5-2.6-3.1-7.3-5.7-10.4-6.3-3.5-0.7-6.9 0.8-8.7 3.6z"/>
				</g>
			</g>
		</g>
		<g id="&lt;Group&gt;" style="opacity: .5">
			<path id="&lt;Path&gt;" class="s11" d="m231.6 7.1c0.9-0.8 2.5-1.1 3-1 22.7 4.2 45.1 18.9 72.9 34.4 102.7 9.5 132.8 24.6 144 41.7 3.1 4.8 3.6 16.9 6.5 23.8 1.3-7.2 3.3-20.7-0.2-31-5.5-16.1-67.5-35.5-138.9-36-28.7-16.9-60.8-33-85.9-37.9-1.2-0.3-7.7 1.5-1.4 6z"/>
			<path id="&lt;Path&gt;" class="s11" d="m4.7 88.6c5.1-1.8 9-6.4 8.8-16.6-0.2-12.5 15.1-16.5 39.8-25.5 18.8-6.8 36.2-17.3 59.4-8.6 20.1 6.1 36.3 3.4 150.7 2.5 8.8-0.1 12.1-1.4 11.9-3.6-1.5 1.3-5.2 2.2-12.2 2.2-121.8 0-147.3-0.5-150.4-6.6-12.5-20.1-52.1 4.3-70.4 11.2-23.4 8.9-38 12.7-34.8 25 2.5 9.7-0.3 14-4.8 15.5-1.8 0.6-2.2 5.5-1.5 11.8 0.9-4.1 2.2-6.9 3.5-7.3z"/>
		</g>
		<path id="&lt;Path&gt;" class="s3" d="m454 84.4c2.6 3.9 1.5 7.2-2.7 7.2h-23.8c-4.2 0-8.9-3.3-10.5-7.2l-1.6-4c-1.5-3.5 0.4-6.3 4.2-6.3h20.6c3.8 0 8.7 2.8 11.1 6.3z"/>
		<path id="&lt;Path&gt;" class="s11" d="m426.3 90.7c-3.5 0-7.6-2.9-9-6.2l-1.6-4c-0.5-1.2-0.5-2.3 0-3 0.5-0.7 1.5-1.1 2.7-1.1h20.6c3.3 0 7.7 2.5 9.8 5.6l2.7 4c1.2 1.8 1.3 3.1 0.9 3.8-0.4 0.8-1.6 0.9-2.3 0.9z"/>
		<path id="&lt;Path&gt;" class="s11" d="m430 118.3c1.5-1.8 1.3-3.3-0.6-3.3h-6.1c-1.9 0-4.6 1.5-6.2 3.3-1.5 1.9-1.3 3.4 0.6 3.4h6.2c1.8 0 4.5-1.5 6.1-3.4z"/>
		<path id="&lt;Path&gt;" class="s13" d="m452.6 89.1c0-0.7-0.2-1.8-1.1-3.1l-2.7-4c-2.1-3.1-6.5-5.6-9.8-5.6h-20.6c-1.2 0-2.2 0.4-2.7 1.1-0.4 0.6-0.4 1.6-0.1 2.7 13.8-1.6 28-0.9 37 8.9z"/>
		<path id="&lt;Path&gt;" class="s13" d="m418.7 86.7c1.9 2.3 4.9 4 7.6 4h14.8c-7.3-2-14.8-3.3-22.4-4z"/>
	</g>
</svg>