<svg version="1.2" xmlns="http://www.w3.org/2000/svg" viewBox="0 0 488 178" width="488" height="178">
	<title>-e-8</title>
	<style>
		.s0 { fill: #4a7eca } 
		.s1 { fill: #bcbcbc } 
		.s2 { fill: #232122 } 
		.s3 { fill: #80c2dc } 
		.s4 { fill: #2f5c91 } 
		.s5 { fill: #191919 } 
		.s6 { fill: #070000 } 
		.s7 { fill: #757575 } 
		.s8 { fill: #999999 } 
		.s9 { fill: #262626 } 
		.s10 { fill: #244d7f } 
		.s11 { opacity: .2;fill: #ffffff } 
		.s12 { fill: #5c1f24 } 
		.s13 { fill: #c7212b } 
		.s14 { fill: #d86b32 } 
		.s15 { fill: #ffffff } 
		.s16 { fill: #c7def9 } 
		.s17 { opacity: .7;fill: #ffffff } 
	</style>
	<g id="-e-8">
		<g id="&lt;Group&gt;">
			<path id="&lt;Path&gt;" class="s0" d="m483 111c1.4 8.7 3.4 19.8 3.4 19.8 6.4 2.6-7.4 30.3-24 30.3 0 0-259.1-0.7-421.4-0.7-4.7 0-19.8-0.8-27.8-2.5-4-0.9-17.5-40.5-8.9-42.6 1.8-12.9 0.3-35.8 2.3-48.9-1.6-5.2 6.5-15.5 10-20.6 1.3-2.7 9.4-18.3 21.2-32q0.1-0.2 0.3-0.4c2.6-3.2 10.4-12.6 37.1-13.4l1.9-0.1c10.4-0.3 119.1 2.2 129.3 2.1q1.5-0.1 2.7-0.1c18 0 43.3 2.9 61.2 11.1l104.9 45.8c11 5 43 11.3 49.9 13.1 53.8 13.9 56.5 30.3 57.9 39.1z"/>
			<path id="&lt;Path&gt;" class="s1" d="m340.1 69.8q-1 0-2.3-0.1l-295.7-17c-5.9-0.4-10.9-3.2-12.9-7.4-1.6-3.2-1.3-6.7 0.8-9.8 0.7-1.6 5.9-12.9 14.8-23.4q0.1-0.1 0.2-0.3c2-2.5 8.1-10.1 31.4-10.6q0.5 0 1.4 0c9.6 0 49.8 1.1 82.2 1.9 20.8 0.5 38.8 1 42.7 1 18 0.2 42.3 3 56.4 10.5l63 33.6c23.6 12.6 25 16 24.3 18.7-0.7 2.9-4.8 2.9-6.3 2.9z"/>
			<path id="&lt;Path&gt;" class="s2" d="m321.2 50c18.3 9.8 31.8 18.6 16.8 17.6l-295.8-16.9c-9-0.6-14.9-7.6-10.4-14.2 0 0 5.3-12 14.6-23.1 1.5-1.8 6.5-9.6 30-10.1 10.1-0.2 116.1 2.8 126.2 2.9 17 0.1 41.5 2.7 55.5 10.2z"/>
			<path id="&lt;Path&gt;" class="s3" d="m78.2 5.3l-1.7 0.1c-17.7 0.3-24.3 4.8-27 7.6 2 12.5 5.5 24.7 9.8 36.6l31.9 1.8q1-5 2.1-10c2.4-10.2 5.4-20.2 9.1-30q1.1-2.8 2.4-5.6c-13.6-0.3-24-0.5-26.6-0.5z"/>
			<path id="&lt;Path&gt;" class="s3" d="m108.7 13.8c-3.6 9.5-6.6 19.2-8.9 29q-1 4.5-1.9 9l98.3 5.5c-0.3-19.5-2.8-33.3-5.2-49.6-18.2-0.4-54.6-1.1-78.9-1.7-1.3 2.6-2.4 5.1-3.4 7.8z"/>
			<path id="&lt;Path&gt;" class="s3" d="m257.2 18.2c-13.5-7.1-37.1-9.8-54.6-9.9q-1.2-0.1-2.6-0.1c-0.8 0-2.1 0-4 0 2.8 16.3 4.2 32.9 4.8 49.5l96 5.5c2.8-6.5 5.5-12.9 8.4-19.4z"/>
		</g>
		<path id="&lt;Path&gt;" class="s4" d="m4.5 138.7c2.8 9.7 6.8 18.8 8.7 19.2 8 1.7 23.1 2.5 27.8 2.5 162.3 0 421.4 0.7 421.4 0.7 6.7 0 11.7-4.1 16.8-9 6.2-12.1 1.2-12.8 1.2-12.8-74.1-0.1-475.9-0.6-475.9-0.6z"/>
		<path id="&lt;Path&gt;" class="s5" d="m438.6 154.8c-26.9 0-10.7-6.2-107.4-6.2-33.8 0-75.2 5.1-118.1 5-11.3 0-75.5-8.1-86.6-8.1-28.5 0-60.3 8-85.5 8-4.7 0-19.8-0.8-27.8-2.5-2.7-0.6-4.4-0.9-5-1.7 1.9 4.9 3.9 8.4 5 8.6 8 1.7 23.2 2.9 27.9 2.9 162.2 0 421.3 0.3 421.3 0.3 6.3 0 12.2-4 16.8-9.2-10.1 0.3-7.7 2.9-40.6 2.9z"/>
		<g id="&lt;Group&gt;">
			<g id="&lt;Group&gt;">
				<g id="&lt;Group&gt;">
					<path id="&lt;Path&gt;" class="s5" d="m81.3 93.5c24.9 0 45 20.1 45 45 0 1.4 0.3 10.8 0.6 22.1-37.3-0.1-76.6-0.2-90.6-0.2 0.1-5.7 0-16 0-21.9 0-24.9 20.1-45 45-45z"/>
					<path id="&lt;Path&gt;" class="s5" d="m370.2 96c24.8 0.5 44.6 21 44.2 45.9 0 1.2-0.1 9.5 0 19-23.9 0.3-51.1-0.5-75-0.2-4.3 0-9.6 0.1-15.6 0.1 0.2-10.2 0.5-18.7 0.5-20.5 0.5-24.9 21-44.7 45.9-44.3z"/>
				</g>
			</g>
			<g id="&lt;Group&gt;">
				<path id="&lt;Path&gt;" fill-rule="evenodd" class="s6" d="m370 177.6c-21.3 0-38.4-17.1-38.4-38.4 0-21.2 17.1-38.4 38.4-38.4 21.2 0 38.4 17.2 38.4 38.4 0 21.3-17.2 38.4-38.4 38.4z"/>
				<path id="&lt;Compound Path&gt;" fill-rule="evenodd" class="s7" d="m370 168.9c-16.4 0-29.7-13.3-29.7-29.7 0-16.4 13.3-29.7 29.7-29.7 16.4 0 29.7 13.3 29.7 29.7 0 16.4-13.3 29.7-29.7 29.7zm-23.6-19l3.1-2.3-3.7 0.6q0.3 0.9 0.6 1.7zm10.8-7.8l3.8-2.8-3.8-2.8-12.6-2q-0.5 2.3-0.5 4.7 0 2.5 0.5 4.9zm37 6.2l-4.4-0.7 3.6 2.6q0.4-0.9 0.8-1.9zm1.2-4.1q0.4-2.4 0.5-5-0.1-2.5-0.5-4.8l-13.3 2.1-3.8 2.8 3.8 2.8zm-1.9-15.9l-3.6 2.6 4.4-0.7q-0.4-0.9-0.8-1.9zm-47.7 2l3.8 0.6-3.1-2.2q-0.4 0.8-0.7 1.6zm2.7-5.4l10.5 7.5 4.6 0.8-0.7-4.7-7.6-10.5c-2.7 1.9-5 4.2-6.8 6.9zm12.9-5.8l-0.6-4q-0.9 0.4-1.8 0.8zm3.5-5.3l2.1 12.9 2.8 3.9 2.8-3.9 2-13q-2.2-0.4-4.5-0.4-2.7 0-5.2 0.5zm13.2 5.3l2.6-3.5q-1-0.5-1.9-0.8zm6.3-1.4l-7.8 10.8-0.7 4.7 4.6-0.8 10.9-7.9c-1.9-2.7-4.3-5-7-6.8zm6.9 36.2l-10.8-7.8-4.6-0.7 0.7 4.6 7.8 10.8c2.7-1.9 5-4.2 6.9-6.9zm-13.2 5.5l0.6 4.1q1-0.3 1.9-0.7zm-3.5 5.3l-2.1-12.9-2.8-3.9-2.8 3.9-2 12.8q2.5 0.5 5.1 0.5 2.4 0 4.6-0.4zm-13.2-5.3l-2.3 3.2q0.8 0.4 1.7 0.7zm-6.1 1.1l7.5-10.4 0.8-4.7-4.7 0.7-10.3 7.6c1.8 2.6 4 5 6.7 6.8z"/>
				<path id="&lt;Compound Path&gt;" class="s8" d="m363.2 159.6l-3.3-1.4 4.4-6.1zm13.1 0l-1.2-7.4 4.4 6.1zm-10.8-9.9l1.1-7.2-7.2 1.1 5.9-4.3-5.9-4.3 7.2 1.1-1.1-7.2 4.3 5.9 4.3-5.9-1.1 7.2 7.2-1.1-5.9 4.3 5.9 4.3-7.2-1.1 1.1 7.2-4.3-5.9zm-14.6-0.7l-1.4-3.2 7.5-1.2zm37.9 0l-6.1-4.5 7.4 1.2zm-6.1-15l6.1-4.5 1.3 3.3zm-25.7 0l-7.4-1.2 1.3-3.3zm7.6-7.5l-4.5-6.1 3.3-1.3zm10.6 0l1.2-7.5 3.3 1.4z"/>
				<path id="&lt;Path&gt;" class="s9" d="m370 106.3c-19.7 0-35.8 15.4-36.9 34.9 0-0.7-0.1-1.3-0.1-2 0-20.4 16.6-36.9 37-36.9 20.4 0 36.9 16.5 36.9 36.9 0 0.7 0 1.3-0.1 2-1-19.5-17.1-34.9-36.8-34.9z"/>
				<path id="&lt;Path&gt;" class="s9" d="m370 169c16 0 29-12.5 29.8-28.2 0 0.5 0.1 1 0.1 1.6 0 16.5-13.4 29.9-29.9 29.9-16.5 0-29.9-13.4-29.9-29.9 0-0.6 0-1.1 0.1-1.6 0.8 15.7 13.8 28.2 29.8 28.2z"/>
			</g>
			<g id="&lt;Group&gt;">
				<path id="&lt;Path&gt;" fill-rule="evenodd" class="s6" d="m79.7 177.6c-21.3 0-38.5-17.1-38.5-38.4 0-21.2 17.2-38.4 38.5-38.4 21.2 0 38.4 17.2 38.4 38.4 0 21.3-17.2 38.4-38.4 38.4z"/>
				<path id="&lt;Compound Path&gt;" fill-rule="evenodd" class="s7" d="m79.7 168.9c-16.5 0-29.7-13.3-29.7-29.7 0-16.4 13.2-29.7 29.7-29.7 16.4 0 29.6 13.3 29.6 29.7 0 16.4-13.2 29.7-29.6 29.7zm-23.6-19l3.1-2.3-3.8 0.6q0.3 0.9 0.7 1.7zm10.8-7.8l3.8-2.8-3.8-2.8-12.7-2q-0.4 2.3-0.4 4.7 0 2.5 0.5 4.9zm36.9 6.2l-4.3-0.7 3.5 2.6q0.5-0.9 0.8-1.9zm1.2-4.1q0.5-2.4 0.5-5 0-2.5-0.4-4.8l-13.3 2.1-3.8 2.8 3.8 2.8zm-1.9-15.9l-3.6 2.6 4.4-0.7q-0.4-0.9-0.8-1.9zm-47.7 2l3.8 0.6-3.2-2.2q-0.3 0.8-0.6 1.6zm2.7-5.4l10.4 7.5 4.7 0.8-0.7-4.7-7.6-10.5c-2.7 1.9-5 4.2-6.8 6.9zm12.9-5.8l-0.7-4q-0.9 0.4-1.7 0.8zm3.5-5.3l2.1 12.9 2.7 3.9 2.8-3.9 2.1-13c-3.2-0.6-2.2-0.4-4.5-0.4q-2.7 0-5.2 0.5zm13.2 5.3l2.5-3.5q-0.9-0.5-1.8-0.8zm6.3-1.4l-7.8 10.8-0.8 4.7 4.7-0.8 10.8-7.9c-1.8-2.7-4.2-5-6.9-6.8zm6.9 36.2l-10.8-7.8-4.7-0.7 0.8 4.6 7.7 10.8c2.8-1.9 5.1-4.2 7-6.9zm-13.2 5.5l0.6 4.1q0.9-0.3 1.8-0.7zm-3.5 5.3l-2-12.9-2.8-3.9-2.8 3.9-2 12.8q2.5 0.5 5.1 0.5 2.3 0 4.5-0.4zm-13.2-5.3l-2.3 3.2q0.9 0.4 1.7 0.7zm-6 1.1l7.5-10.4 0.8-4.7-4.7 0.7-10.4 7.6c1.8 2.6 4.1 5 6.8 6.8z"/>
				<path id="&lt;Compound Path&gt;" class="s8" d="m72.8 159.6l-3.2-1.4 4.4-6.1zm13 0l-1.2-7.4 4.5 6.1zm-10.8-9.9l1.1-7.2-7.2 1.1 5.9-4.3-6-4.3 7.3 1.1-1.1-7.2 4.3 5.9 4.3-5.9-1.2 7.2 7.3-1.1-6 4.3 6 4.3-7.3-1.1 1.2 7.2-4.3-5.9zm-14.7-0.7l-1.3-3.2 7.4-1.2zm37.9 0l-6.1-4.5 7.5 1.2zm-6.1-15l6.1-4.5 1.3 3.3zm-25.7 0l-7.4-1.2 1.3-3.3zm7.5-7.5l-4.4-6.1 3.3-1.3zm10.6 0l1.2-7.5 3.2 1.4z"/>
				<path id="&lt;Path&gt;" class="s9" d="m79.7 106.3c-19.8 0-35.8 15.4-36.9 34.9 0-0.7-0.1-1.3-0.1-2 0-20.4 16.6-36.9 37-36.9 20.4 0 36.9 16.5 36.9 36.9 0 0.7-0.1 1.3-0.1 2-1-19.5-17.1-34.9-36.8-34.9z"/>
				<path id="&lt;Path&gt;" class="s9" d="m79.7 169c15.9 0 28.9-12.5 29.8-28.2 0 0.5 0.1 1 0.1 1.6 0 16.5-13.4 29.9-29.9 29.9-16.6 0-29.9-13.4-29.9-29.9 0-0.6 0-1.1 0-1.6 0.9 15.7 13.9 28.2 29.9 28.2z"/>
			</g>
		</g>
		<path id="&lt;Path&gt;" class="s2" d="m272.8 18.9c5.3 2.6 68.2 34.6 75.8 37.9 20.4 9 37.5 10 42.9 7.2-6.6-1.7-12.6-3.5-16.3-5.2l-106.8-46.6c-1-0.3-4.4 2.5 4.4 6.7z"/>
		<path id="&lt;Path&gt;" class="s3" d="m275.2 18.9c5.3 2.6 66.9 33.2 74.4 36.7 14.9 6.9 34.6 9.2 41.9 8.4-6.6-1.7-12.6-3.5-16.3-5.2l-104.9-45.8c-2.8-1.3-3.9 1.7 4.9 5.9z"/>
		<path id="&lt;Path&gt;" class="s10" d="m346.6 64.9l-0.5 0.2c1.3 3.5 1.4 8.4-1.3 24.1-26.3 18.7-26.8 37.6-27 46.7q0 1.8-0.1 3c-3.3 0-51.1-0.1-105.3-0.2q-0.1 0-0.2 0-1.7 0-3.5 0c-0.5-0.1-0.9-0.2-1.3-0.6-3.4-3-5.7-16.4-8.4-78.5l-0.5 0.1c2.7 62.6 5 75.6 8.6 78.8 0.1 0.1 0.3 0.1 0.4 0.2-24.3 0-49.5 0-72.5-0.1l0.1-0.3c0.4-5.9 1.5-21.5-8.3-34.1-5.9-7.7-13.9-12.1-20.9-16-8.3-4.6-14.8-8.2-14.2-15.4l0.1-0.9c0.3-3 0.9-9.3 2.4-18.2l-0.5-0.1c-1.6 8.9-2.1 15.2-2.4 18.2l-0.1 1c-0.7 7.5 6 11.2 14.4 15.8 7 3.9 14.9 8.3 20.8 16 9.6 12.4 8.5 27.9 8.1 33.7v0.8h0.3c23.3 0.1 49.1 0.1 73.9 0.1q0.5 0.2 1 0.2 0.7 0 1.3-0.1 0.6 0 1.3 0c55.7 0 104.9 0.1 105.6 0.1v-0.2h0.3c0.1-0.9 0.1-2 0.1-3.2 0.2-9.1 0.7-27.9 26.9-46.4v-0.1l0.1-0.1c2.8-15.9 2.6-20.9 1.3-24.5z"/>
		<g id="&lt;Group&gt;">
			<path id="&lt;Path&gt;" class="s10" d="m231.1 71.8c0 2-1.6 3.5-3.6 3.4l-19-1.3c-2-0.1-3.7-1.9-3.7-3.9 0-2 1.7-3.5 3.7-3.3l19 1.2c2 0.1 3.6 1.9 3.6 3.9z"/>
			<path id="&lt;Path&gt;" class="s0" d="m227.4 68.4l-19-1.2q-0.1 0-0.2 0c-1.2 0-2.2 0.7-2.6 1.7 0.4 1.4 1.6 2.4 3 2.5l19 1.2q0.1 0 0.2 0c1.2 0 2.2-0.7 2.6-1.7-0.3-1.3-1.6-2.4-3-2.5z"/>
		</g>
		<g id="&lt;Group&gt;">
			<path id="&lt;Path&gt;" class="s10" d="m121.8 64.3c0 2-1.6 3.5-3.6 3.3l-19-1.2c-2-0.1-3.6-1.9-3.6-3.9 0-2 1.6-3.5 3.6-3.4l19 1.3c2 0.1 3.6 1.9 3.6 3.9z"/>
			<path id="&lt;Path&gt;" class="s0" d="m118.2 60.9l-19-1.2q-0.1 0-0.2 0c-1.3 0-2.3 0.7-2.7 1.7 0.4 1.3 1.6 2.4 3 2.5l19 1.2q0.1 0 0.2 0c1.2 0 2.2-0.7 2.7-1.7-0.4-1.4-1.6-2.4-3-2.5z"/>
		</g>
		<path id="&lt;Path&gt;" class="s11" d="m484.3 130.8c0 0-52.8 2.6-56.4 2.6-3.6 0-11.8-44.8-57.3-44.8-40.5 0-50.2 33.9-47.5 50.6h0.9c1.9-26.6 23.2-45.6 47.9-43.7 31.8 2.5 43.3 32.5 42.4 43.5-0.2 0.3 40.7-0.3 66.1 0.3 3.7 2.1 0.1 11.1 0.1 11.1 0 0 13.6-19 3.8-19.6z"/>
		<path id="&lt;Path&gt;" class="s11" d="m129 130.9c0-24.9-21.4-45-47.7-45-26.3 0-47.7 20.1-47.7 45 0 2.1 0 4.8 0 7.7h2.7q0-0.1 0-0.1c0-24.9 20.1-45 45-45 24.9 0 45 20.1 45 45q0 0.1 0 0.3h2.5c0.3-3.8 0.2-7.2 0.2-7.9z"/>
		<path id="&lt;Path&gt;" class="s11" d="m103.2 86.3l232 12.4-204.6 11.9c0 0-5.2-13.5-27.4-24.3z"/>
		<path id="&lt;Path&gt;" class="s11" d="m37.1 19.1c0 0-25.4 30.2 5 33.6 23.7 2.7 335.9 20.2 335.9 20.2 0 0-34.6 4.6-92.5 4.3-93.1-0.7-204.6-6.6-240.2-6.6-14.3 0-51.4-3.5-8.2-51.5z"/>
		<path id="&lt;Path&gt;" class="s11" d="m7.6 119.1c-4.7-0.2-5.5 7.6-5.5 7.6 0 0-2.1-9.8 2.2-11.4 7.1 0.2 26.3 1.9 31.5 2.2-0.8 1.1-11.8 2.2-28.2 1.6z"/>
		<path id="&lt;Path&gt;" class="s12" d="m4.6 90.3c6.9 0 11.4 2.4 11.4-5.9 0-8.3-2.1-31.4 2.4-40.1 4.5-8.6 15.2-24.5 15.2-24.5 0 0-2.1-1.7-7.6 6.2-5.5 8-21.7 32.8-21.7 35.2 0 2.5-1.4 29.1 0.3 29.1z"/>
		<path id="&lt;Path&gt;" class="s13" d="m22.1 34.5c3.5-5.7 7.3-11.5 9.1-14.2-1.2 0.8-2.9 2.4-5.2 5.7-1 1.5-2.4 3.5-3.9 5.8z"/>
		<path id="&lt;Path&gt;" class="s13" d="m15.4 48.1v-6.1c-5.7 8.8-11.1 17.8-11.1 19.2 0 1-0.3 6-0.4 11.5h10.4c-0.3-8-0.4-17.8 1.1-24.6z"/>
		<path id="&lt;Path&gt;" class="s14" d="m14.6 83.1q0-1.6-0.1-3.7h-10.8q0 2 0 3.7z"/>
		<path id="&lt;Path&gt;" class="s11" d="m4.3 127c1.8-13 0.3-35.8 2.3-49-1.6-5.2 6.5-15.5 10-20.5 1.3-2.8 9.4-18.4 21.2-32.1q0.1-0.1 0.3-0.3c2.6-3.2 10.4-12.7 37.1-13.5h1.9c10.4-0.4 119.1 2.1 129.3 2q1.5 0 2.7 0c18 0 43.3 2.8 61.2 11l104.9 45.8c11 5.1 43 11.4 49.9 13.2 53.8 13.8 56.5 30.2 57.9 39 1.1 7 2.6 15.4 3.2 18.6 2.2-5.1 2.6-9.4 0.2-10.4 0 0-2-11.1-3.4-19.8-1.4-8.8-4.1-25.2-57.9-39.1-6.9-1.8-39.2-7.6-50.1-12.6l-104.7-46.3c-17.9-8.2-43.2-11.1-61.2-11.1q-1.2 0-2.7 0.1c-10.2 0.1-118.9-2.4-129.3-2.1l-1.9 0.1c-26.7 0.8-34.5 10.2-37.1 13.4q-0.2 0.2-0.3 0.4c-11.8 13.7-19.9 29.3-21.2 32-3.5 5.1-11.6 15.4-10 20.6-2 13.1-0.5 36-2.3 48.9-3.1 0.8-3.3 6.6-2.1 13.7 0.5-1.1 1.2-1.8 2.1-2z"/>
		<path id="&lt;Path&gt;" class="s4" d="m483.3 111c0 0-15.3-0.2-18.4-0.2-3.2 0-7.3-18.7-27.4-23.8 18.4 2.2 38.8 6.3 43.9 16.5 1.7 5.8 1.9 7.5 1.9 7.5z"/>
		<path id="&lt;Path&gt;" class="s15" d="m479.4 104.7c-4.3-8.6-19.6-12.9-35.3-15.3 14.5 6.9 18 21.4 20.8 21.4 2.4 0 11.9 0.1 16.2 0.2-0.2-1.1-0.7-3.1-1.7-6.3z"/>
		<path id="&lt;Path&gt;" class="s16" d="m456.9 99.9c0 0 10.1-4.8 9.6-5-6.4-2.5-14.4-4.3-22.4-5.5 5.8 2.8 9.8 6.7 12.8 10.5z"/>
		<path id="&lt;Path&gt;" class="s14" d="m461.4 106.6c1.5 2.5 2.5 4.2 3.5 4.2 2.4 0 11.9 0.1 16.2 0.2-0.2-0.9-0.5-2.3-1.1-4.4z"/>
		<path id="&lt;Path&gt;" class="s4" d="m483.4 113.2h-14.5c-2.2 0-3.9 1.8-3.9 3.9 0 2.1 1.7 3.9 3.9 3.9h15.8c-0.4-2.5-0.9-5.2-1.3-7.8z"/>
		<path id="&lt;Path&gt;" class="s15" d="m483.1 117.1c0-1.6-1.3-2.9-2.9-2.9h-13.9c-0.8 0.7-1.3 1.7-1.3 2.9 0 1.2 0.5 2.2 1.3 2.9h13.9c1.6 0 2.9-1.3 2.9-2.9z"/>
		<path id="&lt;Compound Path&gt;" fill-rule="evenodd" class="s17" d="m52.8 28.6q-2-7.7-3.3-15.6c2.7-2.7 9.2-7.2 26.5-7.6zm6.3 20.2q-2-5.4-3.7-10.9l32.5-32.5c4 0.1 8.8 0.2 14.3 0.3q-21.5 21.6-43.1 43.1zm35.9-14q-0.9 3.3-1.6 6.5-1.2 5-2.2 10.1l-12-0.7q7.9-8 15.8-15.9zm102.6-16.4q-0.2-1.8-0.5-3.5l6.7-6.7q1.9 0.1 3.9 0.1-5 5.1-10.1 10.1zm26.7 40.6l-20.8-1.2 43.6-43.7c3.7 1.2 7.2 2.5 10.1 4.1l5.2 2.7q-19 19.1-38.1 38.1zm12.4 0.7l-3.4-0.2 35.2-35.3 2.4 1.3zm-88.7-5.1l-35.3-2q22.8-22.8 45.6-45.6c12.7 0.3 24.6 0.5 32.8 0.7q0.2 1.7 0.5 3.3zm12.7 0.7l-3.8-0.2 35.9-35.9q0.2 1.8 0.5 3.6zm-61.8-8.4q0.4-2.1 0.9-4.2 2.1-8.9 4.9-17.7 9.4-9.4 18.8-18.8c5 0.1 10.3 0.3 15.7 0.4q-20.2 20.1-40.3 40.3z"/>
		<path id="&lt;Compound Path&gt;" fill-rule="evenodd" class="s17" d="m275.2 18.9c1.1 0.6 4.8 2.4 9.8 4.9q1.6-1.5 3.1-3l-17.8-7.8c-2.8-1.3-3.9 1.7 4.9 5.9zm70.7 27.1l-5-2.2q-2.5 2.6-5.1 5.1 2.6 1.3 4.8 2.4zm-21.9-9.6l-25.6-11.2-3.5 3.5c7.6 3.7 16.4 8.1 24.7 12.2q2.2-2.2 4.4-4.5z"/>
	</g>
</svg>