<svg version="1.2" xmlns="http://www.w3.org/2000/svg" viewBox="0 0 452 148" width="452" height="148">
	<title>-e-9</title>
	<style>
		.s0 { fill: #191919 } 
		.s1 { fill: #689552 } 
		.s2 { opacity: .2;fill: #ffffff } 
		.s3 { fill: #4c7038 } 
		.s4 { fill: #d6d6d6 } 
		.s5 { fill: #232122 } 
		.s6 { fill: #80c2dc } 
		.s7 { fill: #070000 } 
		.s8 { fill: #d60606 } 
		.s9 { fill: #f9eff0 } 
		.s10 { fill: #999999 } 
		.s11 { fill: #262626 } 
		.s12 { fill: #3d592c } 
		.s13 { fill: #4e6d3d } 
		.s14 { fill: #ffffff } 
		.s15 { fill: #d86b32 } 
		.s16 { opacity: .7;fill: #ffffff } 
		.s17 { fill: #547c3e } 
	</style>
	<g id="-e-9">
		<path id="&lt;Path&gt;" class="s0" d="m437.5 117.7l-8.7-34.6c-5-6.7-9.8-16.8-54.6-22.2l-70.7-8.7c-23.4-14-58.2-30.5-82.3-39.7-14.9-5.7-82.7-8.2-108-5.9-20.2 1.9-28.2 5.6-48.4 26.6-13.9 14.4-36.5 13.1-45.7 27.8-8.7 4.1-5.9 25.2-5.9 25.2-3.7 15.3-3.5 18.6 5.4 32.6 10.6 16.6 19.4 14.7 25.3 14.7l374.3 0.6c8 0 25.5-5.4 19.3-16.4z"/>
		<path id="&lt;Path&gt;" class="s1" d="m449.4 97.7l-11.7-19.1c-5.2-6.7-10.1-16.9-57-22.2l-73.7-8.8c-24.5-13.9-60.8-30.4-86-39.7-15.6-5.7-86.4-8.1-112.8-5.8-21.1 1.9-29.4 5.6-50.6 26.6-14.5 14.4-38 13.1-47.6 27.8-9.1 4.1-6.2 25.2-6.2 25.2-3.8 15.3-3.7 18.5 5.7 32.6 5.5 8.3 10.6 11.9 15 13.5 4.5 1.6 8.3-14.6 11.4-14.6 0 0 8.5 16.4 81.9 16.4 54.2 0 153-0.3 157.4-0.3 17.8 0 38.2-18 54.3-18 18 0 57.6-0.7 80.4-0.7 5.1 0 10.6 16.4 25 16.4 1.7 0 20.9-18.4 14.5-29.3z"/>
		<path id="&lt;Path&gt;" class="s2" d="m446 92.1l-8.3-13.5c-1.8-2.4-3.7-5.2-7.4-8.1-11.2-0.5-19.6 2.4-22.3 7.7q0 0.6 0.2 1.3 0.2 1.1 0.7 2.2c6.8 4.7 17.3 8.6 28.4 9.9q4.6 0.6 8.7 0.5z"/>
		<path id="&lt;Path&gt;" class="s3" d="m277 113.9c-0.1-2.2 0-5.8 0-10.4 0-17.2 0-46-4.9-51.6l-0.7 0.5c4.8 5.4 4.7 35.1 4.7 51.1 0 4.6 0 8.2 0.1 10.4 0.2 5.2-0.3 7.9-1.5 9.2-1.1 1.1-2.9 1.2-5.7 1-3.2-0.3-41.5-0.4-77.3-0.4-5.2 0-5.3-0.9-5.9-5.2l-0.1-1c-0.6-4.1-1.5-12.1-2.6-21.4-1.9-16.5-4.3-37-5.7-44.6l-0.8 0.1c1.3 7.6 3.7 28.1 5.7 44.6 1 9.3 2 17.3 2.5 21.4l0.2 1c0.3 2.6 0.5 4.2 1.9 5.1-26.9-0.1-51.3-0.1-57-0.1h-0.9c-7.2 0.1-9.3 0.1-10.5-19.1-1.1-16.7-13.2-30.4-24.6-35.3-1.6-0.7-2.9-1-3.9-1.2-1.9-0.4-2.8-0.5-3.8-3.4-0.7-2-2.5-7.3-0.2-20.5v-2.5c-3.8 14.2-1.7 20-0.6 23.2 1.2 3.4 2.4 3.7 4.5 4.1 0.9 0.2 2.1 0.4 3.7 1.1 9 3.9 22.9 16.3 24 34.6 1.3 19.9 3.8 19.9 11.4 19.9h0.9c13.6 0 133.3 0 139.1 0.4q1 0.1 1.9 0.1c2 0 3.3-0.3 4.3-1.3 1.5-1.5 2.1-4.3 1.8-9.8z"/>
		<g id="&lt;Group&gt;">
			<path id="&lt;Path&gt;" class="s4" d="m103.8 10.9c-6.1 5.5-24.7 36.3-15.9 37.2 23.1 2.2 138.9 4.6 185.2 4.9 3.4 0-48.2-36.3-55.9-40.6-7.9-4.3-103.8-10.2-113.4-1.5z"/>
			<path id="&lt;Path&gt;" class="s5" d="m271.8 52.2c-47.1-0.4-161-2.8-184.1-5-0.8-0.1-1-0.5-1.1-0.6-2.5-5.1 12.1-29.8 17.8-34.9 3.4-3.1 20.3-4.6 45.9-4.2 29 0.4 62.2 3.3 66.6 5.7 7.6 4.2 48.4 33 54.9 39z"/>
			<path id="&lt;Path&gt;" class="s6" d="m174.4 49.7c-26.2-0.7-72.7-2-86.8-3.4q-0.2 0-0.3 0c-1.9-4.6 12-28.6 17.8-33.8 3.2-3 20.3-4.5 45.4-4.1 4.7 0.1 9.7 0.2 14.9 0.4 2.3 13.2 5.3 26.6 9 40.9z"/>
			<path id="&lt;Path&gt;" class="s6" d="m244.3 51.1c-20-0.3-43-0.8-65-1.3-3.7-14.3-6.6-27.7-8.9-40.8 23.1 1.2 43.1 3.3 46.3 5 4.4 2.5 20.5 13.5 33.3 22.7-1.9 5.2-3.8 9.9-5.7 14.4z"/>
		</g>
		<path id="&lt;Path&gt;" class="s5" d="m86.3 6.7c-8.6 3.5-16.5 9.9-28.7 22-5.1 5-11.3 8.2-17.6 10.7 17 3.2 37.7-21.3 42.4-26.3 2.9-3 3.8-4.6 3.9-6.4z"/>
		<path id="&lt;Path&gt;" class="s6" d="m81.6 12.3c2.3-2.3 3.3-3.8 3.7-5.2-8.2 3.6-15.9 9.9-27.7 21.6-4.7 4.7-10.4 7.7-16.3 10.2 16.6 0.9 35.9-21.8 40.3-26.6z"/>
		<path id="&lt;Path&gt;" class="s5" d="m221.2 10.8c5.7 2.3 59.9 32.8 68.4 36.2 6.7 2.7 16.8 5 24.4 1.5l-7-0.9c-24.4-13.8-60.3-30.2-85.5-39.4-1.9 0.6-2.9 1.6-0.3 2.6z"/>
		<path id="&lt;Path&gt;" class="s6" d="m309.7 48l-2.7-0.4c-24.2-13.7-59.8-29.9-84.9-39.2-1.2 0.6-1.6 1.4 0.5 2.3 5.5 2.1 58.4 31.7 66.6 35 5.6 2.2 13.6 4 20.5 2.3z"/>
		<g id="&lt;Group&gt;">
			<path id="&lt;Path&gt;" class="s0" d="m73.8 70.2c22.2-0.6 40.6 16.9 41.1 39.1 0.1 1.3 0 22 13 22-33.3 0.7-83.4-2.4-93-2.4 0-3.7-0.2-16-0.3-17.6-0.5-22.2 17-40.6 39.2-41.1z"/>
			<g id="&lt;Group&gt;">
				<path id="&lt;Path&gt;" fill-rule="evenodd" class="s7" d="m74.5 147.7c-20.7 0-37.5-16.8-37.5-37.5 0-20.7 16.8-37.5 37.5-37.5 20.7 0 37.5 16.8 37.5 37.5 0 20.7-16.8 37.5-37.5 37.5z"/>
				<path id="&lt;Path&gt;" class="s8" d="m58.5 121.4c8 7.6 6.6-6 14.2-14 7.6-8 21.2-7.3 13.3-14.8-8-7.6-20.6-7.3-28.2 0.6-7.6 8-7.3 20.6 0.7 28.2z"/>
				<path id="&lt;Compound Path&gt;" fill-rule="evenodd" class="s9" d="m74.5 139.1c-16 0-28.9-12.9-28.9-28.9 0-16 12.9-29 28.9-29 16 0 28.9 13 28.9 29 0 16-12.9 28.9-28.9 28.9zm-22.7-18l2.9-2.2-3.6 0.6q0.3 0.8 0.7 1.6zm10.3-7.8l3.7-2.8-3.8-2.7-12.4-1.6q-0.4 2.2-0.3 4.6 0 2.4 0.5 4.7zm36.3 5.2l-4.3-0.5 3.5 2.4q0.4-0.9 0.8-1.9zm1-4q0.4-2.4 0.4-4.9-0.1-2.4-0.6-4.7l-12.9 2.4-3.6 2.8 3.8 2.6zm-2.3-15.4l-3.5 2.6 4.3-0.7q-0.4-1-0.8-1.9zm-46.5 3.1l3.7 0.5-3.1-2.1q-0.3 0.8-0.6 1.6zm2.6-5.4l10.3 7.1 4.6 0.7-0.8-4.6-7.7-10c-2.6 1.8-4.7 4.2-6.4 6.8zm12.4-5.9l-0.7-3.9q-0.9 0.4-1.7 0.8zm3.3-5.2l2.3 12.5 2.8 3.7 2.6-3.8 1.7-12.8q-2.1-0.3-4.4-0.3-2.6 0.1-5 0.7zm13 4.8l2.4-3.5q-1-0.4-1.9-0.7zm6.2-1.5l-7.4 10.7-0.6 4.6 4.5-0.9 10.4-7.9c-1.9-2.6-4.2-4.8-6.9-6.5zm7.6 35.2l-10.8-7.4-4.5-0.6 0.8 4.5 7.8 10.3c2.7-1.8 4.9-4.2 6.7-6.8zm-12.8 5.6l0.7 4q0.9-0.3 1.8-0.7zm-3.3 5.2l-2.3-12.5-2.8-3.7-2.6 3.8-1.7 12.5q2.4 0.5 5 0.4 2.3-0.1 4.4-0.5zm-13-4.8l-2.2 3.2q0.8 0.3 1.7 0.6zm-5.9 1.2l7.1-10.3 0.6-4.6-4.5 0.8-9.9 7.6c1.8 2.6 4.1 4.8 6.7 6.5z"/>
				<path id="&lt;Compound Path&gt;" class="s10" d="m68.3 130.2l-3.2-1.2 4.2-6.1zm12.7-0.3l-1.3-7.2 4.4 5.8zm-10.8-9.4l1-7.1-7.1 1.3 5.7-4.3-5.9-4.1 7.1 1-1.3-7.1 4.4 5.7 4-5.9-0.9 7.1 7.1-1.3-5.8 4.4 6 4-7.2-0.9 1.4 7-4.4-5.7zm-14.3-0.3l-1.4-3.1 7.3-1.3zm36.9-1l-6-4.1 7.2 1zm-6.3-14.6l5.9-4.5 1.4 3.2zm-25.1 0.6l-7.3-1 1.2-3.2zm7.2-7.5l-4.5-5.8 3.2-1.4zm10.4-0.3l0.9-7.3 3.2 1.3z"/>
				<path id="&lt;Path&gt;" class="s11" d="m73.7 78c-19.2 0.5-34.5 16-35.1 35 0-0.6-0.1-1.3-0.1-1.9-0.5-19.9 15.2-36.5 35.1-36.9 19.9-0.5 36.4 15.2 36.9 35.1 0 0.6 0 1.3 0 1.9-1.5-18.9-17.6-33.6-36.8-33.2z"/>
				<path id="&lt;Path&gt;" class="s11" d="m75.2 139.3c15.6-0.4 28-13 28.4-28.3 0.1 0.5 0.1 1 0.1 1.5 0.4 16.1-12.3 29.5-28.4 29.9-16.1 0.4-29.5-12.3-29.9-28.4 0-0.6 0-1.1 0.1-1.6 1.2 15.3 14.1 27.2 29.7 26.9z"/>
			</g>
		</g>
		<path id="&lt;Path&gt;" class="s0" d="m368.7 70.2c22.2-0.6 40.6 16.9 41.1 39.1 0.1 1.3 0.4 10.2 1 20.2-33.3 0.7-72 2.9-81.6 2.9 0-3.7 0.4-19.5 0.3-21.1-0.5-22.2 17-40.6 39.2-41.1z"/>
		<g id="&lt;Group&gt;">
			<path id="&lt;Path&gt;" fill-rule="evenodd" class="s7" d="m369.4 147.7c-20.7 0-37.5-16.8-37.5-37.5 0-20.7 16.8-37.5 37.5-37.5 20.7 0 37.5 16.8 37.5 37.5 0 20.7-16.8 37.5-37.5 37.5z"/>
			<path id="&lt;Path&gt;" class="s8" d="m353.4 121.4c8 7.6 6.6-6 14.2-14 7.6-8 21.2-7.3 13.3-14.8-8-7.6-20.6-7.3-28.2 0.6-7.6 8-7.2 20.6 0.7 28.2z"/>
			<path id="&lt;Compound Path&gt;" fill-rule="evenodd" class="s9" d="m369.4 139.1c-16 0-28.9-12.9-28.9-28.9 0-16 12.9-29 28.9-29 16 0 28.9 13 28.9 29 0 16-12.9 28.9-28.9 28.9zm-22.7-18l2.9-2.2-3.6 0.6q0.3 0.8 0.7 1.6zm10.3-7.8l3.7-2.8-3.8-2.7-12.4-1.6q-0.4 2.2-0.3 4.6 0 2.4 0.6 4.7zm36.2 5.2l-4.3-0.5 3.5 2.4q0.4-0.9 0.8-1.9zm1-4q0.4-2.4 0.4-4.9-0.1-2.4-0.6-4.7l-12.8 2.4-3.7 2.8 3.8 2.6zm-2.3-15.4l-3.5 2.6 4.3-0.7q-0.4-1-0.8-1.9zm-46.5 3.1l3.8 0.5-3.2-2.1q-0.3 0.8-0.6 1.6zm2.6-5.4l10.3 7.1 4.6 0.7-0.8-4.6-7.7-10c-2.6 1.8-4.7 4.2-6.4 6.8zm12.4-5.9l-0.7-3.9q-0.9 0.4-1.7 0.8zm3.3-5.2l2.3 12.5 2.8 3.7 2.6-3.8 1.7-12.8q-2.1-0.3-4.4-0.3-2.6 0.1-5 0.7zm13 4.8l2.4-3.5q-0.9-0.4-1.9-0.7zm6.2-1.5l-7.4 10.7-0.6 4.6 4.5-0.9 10.4-7.9c-1.9-2.6-4.2-4.8-6.9-6.5zm7.6 35.2l-10.7-7.4-4.6-0.6 0.8 4.5 7.8 10.3c2.7-1.8 4.9-4.2 6.7-6.8zm-12.8 5.6l0.7 4q0.9-0.3 1.8-0.7zm-3.3 5.2l-2.3-12.5-2.8-3.7-2.6 3.8-1.7 12.5q2.4 0.5 5 0.4 2.3-0.1 4.4-0.5zm-13-4.8l-2.2 3.2q0.9 0.3 1.7 0.6zm-5.9 1.2l7.1-10.3 0.6-4.6-4.5 0.8-9.9 7.6c1.8 2.6 4.1 4.8 6.7 6.5z"/>
			<path id="&lt;Compound Path&gt;" class="s10" d="m363.2 130.2l-3.2-1.2 4.2-6.1zm12.7-0.3l-1.3-7.2 4.4 5.8zm-10.8-9.4l1-7.1-7.1 1.3 5.7-4.3-5.9-4.1 7.1 1-1.3-7.1 4.4 5.7 4.1-5.9-1 7.1 7.1-1.3-5.8 4.4 6 4-7.2-0.9 1.4 7-4.4-5.7zm-14.3-0.3l-1.4-3.1 7.3-1.3zm36.9-1l-6-4.1 7.2 1zm-6.3-14.6l5.9-4.5 1.4 3.2zm-25.1 0.6l-7.3-1 1.2-3.2zm7.2-7.5l-4.5-5.8 3.2-1.4zm10.4-0.3l0.9-7.3 3.2 1.3z"/>
			<path id="&lt;Path&gt;" class="s11" d="m368.6 78c-19.2 0.5-34.5 16-35.1 35 0-0.6-0.1-1.3-0.1-1.9-0.5-19.9 15.2-36.5 35.1-36.9 19.9-0.5 36.4 15.2 36.9 35.1 0 0.6 0 1.3 0 1.9-1.5-18.9-17.5-33.6-36.8-33.2z"/>
			<path id="&lt;Path&gt;" class="s11" d="m370.1 139.3c15.6-0.4 28-13 28.4-28.3 0.1 0.5 0.1 1 0.1 1.5 0.4 16.1-12.3 29.5-28.4 29.9-16.1 0.4-29.5-12.3-29.9-28.4 0-0.6 0-1.1 0.1-1.6 1.2 15.3 14.1 27.2 29.7 26.9z"/>
		</g>
		<g id="&lt;Group&gt;">
			<path id="&lt;Path&gt;" class="s3" d="m199.8 57.7c0.4 1.9-0.8 3.4-2.7 3.3l-12.5-0.3c-1.8-0.1-3.7-1.7-4.1-3.5-0.4-1.9 0.8-3.4 2.6-3.3l12.5 0.3c1.9 0.1 3.7 1.7 4.2 3.5z"/>
			<path id="&lt;Path&gt;" class="s12" d="m195.4 54.7l-11.9-0.3c-1.4-0.1-2.4 0.9-2.6 2.2 0.7 1.6 2.2 2.7 3.7 2.8l11.9 0.3c1.4 0.1 2.4-0.9 2.5-2.2-0.6-1.6-2.1-2.7-3.6-2.8z"/>
			<path id="&lt;Path&gt;" class="s1" d="m195.4 54.7l-11.9-0.3c-1.4-0.1-2.4 0.7-2.6 1.8 0.7 1.2 2.2 2.2 3.7 2.2l11.9 0.3c1.4 0.1 2.4-0.7 2.5-1.8-0.6-1.3-2.1-2.2-3.6-2.2z"/>
		</g>
		<g id="&lt;Group&gt;">
			<path id="&lt;Path&gt;" class="s3" d="m107.1 54.8c0.4 1.8-0.8 3.3-2.6 3.2l-12.5-0.3c-1.9-0.1-3.7-1.6-4.1-3.5-0.4-1.9 0.7-3.3 2.6-3.3l12.5 0.4c1.9 0 3.7 1.6 4.1 3.5z"/>
			<path id="&lt;Path&gt;" class="s12" d="m102.7 51.8l-11.9-0.4c-1.4-0.1-2.4 0.9-2.5 2.2 0.6 1.6 2.1 2.8 3.7 2.8l11.8 0.4c1.5 0 2.5-0.9 2.6-2.3-0.6-1.5-2.2-2.7-3.7-2.7z"/>
			<path id="&lt;Path&gt;" class="s1" d="m102.7 51.7l-11.9-0.3c-1.4 0-2.4 0.7-2.5 1.8 0.6 1.3 2.1 2.2 3.7 2.3l11.8 0.3c1.5 0 2.5-0.8 2.6-1.9-0.6-1.2-2.2-2.2-3.7-2.2z"/>
		</g>
		<path id="&lt;Path&gt;" class="s13" d="m442.5 86.4l-4.8-7.8c-2.1-2.8-4.3-6.2-9.4-9.6-12.7-1.2-21.6 2.6-20.1 8.6q0.2 0.8 0.6 1.6c5.6 3.4 14.2 6.1 23.3 7 3.8 0.4 7.3 0.4 10.4 0.2z"/>
		<path id="&lt;Path&gt;" class="s9" d="m442.5 86.4l-4.8-7.8c-1.7-2.3-3.5-4.9-6.8-7.7-11.5-1.2-20.3 1.2-22.9 5.7q0 0.5 0.2 1 0.2 0.8 0.6 1.6c5.6 3.4 14.2 6.1 23.3 7 3.8 0.4 7.3 0.4 10.4 0.2z"/>
		<path id="&lt;Path&gt;" class="s14" d="m408.8 79.2q1 0.6 2.1 1.1c2.9-3.2 6.4-6.2 9.4-9.4-6.1 0.7-10.6 2.7-12.3 5.7q0 0.5 0.2 1 0.2 0.8 0.6 1.6z"/>
		<path id="&lt;Path&gt;" class="s14" d="m421.2 79.1c2.8-2.7 5.6-5.3 8.2-8.2q0.1 0 0.1-0.1-2-0.1-3.9-0.2-0.4 0.5-0.8 1c-3 3.6-6.9 6.9-10.3 10.4q1.4 0.6 3 1.1c1.2-1.3 2.4-2.7 3.7-4z"/>
		<path id="&lt;Path&gt;" class="s14" d="m434.2 75.3q0.3-0.3 0.5-0.6-0.8-1-1.8-2-0.9 1-1.8 2c-3 3.1-5.8 5.6-9.5 9.6q1.4 0.4 3 0.8c3.1-3.4 6.6-6.4 9.6-9.8z"/>
		<path id="&lt;Path&gt;" class="s14" d="m437.1 77.8c-2.5 2.7-5.4 5.3-8.1 8.1q1.6 0.2 3.1 0.3c3.8 0.4 7.3 0.4 10.4 0.2l-4.8-7.8q-0.3-0.4-0.6-0.8z"/>
		<path id="&lt;Path&gt;" class="s15" d="m435.3 82.7c-10.1-0.4-19.8-2.1-27-4.6q0.2 0.5 0.5 1.1c5.6 3.4 14.2 6.1 23.3 7 3.8 0.4 7.3 0.4 10.4 0.2l-2.2-3.7q-2.4 0.1-5 0z"/>
		<path id="&lt;Path&gt;" class="s2" d="m407.9 98c13.5 0 38.3-0.2 40.2-0.2 1.9 0 3 6.8-0.4 12.5 0-4.2-0.7-7.5-5.1-7.5-4.3 0-32.7-1.3-34.7-4.8z"/>
		<path id="&lt;Path&gt;" class="s2" d="m4.6 82c7.5 0 29.6 1.5 37.2 1.5-2 2-3.6 9.8-13 10.1-9.4 0.4-25.8-2.3-27.1 1.1 0.2-3.1 0.8-8.5 2.9-12.7z"/>
		<path id="&lt;Path&gt;" class="s13" d="m33.1 56.9h-23.9c-6.1 3.7-6.1 15.8-5.7 21.6h15c2.4 0 5.5-1.9 7.1-4.2l8.9-13.2c1.6-2.3 0.9-4.2-1.4-4.2z"/>
		<path id="&lt;Path&gt;" class="s8" d="m30.6 58.5h-23.3c-4 4.6-4.1 14-3.8 19.3h12.5c2.3 0 5.5-1.7 7.1-3.8l8.8-11.7c1.6-2.1 1-3.8-1.3-3.8z"/>
		<path id="&lt;Path&gt;" class="s0" d="m321.4 63.6c0 0 10.5 5.5 4.3 9.8 3.9-0.1 7.4-1.9 7.4-4.7 0-1.9-4.9-5.1-11.7-5.1z"/>
		<path id="&lt;Path&gt;" class="s15" d="m30.5 64.2l1.4-1.9c1.6-2.1 1-3.8-1.3-3.8h-10q-1 2.9-2 5.7z"/>
		<path id="&lt;Path&gt;" class="s15" d="m17.4 68q-1.4 4.8-2.6 9.8h1.2c2.3 0 5.5-1.7 7.1-3.8l4.5-6z"/>
		<g id="&lt;Group&gt;" style="opacity: .2">
			<path id="&lt;Path&gt;" class="s14" d="m336.4 65.4c0-8.7-34-6.6-50.2-4.9 0 0 49.7 0.2 49.3 7.3q0 0.9-0.2 1.7c0.7-1.1 1.1-2.4 1.1-4.1z"/>
		</g>
		<path id="&lt;Path&gt;" class="s3" d="m285.9 60.5c21.3 0 49.6-1 49.6 6.6 0 10.4-16.1 7.9-22.1 7.9 7.9-0.8 17.6-1 17.6-6.3 0-4.5-11.1-6.1-45.1-8.2z"/>
		<path id="&lt;Path&gt;" class="s2" d="m449.4 97.7l-11.7-19.1c-5.2-6.7-10.1-16.9-57-22.2l-73.7-8.8c-24.5-13.9-60.8-30.4-86-39.7-15.6-5.7-86.4-8.1-112.8-5.8-21.1 1.9-29.4 5.6-50.6 26.6-14.5 14.4-38 13.1-47.6 27.8-9.1 4.1-6.2 25.2-6.2 25.2-3.6 14.5-3.7 18.1 4.2 30.4q0.2-0.1 0.3-0.1 0.1-0.1 0.3-0.3c-4.4-7.7-3.8-12-0.9-23.3 0 0-2.9-19.9 6.1-23.8 9.5-13.9 60.5-6.3 70.6-23.2 14.1-23.8 12.6-31 33.4-32.8 26-2.2 84.5-2.4 99.1 4.6 15.5 7.4 36.7 26.9 60.8 40l72.4 6.3c46.1 5 75.8 20.3 80.9 26.6l15.6 17.4c2.1 3.3 1.5 7.4-0.4 11.4 3.7-5.7 6.1-12.2 3.2-17.2z"/>
		<path id="&lt;Path&gt;" class="s2" d="m368.6 70.4c-21.8 0.6-39 18.1-39.6 39.5-0.1-0.7-0.2-1.4-0.2-2.2-0.6-22.4 17.2-41.1 39.6-41.6 22.5-0.6 41.2 17.2 41.7 39.6 0 0.8 0 1.5 0 2.2-1.7-21.4-19.8-38-41.5-37.5z"/>
		<path id="&lt;Path&gt;" class="s2" d="m73.6 70.4c-21.7 0.6-39 18.1-39.6 39.5 0-0.7-0.1-1.4-0.1-2.2-0.6-22.4 17.2-41.1 39.6-41.6 22.5-0.6 41.1 17.2 41.7 39.6 0 0.8-0.1 1.5-0.1 2.2-1.6-21.4-19.8-38-41.5-37.5z"/>
		<path id="&lt;Path&gt;" class="s2" d="m85.8 51.6l204.4 8.4c0 0-82.3 8.5-202.7 1.7-5.1-3.4-1.7-10.1-1.7-10.1z"/>
		<path id="&lt;Path&gt;" class="s2" d="m121.4 107.5c47.5 0 69.6 3.4 96.7-6.8 27.1-10.1 74.7-20.1 117.9-16.9-3.4 6.8-6 9.3-7.7 18.6-14.4 0-41.5-2.5-79.7 7.7-38.1 10.1-72 3.4-127.2-2.6z"/>
		<path id="&lt;Path&gt;" class="s16" d="m213.9 13.2c-5.5-1.2-17.4-2.5-31.8-3.5q-4.9 4.9-9.7 9.7c1.8 9.3 4 18.8 6.5 28.8z"/>
		<path id="&lt;Path&gt;" class="s16" d="m234.9 26.1c-5.1-3.6-9.9-6.8-13.5-9.1l-33 33c7.4 0.2 14.8 0.3 22.2 0.5q12.1-12.2 24.3-24.4z"/>
		<path id="&lt;Path&gt;" class="s16" d="m87.6 46.3c2.6 0.3 6.4 0.5 11 0.8l38.7-38.7c-17.8 0.2-29.6 1.7-32.2 4.1-5.8 5.2-19.7 29.2-17.8 33.8q0.1 0 0.3 0z"/>
		<path id="&lt;Path&gt;" class="s16" d="m153.4 8.5q-1.5-0.1-2.9-0.1-4-0.1-7.8-0.1-19.5 19.5-39 39c3.2 0.2 6.7 0.4 10.3 0.5z"/>
		<path id="&lt;Path&gt;" class="s16" d="m143 48.8c11.4 0.3 22.6 0.6 31.4 0.9-2.3-9-4.4-17.7-6.2-26.2q-12.6 12.7-25.2 25.3z"/>
		<g id="&lt;Group&gt;">
			<path id="&lt;Path&gt;" class="s17" d="m261.9 50.9c-1 4.9-11.3 7-16.2 6-4.8-0.9-8-5.7-7-10.6 0.9-4.9 5.7-8.1 10.5-7.1 4.9 0.9 13.6 6.8 12.7 11.7z"/>
			<g id="&lt;Group&gt;" style="opacity: .5">
				<path id="&lt;Path&gt;" class="s14" d="m241.4 43.2c0.9 2.3 3 4.2 5.7 4.7 3 0.6 8.5-0.2 11.7-2.2-2.4-2.8-6.6-5.3-9.5-5.8-3.1-0.7-6.2 0.7-7.9 3.3z"/>
			</g>
		</g>
	</g>
</svg>